G04 #@! TF.GenerationSoftware,KiCad,Pcbnew,5.1.5-52549c5~84~ubuntu18.04.1*
G04 #@! TF.CreationDate,2020-07-07T10:00:02+09:00*
G04 #@! TF.ProjectId,PulseOximeterTHT_rev4,50756c73-654f-4786-996d-657465725448,rev?*
G04 #@! TF.SameCoordinates,Original*
G04 #@! TF.FileFunction,Legend,Bot*
G04 #@! TF.FilePolarity,Positive*
%FSLAX46Y46*%
G04 Gerber Fmt 4.6, Leading zero omitted, Abs format (unit mm)*
G04 Created by KiCad (PCBNEW 5.1.5-52549c5~84~ubuntu18.04.1) date 2020-07-07 10:00:02*
%MOMM*%
%LPD*%
G04 APERTURE LIST*
%ADD10C,0.150000*%
%ADD11O,1.702000X1.702000*%
%ADD12C,1.702000*%
%ADD13R,1.802000X1.802000*%
%ADD14O,1.802000X1.802000*%
%ADD15R,1.702000X1.702000*%
%ADD16C,4.102000*%
%ADD17C,1.602000*%
%ADD18R,1.602000X1.602000*%
%ADD19C,1.902000*%
%ADD20R,1.902000X1.902000*%
%ADD21C,2.102000*%
G04 APERTURE END LIST*
D10*
X235210000Y-161742380D02*
X235210000Y-160742380D01*
X234781428Y-161742380D02*
X234781428Y-161218571D01*
X234829047Y-161123333D01*
X234924285Y-161075714D01*
X235067142Y-161075714D01*
X235162380Y-161123333D01*
X235210000Y-161170952D01*
X234448095Y-161075714D02*
X234067142Y-161075714D01*
X234305238Y-160742380D02*
X234305238Y-161599523D01*
X234257619Y-161694761D01*
X234162380Y-161742380D01*
X234067142Y-161742380D01*
X233876666Y-161075714D02*
X233495714Y-161075714D01*
X233733809Y-160742380D02*
X233733809Y-161599523D01*
X233686190Y-161694761D01*
X233590952Y-161742380D01*
X233495714Y-161742380D01*
X233162380Y-161075714D02*
X233162380Y-162075714D01*
X233162380Y-161123333D02*
X233067142Y-161075714D01*
X232876666Y-161075714D01*
X232781428Y-161123333D01*
X232733809Y-161170952D01*
X232686190Y-161266190D01*
X232686190Y-161551904D01*
X232733809Y-161647142D01*
X232781428Y-161694761D01*
X232876666Y-161742380D01*
X233067142Y-161742380D01*
X233162380Y-161694761D01*
X232305238Y-161694761D02*
X232210000Y-161742380D01*
X232019523Y-161742380D01*
X231924285Y-161694761D01*
X231876666Y-161599523D01*
X231876666Y-161551904D01*
X231924285Y-161456666D01*
X232019523Y-161409047D01*
X232162380Y-161409047D01*
X232257619Y-161361428D01*
X232305238Y-161266190D01*
X232305238Y-161218571D01*
X232257619Y-161123333D01*
X232162380Y-161075714D01*
X232019523Y-161075714D01*
X231924285Y-161123333D01*
X231448095Y-161647142D02*
X231400476Y-161694761D01*
X231448095Y-161742380D01*
X231495714Y-161694761D01*
X231448095Y-161647142D01*
X231448095Y-161742380D01*
X231448095Y-161123333D02*
X231400476Y-161170952D01*
X231448095Y-161218571D01*
X231495714Y-161170952D01*
X231448095Y-161123333D01*
X231448095Y-161218571D01*
X230257619Y-160694761D02*
X231114761Y-161980476D01*
X229210000Y-160694761D02*
X230067142Y-161980476D01*
X228876666Y-161075714D02*
X228876666Y-162075714D01*
X228876666Y-161123333D02*
X228781428Y-161075714D01*
X228590952Y-161075714D01*
X228495714Y-161123333D01*
X228448095Y-161170952D01*
X228400476Y-161266190D01*
X228400476Y-161551904D01*
X228448095Y-161647142D01*
X228495714Y-161694761D01*
X228590952Y-161742380D01*
X228781428Y-161742380D01*
X228876666Y-161694761D01*
X227971904Y-161742380D02*
X227971904Y-161075714D01*
X227971904Y-160742380D02*
X228019523Y-160790000D01*
X227971904Y-160837619D01*
X227924285Y-160790000D01*
X227971904Y-160742380D01*
X227971904Y-160837619D01*
X227352857Y-161742380D02*
X227448095Y-161694761D01*
X227495714Y-161647142D01*
X227543333Y-161551904D01*
X227543333Y-161266190D01*
X227495714Y-161170952D01*
X227448095Y-161123333D01*
X227352857Y-161075714D01*
X227210000Y-161075714D01*
X227114761Y-161123333D01*
X227067142Y-161170952D01*
X227019523Y-161266190D01*
X227019523Y-161551904D01*
X227067142Y-161647142D01*
X227114761Y-161694761D01*
X227210000Y-161742380D01*
X227352857Y-161742380D01*
X226590952Y-161075714D02*
X226590952Y-161742380D01*
X226590952Y-161170952D02*
X226543333Y-161123333D01*
X226448095Y-161075714D01*
X226305238Y-161075714D01*
X226210000Y-161123333D01*
X226162380Y-161218571D01*
X226162380Y-161742380D01*
X225305238Y-161694761D02*
X225400476Y-161742380D01*
X225590952Y-161742380D01*
X225686190Y-161694761D01*
X225733809Y-161599523D01*
X225733809Y-161218571D01*
X225686190Y-161123333D01*
X225590952Y-161075714D01*
X225400476Y-161075714D01*
X225305238Y-161123333D01*
X225257619Y-161218571D01*
X225257619Y-161313809D01*
X225733809Y-161409047D01*
X224829047Y-161647142D02*
X224781428Y-161694761D01*
X224829047Y-161742380D01*
X224876666Y-161694761D01*
X224829047Y-161647142D01*
X224829047Y-161742380D01*
X224352857Y-161075714D02*
X224352857Y-161932857D01*
X224400476Y-162028095D01*
X224495714Y-162075714D01*
X224543333Y-162075714D01*
X224352857Y-160742380D02*
X224400476Y-160790000D01*
X224352857Y-160837619D01*
X224305238Y-160790000D01*
X224352857Y-160742380D01*
X224352857Y-160837619D01*
X223876666Y-161075714D02*
X223876666Y-162075714D01*
X223876666Y-161123333D02*
X223781428Y-161075714D01*
X223590952Y-161075714D01*
X223495714Y-161123333D01*
X223448095Y-161170952D01*
X223400476Y-161266190D01*
X223400476Y-161551904D01*
X223448095Y-161647142D01*
X223495714Y-161694761D01*
X223590952Y-161742380D01*
X223781428Y-161742380D01*
X223876666Y-161694761D01*
X222257619Y-160694761D02*
X223114761Y-161980476D01*
X221924285Y-161075714D02*
X221924285Y-162075714D01*
X221924285Y-161123333D02*
X221829047Y-161075714D01*
X221638571Y-161075714D01*
X221543333Y-161123333D01*
X221495714Y-161170952D01*
X221448095Y-161266190D01*
X221448095Y-161551904D01*
X221495714Y-161647142D01*
X221543333Y-161694761D01*
X221638571Y-161742380D01*
X221829047Y-161742380D01*
X221924285Y-161694761D01*
X221019523Y-161742380D02*
X221019523Y-161075714D01*
X221019523Y-161266190D02*
X220971904Y-161170952D01*
X220924285Y-161123333D01*
X220829047Y-161075714D01*
X220733809Y-161075714D01*
X220257619Y-161742380D02*
X220352857Y-161694761D01*
X220400476Y-161647142D01*
X220448095Y-161551904D01*
X220448095Y-161266190D01*
X220400476Y-161170952D01*
X220352857Y-161123333D01*
X220257619Y-161075714D01*
X220114761Y-161075714D01*
X220019523Y-161123333D01*
X219971904Y-161170952D01*
X219924285Y-161266190D01*
X219924285Y-161551904D01*
X219971904Y-161647142D01*
X220019523Y-161694761D01*
X220114761Y-161742380D01*
X220257619Y-161742380D01*
X219067142Y-161742380D02*
X219067142Y-160742380D01*
X219067142Y-161694761D02*
X219162380Y-161742380D01*
X219352857Y-161742380D01*
X219448095Y-161694761D01*
X219495714Y-161647142D01*
X219543333Y-161551904D01*
X219543333Y-161266190D01*
X219495714Y-161170952D01*
X219448095Y-161123333D01*
X219352857Y-161075714D01*
X219162380Y-161075714D01*
X219067142Y-161123333D01*
X218162380Y-161075714D02*
X218162380Y-161742380D01*
X218590952Y-161075714D02*
X218590952Y-161599523D01*
X218543333Y-161694761D01*
X218448095Y-161742380D01*
X218305238Y-161742380D01*
X218210000Y-161694761D01*
X218162380Y-161647142D01*
X217257619Y-161694761D02*
X217352857Y-161742380D01*
X217543333Y-161742380D01*
X217638571Y-161694761D01*
X217686190Y-161647142D01*
X217733809Y-161551904D01*
X217733809Y-161266190D01*
X217686190Y-161170952D01*
X217638571Y-161123333D01*
X217543333Y-161075714D01*
X217352857Y-161075714D01*
X217257619Y-161123333D01*
X216971904Y-161075714D02*
X216590952Y-161075714D01*
X216829047Y-160742380D02*
X216829047Y-161599523D01*
X216781428Y-161694761D01*
X216686190Y-161742380D01*
X216590952Y-161742380D01*
X216305238Y-161694761D02*
X216210000Y-161742380D01*
X216019523Y-161742380D01*
X215924285Y-161694761D01*
X215876666Y-161599523D01*
X215876666Y-161551904D01*
X215924285Y-161456666D01*
X216019523Y-161409047D01*
X216162380Y-161409047D01*
X216257619Y-161361428D01*
X216305238Y-161266190D01*
X216305238Y-161218571D01*
X216257619Y-161123333D01*
X216162380Y-161075714D01*
X216019523Y-161075714D01*
X215924285Y-161123333D01*
X214733809Y-160694761D02*
X215590952Y-161980476D01*
X214400476Y-161742380D02*
X214400476Y-160742380D01*
X214019523Y-160742380D01*
X213924285Y-160790000D01*
X213876666Y-160837619D01*
X213829047Y-160932857D01*
X213829047Y-161075714D01*
X213876666Y-161170952D01*
X213924285Y-161218571D01*
X214019523Y-161266190D01*
X214400476Y-161266190D01*
X212971904Y-161075714D02*
X212971904Y-161742380D01*
X213400476Y-161075714D02*
X213400476Y-161599523D01*
X213352857Y-161694761D01*
X213257619Y-161742380D01*
X213114761Y-161742380D01*
X213019523Y-161694761D01*
X212971904Y-161647142D01*
X212352857Y-161742380D02*
X212448095Y-161694761D01*
X212495714Y-161599523D01*
X212495714Y-160742380D01*
X212019523Y-161694761D02*
X211924285Y-161742380D01*
X211733809Y-161742380D01*
X211638571Y-161694761D01*
X211590952Y-161599523D01*
X211590952Y-161551904D01*
X211638571Y-161456666D01*
X211733809Y-161409047D01*
X211876666Y-161409047D01*
X211971904Y-161361428D01*
X212019523Y-161266190D01*
X212019523Y-161218571D01*
X211971904Y-161123333D01*
X211876666Y-161075714D01*
X211733809Y-161075714D01*
X211638571Y-161123333D01*
X210781428Y-161694761D02*
X210876666Y-161742380D01*
X211067142Y-161742380D01*
X211162380Y-161694761D01*
X211210000Y-161599523D01*
X211210000Y-161218571D01*
X211162380Y-161123333D01*
X211067142Y-161075714D01*
X210876666Y-161075714D01*
X210781428Y-161123333D01*
X210733809Y-161218571D01*
X210733809Y-161313809D01*
X211210000Y-161409047D01*
X210114761Y-160742380D02*
X209924285Y-160742380D01*
X209829047Y-160790000D01*
X209733809Y-160885238D01*
X209686190Y-161075714D01*
X209686190Y-161409047D01*
X209733809Y-161599523D01*
X209829047Y-161694761D01*
X209924285Y-161742380D01*
X210114761Y-161742380D01*
X210210000Y-161694761D01*
X210305238Y-161599523D01*
X210352857Y-161409047D01*
X210352857Y-161075714D01*
X210305238Y-160885238D01*
X210210000Y-160790000D01*
X210114761Y-160742380D01*
X209352857Y-161742380D02*
X208829047Y-161075714D01*
X209352857Y-161075714D02*
X208829047Y-161742380D01*
X208448095Y-161742380D02*
X208448095Y-161075714D01*
X208448095Y-160742380D02*
X208495714Y-160790000D01*
X208448095Y-160837619D01*
X208400476Y-160790000D01*
X208448095Y-160742380D01*
X208448095Y-160837619D01*
X207971904Y-161742380D02*
X207971904Y-161075714D01*
X207971904Y-161170952D02*
X207924285Y-161123333D01*
X207829047Y-161075714D01*
X207686190Y-161075714D01*
X207590952Y-161123333D01*
X207543333Y-161218571D01*
X207543333Y-161742380D01*
X207543333Y-161218571D02*
X207495714Y-161123333D01*
X207400476Y-161075714D01*
X207257619Y-161075714D01*
X207162380Y-161123333D01*
X207114761Y-161218571D01*
X207114761Y-161742380D01*
X206257619Y-161694761D02*
X206352857Y-161742380D01*
X206543333Y-161742380D01*
X206638571Y-161694761D01*
X206686190Y-161599523D01*
X206686190Y-161218571D01*
X206638571Y-161123333D01*
X206543333Y-161075714D01*
X206352857Y-161075714D01*
X206257619Y-161123333D01*
X206210000Y-161218571D01*
X206210000Y-161313809D01*
X206686190Y-161409047D01*
X205924285Y-161075714D02*
X205543333Y-161075714D01*
X205781428Y-160742380D02*
X205781428Y-161599523D01*
X205733809Y-161694761D01*
X205638571Y-161742380D01*
X205543333Y-161742380D01*
X204829047Y-161694761D02*
X204924285Y-161742380D01*
X205114761Y-161742380D01*
X205210000Y-161694761D01*
X205257619Y-161599523D01*
X205257619Y-161218571D01*
X205210000Y-161123333D01*
X205114761Y-161075714D01*
X204924285Y-161075714D01*
X204829047Y-161123333D01*
X204781428Y-161218571D01*
X204781428Y-161313809D01*
X205257619Y-161409047D01*
X204352857Y-161742380D02*
X204352857Y-161075714D01*
X204352857Y-161266190D02*
X204305238Y-161170952D01*
X204257619Y-161123333D01*
X204162380Y-161075714D01*
X204067142Y-161075714D01*
X185680000Y-161742380D02*
X185680000Y-160742380D01*
X185251428Y-161742380D02*
X185251428Y-161218571D01*
X185299047Y-161123333D01*
X185394285Y-161075714D01*
X185537142Y-161075714D01*
X185632380Y-161123333D01*
X185680000Y-161170952D01*
X184918095Y-161075714D02*
X184537142Y-161075714D01*
X184775238Y-160742380D02*
X184775238Y-161599523D01*
X184727619Y-161694761D01*
X184632380Y-161742380D01*
X184537142Y-161742380D01*
X184346666Y-161075714D02*
X183965714Y-161075714D01*
X184203809Y-160742380D02*
X184203809Y-161599523D01*
X184156190Y-161694761D01*
X184060952Y-161742380D01*
X183965714Y-161742380D01*
X183632380Y-161075714D02*
X183632380Y-162075714D01*
X183632380Y-161123333D02*
X183537142Y-161075714D01*
X183346666Y-161075714D01*
X183251428Y-161123333D01*
X183203809Y-161170952D01*
X183156190Y-161266190D01*
X183156190Y-161551904D01*
X183203809Y-161647142D01*
X183251428Y-161694761D01*
X183346666Y-161742380D01*
X183537142Y-161742380D01*
X183632380Y-161694761D01*
X182775238Y-161694761D02*
X182680000Y-161742380D01*
X182489523Y-161742380D01*
X182394285Y-161694761D01*
X182346666Y-161599523D01*
X182346666Y-161551904D01*
X182394285Y-161456666D01*
X182489523Y-161409047D01*
X182632380Y-161409047D01*
X182727619Y-161361428D01*
X182775238Y-161266190D01*
X182775238Y-161218571D01*
X182727619Y-161123333D01*
X182632380Y-161075714D01*
X182489523Y-161075714D01*
X182394285Y-161123333D01*
X181918095Y-161647142D02*
X181870476Y-161694761D01*
X181918095Y-161742380D01*
X181965714Y-161694761D01*
X181918095Y-161647142D01*
X181918095Y-161742380D01*
X181918095Y-161123333D02*
X181870476Y-161170952D01*
X181918095Y-161218571D01*
X181965714Y-161170952D01*
X181918095Y-161123333D01*
X181918095Y-161218571D01*
X180727619Y-160694761D02*
X181584761Y-161980476D01*
X179680000Y-160694761D02*
X180537142Y-161980476D01*
X179346666Y-161075714D02*
X179346666Y-162075714D01*
X179346666Y-161123333D02*
X179251428Y-161075714D01*
X179060952Y-161075714D01*
X178965714Y-161123333D01*
X178918095Y-161170952D01*
X178870476Y-161266190D01*
X178870476Y-161551904D01*
X178918095Y-161647142D01*
X178965714Y-161694761D01*
X179060952Y-161742380D01*
X179251428Y-161742380D01*
X179346666Y-161694761D01*
X178441904Y-161742380D02*
X178441904Y-161075714D01*
X178441904Y-160742380D02*
X178489523Y-160790000D01*
X178441904Y-160837619D01*
X178394285Y-160790000D01*
X178441904Y-160742380D01*
X178441904Y-160837619D01*
X177822857Y-161742380D02*
X177918095Y-161694761D01*
X177965714Y-161647142D01*
X178013333Y-161551904D01*
X178013333Y-161266190D01*
X177965714Y-161170952D01*
X177918095Y-161123333D01*
X177822857Y-161075714D01*
X177680000Y-161075714D01*
X177584761Y-161123333D01*
X177537142Y-161170952D01*
X177489523Y-161266190D01*
X177489523Y-161551904D01*
X177537142Y-161647142D01*
X177584761Y-161694761D01*
X177680000Y-161742380D01*
X177822857Y-161742380D01*
X177060952Y-161075714D02*
X177060952Y-161742380D01*
X177060952Y-161170952D02*
X177013333Y-161123333D01*
X176918095Y-161075714D01*
X176775238Y-161075714D01*
X176680000Y-161123333D01*
X176632380Y-161218571D01*
X176632380Y-161742380D01*
X175775238Y-161694761D02*
X175870476Y-161742380D01*
X176060952Y-161742380D01*
X176156190Y-161694761D01*
X176203809Y-161599523D01*
X176203809Y-161218571D01*
X176156190Y-161123333D01*
X176060952Y-161075714D01*
X175870476Y-161075714D01*
X175775238Y-161123333D01*
X175727619Y-161218571D01*
X175727619Y-161313809D01*
X176203809Y-161409047D01*
X175299047Y-161647142D02*
X175251428Y-161694761D01*
X175299047Y-161742380D01*
X175346666Y-161694761D01*
X175299047Y-161647142D01*
X175299047Y-161742380D01*
X174822857Y-161075714D02*
X174822857Y-161932857D01*
X174870476Y-162028095D01*
X174965714Y-162075714D01*
X175013333Y-162075714D01*
X174822857Y-160742380D02*
X174870476Y-160790000D01*
X174822857Y-160837619D01*
X174775238Y-160790000D01*
X174822857Y-160742380D01*
X174822857Y-160837619D01*
X174346666Y-161075714D02*
X174346666Y-162075714D01*
X174346666Y-161123333D02*
X174251428Y-161075714D01*
X174060952Y-161075714D01*
X173965714Y-161123333D01*
X173918095Y-161170952D01*
X173870476Y-161266190D01*
X173870476Y-161551904D01*
X173918095Y-161647142D01*
X173965714Y-161694761D01*
X174060952Y-161742380D01*
X174251428Y-161742380D01*
X174346666Y-161694761D01*
X172727619Y-160694761D02*
X173584761Y-161980476D01*
X172394285Y-161075714D02*
X172394285Y-162075714D01*
X172394285Y-161123333D02*
X172299047Y-161075714D01*
X172108571Y-161075714D01*
X172013333Y-161123333D01*
X171965714Y-161170952D01*
X171918095Y-161266190D01*
X171918095Y-161551904D01*
X171965714Y-161647142D01*
X172013333Y-161694761D01*
X172108571Y-161742380D01*
X172299047Y-161742380D01*
X172394285Y-161694761D01*
X171489523Y-161742380D02*
X171489523Y-161075714D01*
X171489523Y-161266190D02*
X171441904Y-161170952D01*
X171394285Y-161123333D01*
X171299047Y-161075714D01*
X171203809Y-161075714D01*
X170727619Y-161742380D02*
X170822857Y-161694761D01*
X170870476Y-161647142D01*
X170918095Y-161551904D01*
X170918095Y-161266190D01*
X170870476Y-161170952D01*
X170822857Y-161123333D01*
X170727619Y-161075714D01*
X170584761Y-161075714D01*
X170489523Y-161123333D01*
X170441904Y-161170952D01*
X170394285Y-161266190D01*
X170394285Y-161551904D01*
X170441904Y-161647142D01*
X170489523Y-161694761D01*
X170584761Y-161742380D01*
X170727619Y-161742380D01*
X169537142Y-161742380D02*
X169537142Y-160742380D01*
X169537142Y-161694761D02*
X169632380Y-161742380D01*
X169822857Y-161742380D01*
X169918095Y-161694761D01*
X169965714Y-161647142D01*
X170013333Y-161551904D01*
X170013333Y-161266190D01*
X169965714Y-161170952D01*
X169918095Y-161123333D01*
X169822857Y-161075714D01*
X169632380Y-161075714D01*
X169537142Y-161123333D01*
X168632380Y-161075714D02*
X168632380Y-161742380D01*
X169060952Y-161075714D02*
X169060952Y-161599523D01*
X169013333Y-161694761D01*
X168918095Y-161742380D01*
X168775238Y-161742380D01*
X168680000Y-161694761D01*
X168632380Y-161647142D01*
X167727619Y-161694761D02*
X167822857Y-161742380D01*
X168013333Y-161742380D01*
X168108571Y-161694761D01*
X168156190Y-161647142D01*
X168203809Y-161551904D01*
X168203809Y-161266190D01*
X168156190Y-161170952D01*
X168108571Y-161123333D01*
X168013333Y-161075714D01*
X167822857Y-161075714D01*
X167727619Y-161123333D01*
X167441904Y-161075714D02*
X167060952Y-161075714D01*
X167299047Y-160742380D02*
X167299047Y-161599523D01*
X167251428Y-161694761D01*
X167156190Y-161742380D01*
X167060952Y-161742380D01*
X166775238Y-161694761D02*
X166680000Y-161742380D01*
X166489523Y-161742380D01*
X166394285Y-161694761D01*
X166346666Y-161599523D01*
X166346666Y-161551904D01*
X166394285Y-161456666D01*
X166489523Y-161409047D01*
X166632380Y-161409047D01*
X166727619Y-161361428D01*
X166775238Y-161266190D01*
X166775238Y-161218571D01*
X166727619Y-161123333D01*
X166632380Y-161075714D01*
X166489523Y-161075714D01*
X166394285Y-161123333D01*
X165203809Y-160694761D02*
X166060952Y-161980476D01*
X164870476Y-161742380D02*
X164870476Y-160742380D01*
X164489523Y-160742380D01*
X164394285Y-160790000D01*
X164346666Y-160837619D01*
X164299047Y-160932857D01*
X164299047Y-161075714D01*
X164346666Y-161170952D01*
X164394285Y-161218571D01*
X164489523Y-161266190D01*
X164870476Y-161266190D01*
X163441904Y-161075714D02*
X163441904Y-161742380D01*
X163870476Y-161075714D02*
X163870476Y-161599523D01*
X163822857Y-161694761D01*
X163727619Y-161742380D01*
X163584761Y-161742380D01*
X163489523Y-161694761D01*
X163441904Y-161647142D01*
X162822857Y-161742380D02*
X162918095Y-161694761D01*
X162965714Y-161599523D01*
X162965714Y-160742380D01*
X162489523Y-161694761D02*
X162394285Y-161742380D01*
X162203809Y-161742380D01*
X162108571Y-161694761D01*
X162060952Y-161599523D01*
X162060952Y-161551904D01*
X162108571Y-161456666D01*
X162203809Y-161409047D01*
X162346666Y-161409047D01*
X162441904Y-161361428D01*
X162489523Y-161266190D01*
X162489523Y-161218571D01*
X162441904Y-161123333D01*
X162346666Y-161075714D01*
X162203809Y-161075714D01*
X162108571Y-161123333D01*
X161251428Y-161694761D02*
X161346666Y-161742380D01*
X161537142Y-161742380D01*
X161632380Y-161694761D01*
X161680000Y-161599523D01*
X161680000Y-161218571D01*
X161632380Y-161123333D01*
X161537142Y-161075714D01*
X161346666Y-161075714D01*
X161251428Y-161123333D01*
X161203809Y-161218571D01*
X161203809Y-161313809D01*
X161680000Y-161409047D01*
X160584761Y-160742380D02*
X160394285Y-160742380D01*
X160299047Y-160790000D01*
X160203809Y-160885238D01*
X160156190Y-161075714D01*
X160156190Y-161409047D01*
X160203809Y-161599523D01*
X160299047Y-161694761D01*
X160394285Y-161742380D01*
X160584761Y-161742380D01*
X160680000Y-161694761D01*
X160775238Y-161599523D01*
X160822857Y-161409047D01*
X160822857Y-161075714D01*
X160775238Y-160885238D01*
X160680000Y-160790000D01*
X160584761Y-160742380D01*
X159822857Y-161742380D02*
X159299047Y-161075714D01*
X159822857Y-161075714D02*
X159299047Y-161742380D01*
X158918095Y-161742380D02*
X158918095Y-161075714D01*
X158918095Y-160742380D02*
X158965714Y-160790000D01*
X158918095Y-160837619D01*
X158870476Y-160790000D01*
X158918095Y-160742380D01*
X158918095Y-160837619D01*
X158441904Y-161742380D02*
X158441904Y-161075714D01*
X158441904Y-161170952D02*
X158394285Y-161123333D01*
X158299047Y-161075714D01*
X158156190Y-161075714D01*
X158060952Y-161123333D01*
X158013333Y-161218571D01*
X158013333Y-161742380D01*
X158013333Y-161218571D02*
X157965714Y-161123333D01*
X157870476Y-161075714D01*
X157727619Y-161075714D01*
X157632380Y-161123333D01*
X157584761Y-161218571D01*
X157584761Y-161742380D01*
X156727619Y-161694761D02*
X156822857Y-161742380D01*
X157013333Y-161742380D01*
X157108571Y-161694761D01*
X157156190Y-161599523D01*
X157156190Y-161218571D01*
X157108571Y-161123333D01*
X157013333Y-161075714D01*
X156822857Y-161075714D01*
X156727619Y-161123333D01*
X156680000Y-161218571D01*
X156680000Y-161313809D01*
X157156190Y-161409047D01*
X156394285Y-161075714D02*
X156013333Y-161075714D01*
X156251428Y-160742380D02*
X156251428Y-161599523D01*
X156203809Y-161694761D01*
X156108571Y-161742380D01*
X156013333Y-161742380D01*
X155299047Y-161694761D02*
X155394285Y-161742380D01*
X155584761Y-161742380D01*
X155680000Y-161694761D01*
X155727619Y-161599523D01*
X155727619Y-161218571D01*
X155680000Y-161123333D01*
X155584761Y-161075714D01*
X155394285Y-161075714D01*
X155299047Y-161123333D01*
X155251428Y-161218571D01*
X155251428Y-161313809D01*
X155727619Y-161409047D01*
X154822857Y-161742380D02*
X154822857Y-161075714D01*
X154822857Y-161266190D02*
X154775238Y-161170952D01*
X154727619Y-161123333D01*
X154632380Y-161075714D01*
X154537142Y-161075714D01*
X235210000Y-112212380D02*
X235210000Y-111212380D01*
X234781428Y-112212380D02*
X234781428Y-111688571D01*
X234829047Y-111593333D01*
X234924285Y-111545714D01*
X235067142Y-111545714D01*
X235162380Y-111593333D01*
X235210000Y-111640952D01*
X234448095Y-111545714D02*
X234067142Y-111545714D01*
X234305238Y-111212380D02*
X234305238Y-112069523D01*
X234257619Y-112164761D01*
X234162380Y-112212380D01*
X234067142Y-112212380D01*
X233876666Y-111545714D02*
X233495714Y-111545714D01*
X233733809Y-111212380D02*
X233733809Y-112069523D01*
X233686190Y-112164761D01*
X233590952Y-112212380D01*
X233495714Y-112212380D01*
X233162380Y-111545714D02*
X233162380Y-112545714D01*
X233162380Y-111593333D02*
X233067142Y-111545714D01*
X232876666Y-111545714D01*
X232781428Y-111593333D01*
X232733809Y-111640952D01*
X232686190Y-111736190D01*
X232686190Y-112021904D01*
X232733809Y-112117142D01*
X232781428Y-112164761D01*
X232876666Y-112212380D01*
X233067142Y-112212380D01*
X233162380Y-112164761D01*
X232305238Y-112164761D02*
X232210000Y-112212380D01*
X232019523Y-112212380D01*
X231924285Y-112164761D01*
X231876666Y-112069523D01*
X231876666Y-112021904D01*
X231924285Y-111926666D01*
X232019523Y-111879047D01*
X232162380Y-111879047D01*
X232257619Y-111831428D01*
X232305238Y-111736190D01*
X232305238Y-111688571D01*
X232257619Y-111593333D01*
X232162380Y-111545714D01*
X232019523Y-111545714D01*
X231924285Y-111593333D01*
X231448095Y-112117142D02*
X231400476Y-112164761D01*
X231448095Y-112212380D01*
X231495714Y-112164761D01*
X231448095Y-112117142D01*
X231448095Y-112212380D01*
X231448095Y-111593333D02*
X231400476Y-111640952D01*
X231448095Y-111688571D01*
X231495714Y-111640952D01*
X231448095Y-111593333D01*
X231448095Y-111688571D01*
X230257619Y-111164761D02*
X231114761Y-112450476D01*
X229210000Y-111164761D02*
X230067142Y-112450476D01*
X228876666Y-111545714D02*
X228876666Y-112545714D01*
X228876666Y-111593333D02*
X228781428Y-111545714D01*
X228590952Y-111545714D01*
X228495714Y-111593333D01*
X228448095Y-111640952D01*
X228400476Y-111736190D01*
X228400476Y-112021904D01*
X228448095Y-112117142D01*
X228495714Y-112164761D01*
X228590952Y-112212380D01*
X228781428Y-112212380D01*
X228876666Y-112164761D01*
X227971904Y-112212380D02*
X227971904Y-111545714D01*
X227971904Y-111212380D02*
X228019523Y-111260000D01*
X227971904Y-111307619D01*
X227924285Y-111260000D01*
X227971904Y-111212380D01*
X227971904Y-111307619D01*
X227352857Y-112212380D02*
X227448095Y-112164761D01*
X227495714Y-112117142D01*
X227543333Y-112021904D01*
X227543333Y-111736190D01*
X227495714Y-111640952D01*
X227448095Y-111593333D01*
X227352857Y-111545714D01*
X227210000Y-111545714D01*
X227114761Y-111593333D01*
X227067142Y-111640952D01*
X227019523Y-111736190D01*
X227019523Y-112021904D01*
X227067142Y-112117142D01*
X227114761Y-112164761D01*
X227210000Y-112212380D01*
X227352857Y-112212380D01*
X226590952Y-111545714D02*
X226590952Y-112212380D01*
X226590952Y-111640952D02*
X226543333Y-111593333D01*
X226448095Y-111545714D01*
X226305238Y-111545714D01*
X226210000Y-111593333D01*
X226162380Y-111688571D01*
X226162380Y-112212380D01*
X225305238Y-112164761D02*
X225400476Y-112212380D01*
X225590952Y-112212380D01*
X225686190Y-112164761D01*
X225733809Y-112069523D01*
X225733809Y-111688571D01*
X225686190Y-111593333D01*
X225590952Y-111545714D01*
X225400476Y-111545714D01*
X225305238Y-111593333D01*
X225257619Y-111688571D01*
X225257619Y-111783809D01*
X225733809Y-111879047D01*
X224829047Y-112117142D02*
X224781428Y-112164761D01*
X224829047Y-112212380D01*
X224876666Y-112164761D01*
X224829047Y-112117142D01*
X224829047Y-112212380D01*
X224352857Y-111545714D02*
X224352857Y-112402857D01*
X224400476Y-112498095D01*
X224495714Y-112545714D01*
X224543333Y-112545714D01*
X224352857Y-111212380D02*
X224400476Y-111260000D01*
X224352857Y-111307619D01*
X224305238Y-111260000D01*
X224352857Y-111212380D01*
X224352857Y-111307619D01*
X223876666Y-111545714D02*
X223876666Y-112545714D01*
X223876666Y-111593333D02*
X223781428Y-111545714D01*
X223590952Y-111545714D01*
X223495714Y-111593333D01*
X223448095Y-111640952D01*
X223400476Y-111736190D01*
X223400476Y-112021904D01*
X223448095Y-112117142D01*
X223495714Y-112164761D01*
X223590952Y-112212380D01*
X223781428Y-112212380D01*
X223876666Y-112164761D01*
X222257619Y-111164761D02*
X223114761Y-112450476D01*
X221924285Y-111545714D02*
X221924285Y-112545714D01*
X221924285Y-111593333D02*
X221829047Y-111545714D01*
X221638571Y-111545714D01*
X221543333Y-111593333D01*
X221495714Y-111640952D01*
X221448095Y-111736190D01*
X221448095Y-112021904D01*
X221495714Y-112117142D01*
X221543333Y-112164761D01*
X221638571Y-112212380D01*
X221829047Y-112212380D01*
X221924285Y-112164761D01*
X221019523Y-112212380D02*
X221019523Y-111545714D01*
X221019523Y-111736190D02*
X220971904Y-111640952D01*
X220924285Y-111593333D01*
X220829047Y-111545714D01*
X220733809Y-111545714D01*
X220257619Y-112212380D02*
X220352857Y-112164761D01*
X220400476Y-112117142D01*
X220448095Y-112021904D01*
X220448095Y-111736190D01*
X220400476Y-111640952D01*
X220352857Y-111593333D01*
X220257619Y-111545714D01*
X220114761Y-111545714D01*
X220019523Y-111593333D01*
X219971904Y-111640952D01*
X219924285Y-111736190D01*
X219924285Y-112021904D01*
X219971904Y-112117142D01*
X220019523Y-112164761D01*
X220114761Y-112212380D01*
X220257619Y-112212380D01*
X219067142Y-112212380D02*
X219067142Y-111212380D01*
X219067142Y-112164761D02*
X219162380Y-112212380D01*
X219352857Y-112212380D01*
X219448095Y-112164761D01*
X219495714Y-112117142D01*
X219543333Y-112021904D01*
X219543333Y-111736190D01*
X219495714Y-111640952D01*
X219448095Y-111593333D01*
X219352857Y-111545714D01*
X219162380Y-111545714D01*
X219067142Y-111593333D01*
X218162380Y-111545714D02*
X218162380Y-112212380D01*
X218590952Y-111545714D02*
X218590952Y-112069523D01*
X218543333Y-112164761D01*
X218448095Y-112212380D01*
X218305238Y-112212380D01*
X218210000Y-112164761D01*
X218162380Y-112117142D01*
X217257619Y-112164761D02*
X217352857Y-112212380D01*
X217543333Y-112212380D01*
X217638571Y-112164761D01*
X217686190Y-112117142D01*
X217733809Y-112021904D01*
X217733809Y-111736190D01*
X217686190Y-111640952D01*
X217638571Y-111593333D01*
X217543333Y-111545714D01*
X217352857Y-111545714D01*
X217257619Y-111593333D01*
X216971904Y-111545714D02*
X216590952Y-111545714D01*
X216829047Y-111212380D02*
X216829047Y-112069523D01*
X216781428Y-112164761D01*
X216686190Y-112212380D01*
X216590952Y-112212380D01*
X216305238Y-112164761D02*
X216210000Y-112212380D01*
X216019523Y-112212380D01*
X215924285Y-112164761D01*
X215876666Y-112069523D01*
X215876666Y-112021904D01*
X215924285Y-111926666D01*
X216019523Y-111879047D01*
X216162380Y-111879047D01*
X216257619Y-111831428D01*
X216305238Y-111736190D01*
X216305238Y-111688571D01*
X216257619Y-111593333D01*
X216162380Y-111545714D01*
X216019523Y-111545714D01*
X215924285Y-111593333D01*
X214733809Y-111164761D02*
X215590952Y-112450476D01*
X214400476Y-112212380D02*
X214400476Y-111212380D01*
X214019523Y-111212380D01*
X213924285Y-111260000D01*
X213876666Y-111307619D01*
X213829047Y-111402857D01*
X213829047Y-111545714D01*
X213876666Y-111640952D01*
X213924285Y-111688571D01*
X214019523Y-111736190D01*
X214400476Y-111736190D01*
X212971904Y-111545714D02*
X212971904Y-112212380D01*
X213400476Y-111545714D02*
X213400476Y-112069523D01*
X213352857Y-112164761D01*
X213257619Y-112212380D01*
X213114761Y-112212380D01*
X213019523Y-112164761D01*
X212971904Y-112117142D01*
X212352857Y-112212380D02*
X212448095Y-112164761D01*
X212495714Y-112069523D01*
X212495714Y-111212380D01*
X212019523Y-112164761D02*
X211924285Y-112212380D01*
X211733809Y-112212380D01*
X211638571Y-112164761D01*
X211590952Y-112069523D01*
X211590952Y-112021904D01*
X211638571Y-111926666D01*
X211733809Y-111879047D01*
X211876666Y-111879047D01*
X211971904Y-111831428D01*
X212019523Y-111736190D01*
X212019523Y-111688571D01*
X211971904Y-111593333D01*
X211876666Y-111545714D01*
X211733809Y-111545714D01*
X211638571Y-111593333D01*
X210781428Y-112164761D02*
X210876666Y-112212380D01*
X211067142Y-112212380D01*
X211162380Y-112164761D01*
X211210000Y-112069523D01*
X211210000Y-111688571D01*
X211162380Y-111593333D01*
X211067142Y-111545714D01*
X210876666Y-111545714D01*
X210781428Y-111593333D01*
X210733809Y-111688571D01*
X210733809Y-111783809D01*
X211210000Y-111879047D01*
X210114761Y-111212380D02*
X209924285Y-111212380D01*
X209829047Y-111260000D01*
X209733809Y-111355238D01*
X209686190Y-111545714D01*
X209686190Y-111879047D01*
X209733809Y-112069523D01*
X209829047Y-112164761D01*
X209924285Y-112212380D01*
X210114761Y-112212380D01*
X210210000Y-112164761D01*
X210305238Y-112069523D01*
X210352857Y-111879047D01*
X210352857Y-111545714D01*
X210305238Y-111355238D01*
X210210000Y-111260000D01*
X210114761Y-111212380D01*
X209352857Y-112212380D02*
X208829047Y-111545714D01*
X209352857Y-111545714D02*
X208829047Y-112212380D01*
X208448095Y-112212380D02*
X208448095Y-111545714D01*
X208448095Y-111212380D02*
X208495714Y-111260000D01*
X208448095Y-111307619D01*
X208400476Y-111260000D01*
X208448095Y-111212380D01*
X208448095Y-111307619D01*
X207971904Y-112212380D02*
X207971904Y-111545714D01*
X207971904Y-111640952D02*
X207924285Y-111593333D01*
X207829047Y-111545714D01*
X207686190Y-111545714D01*
X207590952Y-111593333D01*
X207543333Y-111688571D01*
X207543333Y-112212380D01*
X207543333Y-111688571D02*
X207495714Y-111593333D01*
X207400476Y-111545714D01*
X207257619Y-111545714D01*
X207162380Y-111593333D01*
X207114761Y-111688571D01*
X207114761Y-112212380D01*
X206257619Y-112164761D02*
X206352857Y-112212380D01*
X206543333Y-112212380D01*
X206638571Y-112164761D01*
X206686190Y-112069523D01*
X206686190Y-111688571D01*
X206638571Y-111593333D01*
X206543333Y-111545714D01*
X206352857Y-111545714D01*
X206257619Y-111593333D01*
X206210000Y-111688571D01*
X206210000Y-111783809D01*
X206686190Y-111879047D01*
X205924285Y-111545714D02*
X205543333Y-111545714D01*
X205781428Y-111212380D02*
X205781428Y-112069523D01*
X205733809Y-112164761D01*
X205638571Y-112212380D01*
X205543333Y-112212380D01*
X204829047Y-112164761D02*
X204924285Y-112212380D01*
X205114761Y-112212380D01*
X205210000Y-112164761D01*
X205257619Y-112069523D01*
X205257619Y-111688571D01*
X205210000Y-111593333D01*
X205114761Y-111545714D01*
X204924285Y-111545714D01*
X204829047Y-111593333D01*
X204781428Y-111688571D01*
X204781428Y-111783809D01*
X205257619Y-111879047D01*
X204352857Y-112212380D02*
X204352857Y-111545714D01*
X204352857Y-111736190D02*
X204305238Y-111640952D01*
X204257619Y-111593333D01*
X204162380Y-111545714D01*
X204067142Y-111545714D01*
X238138571Y-116239857D02*
X238138571Y-115039857D01*
X237852857Y-115039857D01*
X237681428Y-115097000D01*
X237567142Y-115211285D01*
X237510000Y-115325571D01*
X237452857Y-115554142D01*
X237452857Y-115725571D01*
X237510000Y-115954142D01*
X237567142Y-116068428D01*
X237681428Y-116182714D01*
X237852857Y-116239857D01*
X238138571Y-116239857D01*
X236938571Y-116239857D02*
X236938571Y-115039857D01*
X236138571Y-115668428D02*
X236138571Y-116239857D01*
X236538571Y-115039857D02*
X236138571Y-115668428D01*
X235738571Y-115039857D01*
X234424285Y-116239857D02*
X234424285Y-115039857D01*
X233967142Y-115039857D01*
X233852857Y-115097000D01*
X233795714Y-115154142D01*
X233738571Y-115268428D01*
X233738571Y-115439857D01*
X233795714Y-115554142D01*
X233852857Y-115611285D01*
X233967142Y-115668428D01*
X234424285Y-115668428D01*
X232710000Y-115439857D02*
X232710000Y-116239857D01*
X233224285Y-115439857D02*
X233224285Y-116068428D01*
X233167142Y-116182714D01*
X233052857Y-116239857D01*
X232881428Y-116239857D01*
X232767142Y-116182714D01*
X232710000Y-116125571D01*
X231967142Y-116239857D02*
X232081428Y-116182714D01*
X232138571Y-116068428D01*
X232138571Y-115039857D01*
X231567142Y-116182714D02*
X231452857Y-116239857D01*
X231224285Y-116239857D01*
X231109999Y-116182714D01*
X231052857Y-116068428D01*
X231052857Y-116011285D01*
X231109999Y-115897000D01*
X231224285Y-115839857D01*
X231395714Y-115839857D01*
X231509999Y-115782714D01*
X231567142Y-115668428D01*
X231567142Y-115611285D01*
X231509999Y-115497000D01*
X231395714Y-115439857D01*
X231224285Y-115439857D01*
X231109999Y-115497000D01*
X230081428Y-116182714D02*
X230195714Y-116239857D01*
X230424285Y-116239857D01*
X230538571Y-116182714D01*
X230595714Y-116068428D01*
X230595714Y-115611285D01*
X230538571Y-115497000D01*
X230424285Y-115439857D01*
X230195714Y-115439857D01*
X230081428Y-115497000D01*
X230024285Y-115611285D01*
X230024285Y-115725571D01*
X230595714Y-115839857D01*
X228367142Y-115039857D02*
X228138571Y-115039857D01*
X228024285Y-115097000D01*
X227910000Y-115211285D01*
X227852857Y-115439857D01*
X227852857Y-115839857D01*
X227910000Y-116068428D01*
X228024285Y-116182714D01*
X228138571Y-116239857D01*
X228367142Y-116239857D01*
X228481428Y-116182714D01*
X228595714Y-116068428D01*
X228652857Y-115839857D01*
X228652857Y-115439857D01*
X228595714Y-115211285D01*
X228481428Y-115097000D01*
X228367142Y-115039857D01*
X227452857Y-116239857D02*
X226824285Y-115439857D01*
X227452857Y-115439857D02*
X226824285Y-116239857D01*
X226367142Y-116239857D02*
X226367142Y-115439857D01*
X226367142Y-115039857D02*
X226424285Y-115097000D01*
X226367142Y-115154142D01*
X226310000Y-115097000D01*
X226367142Y-115039857D01*
X226367142Y-115154142D01*
X225795714Y-116239857D02*
X225795714Y-115439857D01*
X225795714Y-115554142D02*
X225738571Y-115497000D01*
X225624285Y-115439857D01*
X225452857Y-115439857D01*
X225338571Y-115497000D01*
X225281428Y-115611285D01*
X225281428Y-116239857D01*
X225281428Y-115611285D02*
X225224285Y-115497000D01*
X225110000Y-115439857D01*
X224938571Y-115439857D01*
X224824285Y-115497000D01*
X224767142Y-115611285D01*
X224767142Y-116239857D01*
X223738571Y-116182714D02*
X223852857Y-116239857D01*
X224081428Y-116239857D01*
X224195714Y-116182714D01*
X224252857Y-116068428D01*
X224252857Y-115611285D01*
X224195714Y-115497000D01*
X224081428Y-115439857D01*
X223852857Y-115439857D01*
X223738571Y-115497000D01*
X223681428Y-115611285D01*
X223681428Y-115725571D01*
X224252857Y-115839857D01*
X223338571Y-115439857D02*
X222881428Y-115439857D01*
X223167142Y-115039857D02*
X223167142Y-116068428D01*
X223110000Y-116182714D01*
X222995714Y-116239857D01*
X222881428Y-116239857D01*
X222024285Y-116182714D02*
X222138571Y-116239857D01*
X222367142Y-116239857D01*
X222481428Y-116182714D01*
X222538571Y-116068428D01*
X222538571Y-115611285D01*
X222481428Y-115497000D01*
X222367142Y-115439857D01*
X222138571Y-115439857D01*
X222024285Y-115497000D01*
X221967142Y-115611285D01*
X221967142Y-115725571D01*
X222538571Y-115839857D01*
X221452857Y-116239857D02*
X221452857Y-115439857D01*
X221452857Y-115668428D02*
X221395714Y-115554142D01*
X221338571Y-115497000D01*
X221224285Y-115439857D01*
X221109999Y-115439857D01*
X219795714Y-116239857D02*
X219795714Y-115039857D01*
X219395714Y-115897000D01*
X218995714Y-115039857D01*
X218995714Y-116239857D01*
X217910000Y-116239857D02*
X217910000Y-115611285D01*
X217967142Y-115497000D01*
X218081428Y-115439857D01*
X218310000Y-115439857D01*
X218424285Y-115497000D01*
X217910000Y-116182714D02*
X218024285Y-116239857D01*
X218310000Y-116239857D01*
X218424285Y-116182714D01*
X218481428Y-116068428D01*
X218481428Y-115954142D01*
X218424285Y-115839857D01*
X218310000Y-115782714D01*
X218024285Y-115782714D01*
X217910000Y-115725571D01*
X217338571Y-116239857D02*
X217338571Y-115439857D01*
X217338571Y-115039857D02*
X217395714Y-115097000D01*
X217338571Y-115154142D01*
X217281428Y-115097000D01*
X217338571Y-115039857D01*
X217338571Y-115154142D01*
X216767142Y-115439857D02*
X216767142Y-116239857D01*
X216767142Y-115554142D02*
X216710000Y-115497000D01*
X216595714Y-115439857D01*
X216424285Y-115439857D01*
X216310000Y-115497000D01*
X216252857Y-115611285D01*
X216252857Y-116239857D01*
X214367142Y-115611285D02*
X214195714Y-115668428D01*
X214138571Y-115725571D01*
X214081428Y-115839857D01*
X214081428Y-116011285D01*
X214138571Y-116125571D01*
X214195714Y-116182714D01*
X214310000Y-116239857D01*
X214767142Y-116239857D01*
X214767142Y-115039857D01*
X214367142Y-115039857D01*
X214252857Y-115097000D01*
X214195714Y-115154142D01*
X214138571Y-115268428D01*
X214138571Y-115382714D01*
X214195714Y-115497000D01*
X214252857Y-115554142D01*
X214367142Y-115611285D01*
X214767142Y-115611285D01*
X213395714Y-116239857D02*
X213510000Y-116182714D01*
X213567142Y-116125571D01*
X213624285Y-116011285D01*
X213624285Y-115668428D01*
X213567142Y-115554142D01*
X213510000Y-115497000D01*
X213395714Y-115439857D01*
X213224285Y-115439857D01*
X213110000Y-115497000D01*
X213052857Y-115554142D01*
X212995714Y-115668428D01*
X212995714Y-116011285D01*
X213052857Y-116125571D01*
X213110000Y-116182714D01*
X213224285Y-116239857D01*
X213395714Y-116239857D01*
X211967142Y-116239857D02*
X211967142Y-115611285D01*
X212024285Y-115497000D01*
X212138571Y-115439857D01*
X212367142Y-115439857D01*
X212481428Y-115497000D01*
X211967142Y-116182714D02*
X212081428Y-116239857D01*
X212367142Y-116239857D01*
X212481428Y-116182714D01*
X212538571Y-116068428D01*
X212538571Y-115954142D01*
X212481428Y-115839857D01*
X212367142Y-115782714D01*
X212081428Y-115782714D01*
X211967142Y-115725571D01*
X211395714Y-116239857D02*
X211395714Y-115439857D01*
X211395714Y-115668428D02*
X211338571Y-115554142D01*
X211281428Y-115497000D01*
X211167142Y-115439857D01*
X211052857Y-115439857D01*
X210138571Y-116239857D02*
X210138571Y-115039857D01*
X210138571Y-116182714D02*
X210252857Y-116239857D01*
X210481428Y-116239857D01*
X210595714Y-116182714D01*
X210652857Y-116125571D01*
X210710000Y-116011285D01*
X210710000Y-115668428D01*
X210652857Y-115554142D01*
X210595714Y-115497000D01*
X210481428Y-115439857D01*
X210252857Y-115439857D01*
X210138571Y-115497000D01*
X208710000Y-115897000D02*
X208138571Y-115897000D01*
X208824285Y-116239857D02*
X208424285Y-115039857D01*
X208024285Y-116239857D01*
X206024285Y-116239857D02*
X206424285Y-115668428D01*
X206710000Y-116239857D02*
X206710000Y-115039857D01*
X206252857Y-115039857D01*
X206138571Y-115097000D01*
X206081428Y-115154142D01*
X206024285Y-115268428D01*
X206024285Y-115439857D01*
X206081428Y-115554142D01*
X206138571Y-115611285D01*
X206252857Y-115668428D01*
X206710000Y-115668428D01*
X205052857Y-116182714D02*
X205167142Y-116239857D01*
X205395714Y-116239857D01*
X205510000Y-116182714D01*
X205567142Y-116068428D01*
X205567142Y-115611285D01*
X205510000Y-115497000D01*
X205395714Y-115439857D01*
X205167142Y-115439857D01*
X205052857Y-115497000D01*
X204995714Y-115611285D01*
X204995714Y-115725571D01*
X205567142Y-115839857D01*
X204595714Y-115439857D02*
X204310000Y-116239857D01*
X204024285Y-115439857D01*
X203052857Y-115439857D02*
X203052857Y-116239857D01*
X203338571Y-114982714D02*
X203624285Y-115839857D01*
X202881428Y-115839857D01*
X202424285Y-116125571D02*
X202367142Y-116182714D01*
X202424285Y-116239857D01*
X202481428Y-116182714D01*
X202424285Y-116125571D01*
X202424285Y-116239857D01*
X201224285Y-116239857D02*
X201910000Y-116239857D01*
X201567142Y-116239857D02*
X201567142Y-115039857D01*
X201681428Y-115211285D01*
X201795714Y-115325571D01*
X201910000Y-115382714D01*
X188608571Y-116239857D02*
X188608571Y-115039857D01*
X188322857Y-115039857D01*
X188151428Y-115097000D01*
X188037142Y-115211285D01*
X187980000Y-115325571D01*
X187922857Y-115554142D01*
X187922857Y-115725571D01*
X187980000Y-115954142D01*
X188037142Y-116068428D01*
X188151428Y-116182714D01*
X188322857Y-116239857D01*
X188608571Y-116239857D01*
X187408571Y-116239857D02*
X187408571Y-115039857D01*
X186608571Y-115668428D02*
X186608571Y-116239857D01*
X187008571Y-115039857D02*
X186608571Y-115668428D01*
X186208571Y-115039857D01*
X184894285Y-116239857D02*
X184894285Y-115039857D01*
X184437142Y-115039857D01*
X184322857Y-115097000D01*
X184265714Y-115154142D01*
X184208571Y-115268428D01*
X184208571Y-115439857D01*
X184265714Y-115554142D01*
X184322857Y-115611285D01*
X184437142Y-115668428D01*
X184894285Y-115668428D01*
X183180000Y-115439857D02*
X183180000Y-116239857D01*
X183694285Y-115439857D02*
X183694285Y-116068428D01*
X183637142Y-116182714D01*
X183522857Y-116239857D01*
X183351428Y-116239857D01*
X183237142Y-116182714D01*
X183180000Y-116125571D01*
X182437142Y-116239857D02*
X182551428Y-116182714D01*
X182608571Y-116068428D01*
X182608571Y-115039857D01*
X182037142Y-116182714D02*
X181922857Y-116239857D01*
X181694285Y-116239857D01*
X181579999Y-116182714D01*
X181522857Y-116068428D01*
X181522857Y-116011285D01*
X181579999Y-115897000D01*
X181694285Y-115839857D01*
X181865714Y-115839857D01*
X181979999Y-115782714D01*
X182037142Y-115668428D01*
X182037142Y-115611285D01*
X181979999Y-115497000D01*
X181865714Y-115439857D01*
X181694285Y-115439857D01*
X181579999Y-115497000D01*
X180551428Y-116182714D02*
X180665714Y-116239857D01*
X180894285Y-116239857D01*
X181008571Y-116182714D01*
X181065714Y-116068428D01*
X181065714Y-115611285D01*
X181008571Y-115497000D01*
X180894285Y-115439857D01*
X180665714Y-115439857D01*
X180551428Y-115497000D01*
X180494285Y-115611285D01*
X180494285Y-115725571D01*
X181065714Y-115839857D01*
X178837142Y-115039857D02*
X178608571Y-115039857D01*
X178494285Y-115097000D01*
X178380000Y-115211285D01*
X178322857Y-115439857D01*
X178322857Y-115839857D01*
X178380000Y-116068428D01*
X178494285Y-116182714D01*
X178608571Y-116239857D01*
X178837142Y-116239857D01*
X178951428Y-116182714D01*
X179065714Y-116068428D01*
X179122857Y-115839857D01*
X179122857Y-115439857D01*
X179065714Y-115211285D01*
X178951428Y-115097000D01*
X178837142Y-115039857D01*
X177922857Y-116239857D02*
X177294285Y-115439857D01*
X177922857Y-115439857D02*
X177294285Y-116239857D01*
X176837142Y-116239857D02*
X176837142Y-115439857D01*
X176837142Y-115039857D02*
X176894285Y-115097000D01*
X176837142Y-115154142D01*
X176780000Y-115097000D01*
X176837142Y-115039857D01*
X176837142Y-115154142D01*
X176265714Y-116239857D02*
X176265714Y-115439857D01*
X176265714Y-115554142D02*
X176208571Y-115497000D01*
X176094285Y-115439857D01*
X175922857Y-115439857D01*
X175808571Y-115497000D01*
X175751428Y-115611285D01*
X175751428Y-116239857D01*
X175751428Y-115611285D02*
X175694285Y-115497000D01*
X175580000Y-115439857D01*
X175408571Y-115439857D01*
X175294285Y-115497000D01*
X175237142Y-115611285D01*
X175237142Y-116239857D01*
X174208571Y-116182714D02*
X174322857Y-116239857D01*
X174551428Y-116239857D01*
X174665714Y-116182714D01*
X174722857Y-116068428D01*
X174722857Y-115611285D01*
X174665714Y-115497000D01*
X174551428Y-115439857D01*
X174322857Y-115439857D01*
X174208571Y-115497000D01*
X174151428Y-115611285D01*
X174151428Y-115725571D01*
X174722857Y-115839857D01*
X173808571Y-115439857D02*
X173351428Y-115439857D01*
X173637142Y-115039857D02*
X173637142Y-116068428D01*
X173580000Y-116182714D01*
X173465714Y-116239857D01*
X173351428Y-116239857D01*
X172494285Y-116182714D02*
X172608571Y-116239857D01*
X172837142Y-116239857D01*
X172951428Y-116182714D01*
X173008571Y-116068428D01*
X173008571Y-115611285D01*
X172951428Y-115497000D01*
X172837142Y-115439857D01*
X172608571Y-115439857D01*
X172494285Y-115497000D01*
X172437142Y-115611285D01*
X172437142Y-115725571D01*
X173008571Y-115839857D01*
X171922857Y-116239857D02*
X171922857Y-115439857D01*
X171922857Y-115668428D02*
X171865714Y-115554142D01*
X171808571Y-115497000D01*
X171694285Y-115439857D01*
X171579999Y-115439857D01*
X170265714Y-116239857D02*
X170265714Y-115039857D01*
X169865714Y-115897000D01*
X169465714Y-115039857D01*
X169465714Y-116239857D01*
X168380000Y-116239857D02*
X168380000Y-115611285D01*
X168437142Y-115497000D01*
X168551428Y-115439857D01*
X168780000Y-115439857D01*
X168894285Y-115497000D01*
X168380000Y-116182714D02*
X168494285Y-116239857D01*
X168780000Y-116239857D01*
X168894285Y-116182714D01*
X168951428Y-116068428D01*
X168951428Y-115954142D01*
X168894285Y-115839857D01*
X168780000Y-115782714D01*
X168494285Y-115782714D01*
X168380000Y-115725571D01*
X167808571Y-116239857D02*
X167808571Y-115439857D01*
X167808571Y-115039857D02*
X167865714Y-115097000D01*
X167808571Y-115154142D01*
X167751428Y-115097000D01*
X167808571Y-115039857D01*
X167808571Y-115154142D01*
X167237142Y-115439857D02*
X167237142Y-116239857D01*
X167237142Y-115554142D02*
X167180000Y-115497000D01*
X167065714Y-115439857D01*
X166894285Y-115439857D01*
X166780000Y-115497000D01*
X166722857Y-115611285D01*
X166722857Y-116239857D01*
X164837142Y-115611285D02*
X164665714Y-115668428D01*
X164608571Y-115725571D01*
X164551428Y-115839857D01*
X164551428Y-116011285D01*
X164608571Y-116125571D01*
X164665714Y-116182714D01*
X164780000Y-116239857D01*
X165237142Y-116239857D01*
X165237142Y-115039857D01*
X164837142Y-115039857D01*
X164722857Y-115097000D01*
X164665714Y-115154142D01*
X164608571Y-115268428D01*
X164608571Y-115382714D01*
X164665714Y-115497000D01*
X164722857Y-115554142D01*
X164837142Y-115611285D01*
X165237142Y-115611285D01*
X163865714Y-116239857D02*
X163980000Y-116182714D01*
X164037142Y-116125571D01*
X164094285Y-116011285D01*
X164094285Y-115668428D01*
X164037142Y-115554142D01*
X163980000Y-115497000D01*
X163865714Y-115439857D01*
X163694285Y-115439857D01*
X163580000Y-115497000D01*
X163522857Y-115554142D01*
X163465714Y-115668428D01*
X163465714Y-116011285D01*
X163522857Y-116125571D01*
X163580000Y-116182714D01*
X163694285Y-116239857D01*
X163865714Y-116239857D01*
X162437142Y-116239857D02*
X162437142Y-115611285D01*
X162494285Y-115497000D01*
X162608571Y-115439857D01*
X162837142Y-115439857D01*
X162951428Y-115497000D01*
X162437142Y-116182714D02*
X162551428Y-116239857D01*
X162837142Y-116239857D01*
X162951428Y-116182714D01*
X163008571Y-116068428D01*
X163008571Y-115954142D01*
X162951428Y-115839857D01*
X162837142Y-115782714D01*
X162551428Y-115782714D01*
X162437142Y-115725571D01*
X161865714Y-116239857D02*
X161865714Y-115439857D01*
X161865714Y-115668428D02*
X161808571Y-115554142D01*
X161751428Y-115497000D01*
X161637142Y-115439857D01*
X161522857Y-115439857D01*
X160608571Y-116239857D02*
X160608571Y-115039857D01*
X160608571Y-116182714D02*
X160722857Y-116239857D01*
X160951428Y-116239857D01*
X161065714Y-116182714D01*
X161122857Y-116125571D01*
X161180000Y-116011285D01*
X161180000Y-115668428D01*
X161122857Y-115554142D01*
X161065714Y-115497000D01*
X160951428Y-115439857D01*
X160722857Y-115439857D01*
X160608571Y-115497000D01*
X159180000Y-115897000D02*
X158608571Y-115897000D01*
X159294285Y-116239857D02*
X158894285Y-115039857D01*
X158494285Y-116239857D01*
X156494285Y-116239857D02*
X156894285Y-115668428D01*
X157180000Y-116239857D02*
X157180000Y-115039857D01*
X156722857Y-115039857D01*
X156608571Y-115097000D01*
X156551428Y-115154142D01*
X156494285Y-115268428D01*
X156494285Y-115439857D01*
X156551428Y-115554142D01*
X156608571Y-115611285D01*
X156722857Y-115668428D01*
X157180000Y-115668428D01*
X155522857Y-116182714D02*
X155637142Y-116239857D01*
X155865714Y-116239857D01*
X155980000Y-116182714D01*
X156037142Y-116068428D01*
X156037142Y-115611285D01*
X155980000Y-115497000D01*
X155865714Y-115439857D01*
X155637142Y-115439857D01*
X155522857Y-115497000D01*
X155465714Y-115611285D01*
X155465714Y-115725571D01*
X156037142Y-115839857D01*
X155065714Y-115439857D02*
X154780000Y-116239857D01*
X154494285Y-115439857D01*
X153522857Y-115439857D02*
X153522857Y-116239857D01*
X153808571Y-114982714D02*
X154094285Y-115839857D01*
X153351428Y-115839857D01*
X152894285Y-116125571D02*
X152837142Y-116182714D01*
X152894285Y-116239857D01*
X152951428Y-116182714D01*
X152894285Y-116125571D01*
X152894285Y-116239857D01*
X151694285Y-116239857D02*
X152380000Y-116239857D01*
X152037142Y-116239857D02*
X152037142Y-115039857D01*
X152151428Y-115211285D01*
X152265714Y-115325571D01*
X152380000Y-115382714D01*
X238138571Y-66709857D02*
X238138571Y-65509857D01*
X237852857Y-65509857D01*
X237681428Y-65567000D01*
X237567142Y-65681285D01*
X237510000Y-65795571D01*
X237452857Y-66024142D01*
X237452857Y-66195571D01*
X237510000Y-66424142D01*
X237567142Y-66538428D01*
X237681428Y-66652714D01*
X237852857Y-66709857D01*
X238138571Y-66709857D01*
X236938571Y-66709857D02*
X236938571Y-65509857D01*
X236138571Y-66138428D02*
X236138571Y-66709857D01*
X236538571Y-65509857D02*
X236138571Y-66138428D01*
X235738571Y-65509857D01*
X234424285Y-66709857D02*
X234424285Y-65509857D01*
X233967142Y-65509857D01*
X233852857Y-65567000D01*
X233795714Y-65624142D01*
X233738571Y-65738428D01*
X233738571Y-65909857D01*
X233795714Y-66024142D01*
X233852857Y-66081285D01*
X233967142Y-66138428D01*
X234424285Y-66138428D01*
X232710000Y-65909857D02*
X232710000Y-66709857D01*
X233224285Y-65909857D02*
X233224285Y-66538428D01*
X233167142Y-66652714D01*
X233052857Y-66709857D01*
X232881428Y-66709857D01*
X232767142Y-66652714D01*
X232710000Y-66595571D01*
X231967142Y-66709857D02*
X232081428Y-66652714D01*
X232138571Y-66538428D01*
X232138571Y-65509857D01*
X231567142Y-66652714D02*
X231452857Y-66709857D01*
X231224285Y-66709857D01*
X231109999Y-66652714D01*
X231052857Y-66538428D01*
X231052857Y-66481285D01*
X231109999Y-66367000D01*
X231224285Y-66309857D01*
X231395714Y-66309857D01*
X231509999Y-66252714D01*
X231567142Y-66138428D01*
X231567142Y-66081285D01*
X231509999Y-65967000D01*
X231395714Y-65909857D01*
X231224285Y-65909857D01*
X231109999Y-65967000D01*
X230081428Y-66652714D02*
X230195714Y-66709857D01*
X230424285Y-66709857D01*
X230538571Y-66652714D01*
X230595714Y-66538428D01*
X230595714Y-66081285D01*
X230538571Y-65967000D01*
X230424285Y-65909857D01*
X230195714Y-65909857D01*
X230081428Y-65967000D01*
X230024285Y-66081285D01*
X230024285Y-66195571D01*
X230595714Y-66309857D01*
X228367142Y-65509857D02*
X228138571Y-65509857D01*
X228024285Y-65567000D01*
X227910000Y-65681285D01*
X227852857Y-65909857D01*
X227852857Y-66309857D01*
X227910000Y-66538428D01*
X228024285Y-66652714D01*
X228138571Y-66709857D01*
X228367142Y-66709857D01*
X228481428Y-66652714D01*
X228595714Y-66538428D01*
X228652857Y-66309857D01*
X228652857Y-65909857D01*
X228595714Y-65681285D01*
X228481428Y-65567000D01*
X228367142Y-65509857D01*
X227452857Y-66709857D02*
X226824285Y-65909857D01*
X227452857Y-65909857D02*
X226824285Y-66709857D01*
X226367142Y-66709857D02*
X226367142Y-65909857D01*
X226367142Y-65509857D02*
X226424285Y-65567000D01*
X226367142Y-65624142D01*
X226310000Y-65567000D01*
X226367142Y-65509857D01*
X226367142Y-65624142D01*
X225795714Y-66709857D02*
X225795714Y-65909857D01*
X225795714Y-66024142D02*
X225738571Y-65967000D01*
X225624285Y-65909857D01*
X225452857Y-65909857D01*
X225338571Y-65967000D01*
X225281428Y-66081285D01*
X225281428Y-66709857D01*
X225281428Y-66081285D02*
X225224285Y-65967000D01*
X225110000Y-65909857D01*
X224938571Y-65909857D01*
X224824285Y-65967000D01*
X224767142Y-66081285D01*
X224767142Y-66709857D01*
X223738571Y-66652714D02*
X223852857Y-66709857D01*
X224081428Y-66709857D01*
X224195714Y-66652714D01*
X224252857Y-66538428D01*
X224252857Y-66081285D01*
X224195714Y-65967000D01*
X224081428Y-65909857D01*
X223852857Y-65909857D01*
X223738571Y-65967000D01*
X223681428Y-66081285D01*
X223681428Y-66195571D01*
X224252857Y-66309857D01*
X223338571Y-65909857D02*
X222881428Y-65909857D01*
X223167142Y-65509857D02*
X223167142Y-66538428D01*
X223110000Y-66652714D01*
X222995714Y-66709857D01*
X222881428Y-66709857D01*
X222024285Y-66652714D02*
X222138571Y-66709857D01*
X222367142Y-66709857D01*
X222481428Y-66652714D01*
X222538571Y-66538428D01*
X222538571Y-66081285D01*
X222481428Y-65967000D01*
X222367142Y-65909857D01*
X222138571Y-65909857D01*
X222024285Y-65967000D01*
X221967142Y-66081285D01*
X221967142Y-66195571D01*
X222538571Y-66309857D01*
X221452857Y-66709857D02*
X221452857Y-65909857D01*
X221452857Y-66138428D02*
X221395714Y-66024142D01*
X221338571Y-65967000D01*
X221224285Y-65909857D01*
X221109999Y-65909857D01*
X219795714Y-66709857D02*
X219795714Y-65509857D01*
X219395714Y-66367000D01*
X218995714Y-65509857D01*
X218995714Y-66709857D01*
X217910000Y-66709857D02*
X217910000Y-66081285D01*
X217967142Y-65967000D01*
X218081428Y-65909857D01*
X218310000Y-65909857D01*
X218424285Y-65967000D01*
X217910000Y-66652714D02*
X218024285Y-66709857D01*
X218310000Y-66709857D01*
X218424285Y-66652714D01*
X218481428Y-66538428D01*
X218481428Y-66424142D01*
X218424285Y-66309857D01*
X218310000Y-66252714D01*
X218024285Y-66252714D01*
X217910000Y-66195571D01*
X217338571Y-66709857D02*
X217338571Y-65909857D01*
X217338571Y-65509857D02*
X217395714Y-65567000D01*
X217338571Y-65624142D01*
X217281428Y-65567000D01*
X217338571Y-65509857D01*
X217338571Y-65624142D01*
X216767142Y-65909857D02*
X216767142Y-66709857D01*
X216767142Y-66024142D02*
X216710000Y-65967000D01*
X216595714Y-65909857D01*
X216424285Y-65909857D01*
X216310000Y-65967000D01*
X216252857Y-66081285D01*
X216252857Y-66709857D01*
X214367142Y-66081285D02*
X214195714Y-66138428D01*
X214138571Y-66195571D01*
X214081428Y-66309857D01*
X214081428Y-66481285D01*
X214138571Y-66595571D01*
X214195714Y-66652714D01*
X214310000Y-66709857D01*
X214767142Y-66709857D01*
X214767142Y-65509857D01*
X214367142Y-65509857D01*
X214252857Y-65567000D01*
X214195714Y-65624142D01*
X214138571Y-65738428D01*
X214138571Y-65852714D01*
X214195714Y-65967000D01*
X214252857Y-66024142D01*
X214367142Y-66081285D01*
X214767142Y-66081285D01*
X213395714Y-66709857D02*
X213510000Y-66652714D01*
X213567142Y-66595571D01*
X213624285Y-66481285D01*
X213624285Y-66138428D01*
X213567142Y-66024142D01*
X213510000Y-65967000D01*
X213395714Y-65909857D01*
X213224285Y-65909857D01*
X213110000Y-65967000D01*
X213052857Y-66024142D01*
X212995714Y-66138428D01*
X212995714Y-66481285D01*
X213052857Y-66595571D01*
X213110000Y-66652714D01*
X213224285Y-66709857D01*
X213395714Y-66709857D01*
X211967142Y-66709857D02*
X211967142Y-66081285D01*
X212024285Y-65967000D01*
X212138571Y-65909857D01*
X212367142Y-65909857D01*
X212481428Y-65967000D01*
X211967142Y-66652714D02*
X212081428Y-66709857D01*
X212367142Y-66709857D01*
X212481428Y-66652714D01*
X212538571Y-66538428D01*
X212538571Y-66424142D01*
X212481428Y-66309857D01*
X212367142Y-66252714D01*
X212081428Y-66252714D01*
X211967142Y-66195571D01*
X211395714Y-66709857D02*
X211395714Y-65909857D01*
X211395714Y-66138428D02*
X211338571Y-66024142D01*
X211281428Y-65967000D01*
X211167142Y-65909857D01*
X211052857Y-65909857D01*
X210138571Y-66709857D02*
X210138571Y-65509857D01*
X210138571Y-66652714D02*
X210252857Y-66709857D01*
X210481428Y-66709857D01*
X210595714Y-66652714D01*
X210652857Y-66595571D01*
X210710000Y-66481285D01*
X210710000Y-66138428D01*
X210652857Y-66024142D01*
X210595714Y-65967000D01*
X210481428Y-65909857D01*
X210252857Y-65909857D01*
X210138571Y-65967000D01*
X208710000Y-66367000D02*
X208138571Y-66367000D01*
X208824285Y-66709857D02*
X208424285Y-65509857D01*
X208024285Y-66709857D01*
X206024285Y-66709857D02*
X206424285Y-66138428D01*
X206710000Y-66709857D02*
X206710000Y-65509857D01*
X206252857Y-65509857D01*
X206138571Y-65567000D01*
X206081428Y-65624142D01*
X206024285Y-65738428D01*
X206024285Y-65909857D01*
X206081428Y-66024142D01*
X206138571Y-66081285D01*
X206252857Y-66138428D01*
X206710000Y-66138428D01*
X205052857Y-66652714D02*
X205167142Y-66709857D01*
X205395714Y-66709857D01*
X205510000Y-66652714D01*
X205567142Y-66538428D01*
X205567142Y-66081285D01*
X205510000Y-65967000D01*
X205395714Y-65909857D01*
X205167142Y-65909857D01*
X205052857Y-65967000D01*
X204995714Y-66081285D01*
X204995714Y-66195571D01*
X205567142Y-66309857D01*
X204595714Y-65909857D02*
X204310000Y-66709857D01*
X204024285Y-65909857D01*
X203052857Y-65909857D02*
X203052857Y-66709857D01*
X203338571Y-65452714D02*
X203624285Y-66309857D01*
X202881428Y-66309857D01*
X202424285Y-66595571D02*
X202367142Y-66652714D01*
X202424285Y-66709857D01*
X202481428Y-66652714D01*
X202424285Y-66595571D01*
X202424285Y-66709857D01*
X201224285Y-66709857D02*
X201910000Y-66709857D01*
X201567142Y-66709857D02*
X201567142Y-65509857D01*
X201681428Y-65681285D01*
X201795714Y-65795571D01*
X201910000Y-65852714D01*
X185680000Y-112212380D02*
X185680000Y-111212380D01*
X185251428Y-112212380D02*
X185251428Y-111688571D01*
X185299047Y-111593333D01*
X185394285Y-111545714D01*
X185537142Y-111545714D01*
X185632380Y-111593333D01*
X185680000Y-111640952D01*
X184918095Y-111545714D02*
X184537142Y-111545714D01*
X184775238Y-111212380D02*
X184775238Y-112069523D01*
X184727619Y-112164761D01*
X184632380Y-112212380D01*
X184537142Y-112212380D01*
X184346666Y-111545714D02*
X183965714Y-111545714D01*
X184203809Y-111212380D02*
X184203809Y-112069523D01*
X184156190Y-112164761D01*
X184060952Y-112212380D01*
X183965714Y-112212380D01*
X183632380Y-111545714D02*
X183632380Y-112545714D01*
X183632380Y-111593333D02*
X183537142Y-111545714D01*
X183346666Y-111545714D01*
X183251428Y-111593333D01*
X183203809Y-111640952D01*
X183156190Y-111736190D01*
X183156190Y-112021904D01*
X183203809Y-112117142D01*
X183251428Y-112164761D01*
X183346666Y-112212380D01*
X183537142Y-112212380D01*
X183632380Y-112164761D01*
X182775238Y-112164761D02*
X182680000Y-112212380D01*
X182489523Y-112212380D01*
X182394285Y-112164761D01*
X182346666Y-112069523D01*
X182346666Y-112021904D01*
X182394285Y-111926666D01*
X182489523Y-111879047D01*
X182632380Y-111879047D01*
X182727619Y-111831428D01*
X182775238Y-111736190D01*
X182775238Y-111688571D01*
X182727619Y-111593333D01*
X182632380Y-111545714D01*
X182489523Y-111545714D01*
X182394285Y-111593333D01*
X181918095Y-112117142D02*
X181870476Y-112164761D01*
X181918095Y-112212380D01*
X181965714Y-112164761D01*
X181918095Y-112117142D01*
X181918095Y-112212380D01*
X181918095Y-111593333D02*
X181870476Y-111640952D01*
X181918095Y-111688571D01*
X181965714Y-111640952D01*
X181918095Y-111593333D01*
X181918095Y-111688571D01*
X180727619Y-111164761D02*
X181584761Y-112450476D01*
X179680000Y-111164761D02*
X180537142Y-112450476D01*
X179346666Y-111545714D02*
X179346666Y-112545714D01*
X179346666Y-111593333D02*
X179251428Y-111545714D01*
X179060952Y-111545714D01*
X178965714Y-111593333D01*
X178918095Y-111640952D01*
X178870476Y-111736190D01*
X178870476Y-112021904D01*
X178918095Y-112117142D01*
X178965714Y-112164761D01*
X179060952Y-112212380D01*
X179251428Y-112212380D01*
X179346666Y-112164761D01*
X178441904Y-112212380D02*
X178441904Y-111545714D01*
X178441904Y-111212380D02*
X178489523Y-111260000D01*
X178441904Y-111307619D01*
X178394285Y-111260000D01*
X178441904Y-111212380D01*
X178441904Y-111307619D01*
X177822857Y-112212380D02*
X177918095Y-112164761D01*
X177965714Y-112117142D01*
X178013333Y-112021904D01*
X178013333Y-111736190D01*
X177965714Y-111640952D01*
X177918095Y-111593333D01*
X177822857Y-111545714D01*
X177680000Y-111545714D01*
X177584761Y-111593333D01*
X177537142Y-111640952D01*
X177489523Y-111736190D01*
X177489523Y-112021904D01*
X177537142Y-112117142D01*
X177584761Y-112164761D01*
X177680000Y-112212380D01*
X177822857Y-112212380D01*
X177060952Y-111545714D02*
X177060952Y-112212380D01*
X177060952Y-111640952D02*
X177013333Y-111593333D01*
X176918095Y-111545714D01*
X176775238Y-111545714D01*
X176680000Y-111593333D01*
X176632380Y-111688571D01*
X176632380Y-112212380D01*
X175775238Y-112164761D02*
X175870476Y-112212380D01*
X176060952Y-112212380D01*
X176156190Y-112164761D01*
X176203809Y-112069523D01*
X176203809Y-111688571D01*
X176156190Y-111593333D01*
X176060952Y-111545714D01*
X175870476Y-111545714D01*
X175775238Y-111593333D01*
X175727619Y-111688571D01*
X175727619Y-111783809D01*
X176203809Y-111879047D01*
X175299047Y-112117142D02*
X175251428Y-112164761D01*
X175299047Y-112212380D01*
X175346666Y-112164761D01*
X175299047Y-112117142D01*
X175299047Y-112212380D01*
X174822857Y-111545714D02*
X174822857Y-112402857D01*
X174870476Y-112498095D01*
X174965714Y-112545714D01*
X175013333Y-112545714D01*
X174822857Y-111212380D02*
X174870476Y-111260000D01*
X174822857Y-111307619D01*
X174775238Y-111260000D01*
X174822857Y-111212380D01*
X174822857Y-111307619D01*
X174346666Y-111545714D02*
X174346666Y-112545714D01*
X174346666Y-111593333D02*
X174251428Y-111545714D01*
X174060952Y-111545714D01*
X173965714Y-111593333D01*
X173918095Y-111640952D01*
X173870476Y-111736190D01*
X173870476Y-112021904D01*
X173918095Y-112117142D01*
X173965714Y-112164761D01*
X174060952Y-112212380D01*
X174251428Y-112212380D01*
X174346666Y-112164761D01*
X172727619Y-111164761D02*
X173584761Y-112450476D01*
X172394285Y-111545714D02*
X172394285Y-112545714D01*
X172394285Y-111593333D02*
X172299047Y-111545714D01*
X172108571Y-111545714D01*
X172013333Y-111593333D01*
X171965714Y-111640952D01*
X171918095Y-111736190D01*
X171918095Y-112021904D01*
X171965714Y-112117142D01*
X172013333Y-112164761D01*
X172108571Y-112212380D01*
X172299047Y-112212380D01*
X172394285Y-112164761D01*
X171489523Y-112212380D02*
X171489523Y-111545714D01*
X171489523Y-111736190D02*
X171441904Y-111640952D01*
X171394285Y-111593333D01*
X171299047Y-111545714D01*
X171203809Y-111545714D01*
X170727619Y-112212380D02*
X170822857Y-112164761D01*
X170870476Y-112117142D01*
X170918095Y-112021904D01*
X170918095Y-111736190D01*
X170870476Y-111640952D01*
X170822857Y-111593333D01*
X170727619Y-111545714D01*
X170584761Y-111545714D01*
X170489523Y-111593333D01*
X170441904Y-111640952D01*
X170394285Y-111736190D01*
X170394285Y-112021904D01*
X170441904Y-112117142D01*
X170489523Y-112164761D01*
X170584761Y-112212380D01*
X170727619Y-112212380D01*
X169537142Y-112212380D02*
X169537142Y-111212380D01*
X169537142Y-112164761D02*
X169632380Y-112212380D01*
X169822857Y-112212380D01*
X169918095Y-112164761D01*
X169965714Y-112117142D01*
X170013333Y-112021904D01*
X170013333Y-111736190D01*
X169965714Y-111640952D01*
X169918095Y-111593333D01*
X169822857Y-111545714D01*
X169632380Y-111545714D01*
X169537142Y-111593333D01*
X168632380Y-111545714D02*
X168632380Y-112212380D01*
X169060952Y-111545714D02*
X169060952Y-112069523D01*
X169013333Y-112164761D01*
X168918095Y-112212380D01*
X168775238Y-112212380D01*
X168680000Y-112164761D01*
X168632380Y-112117142D01*
X167727619Y-112164761D02*
X167822857Y-112212380D01*
X168013333Y-112212380D01*
X168108571Y-112164761D01*
X168156190Y-112117142D01*
X168203809Y-112021904D01*
X168203809Y-111736190D01*
X168156190Y-111640952D01*
X168108571Y-111593333D01*
X168013333Y-111545714D01*
X167822857Y-111545714D01*
X167727619Y-111593333D01*
X167441904Y-111545714D02*
X167060952Y-111545714D01*
X167299047Y-111212380D02*
X167299047Y-112069523D01*
X167251428Y-112164761D01*
X167156190Y-112212380D01*
X167060952Y-112212380D01*
X166775238Y-112164761D02*
X166680000Y-112212380D01*
X166489523Y-112212380D01*
X166394285Y-112164761D01*
X166346666Y-112069523D01*
X166346666Y-112021904D01*
X166394285Y-111926666D01*
X166489523Y-111879047D01*
X166632380Y-111879047D01*
X166727619Y-111831428D01*
X166775238Y-111736190D01*
X166775238Y-111688571D01*
X166727619Y-111593333D01*
X166632380Y-111545714D01*
X166489523Y-111545714D01*
X166394285Y-111593333D01*
X165203809Y-111164761D02*
X166060952Y-112450476D01*
X164870476Y-112212380D02*
X164870476Y-111212380D01*
X164489523Y-111212380D01*
X164394285Y-111260000D01*
X164346666Y-111307619D01*
X164299047Y-111402857D01*
X164299047Y-111545714D01*
X164346666Y-111640952D01*
X164394285Y-111688571D01*
X164489523Y-111736190D01*
X164870476Y-111736190D01*
X163441904Y-111545714D02*
X163441904Y-112212380D01*
X163870476Y-111545714D02*
X163870476Y-112069523D01*
X163822857Y-112164761D01*
X163727619Y-112212380D01*
X163584761Y-112212380D01*
X163489523Y-112164761D01*
X163441904Y-112117142D01*
X162822857Y-112212380D02*
X162918095Y-112164761D01*
X162965714Y-112069523D01*
X162965714Y-111212380D01*
X162489523Y-112164761D02*
X162394285Y-112212380D01*
X162203809Y-112212380D01*
X162108571Y-112164761D01*
X162060952Y-112069523D01*
X162060952Y-112021904D01*
X162108571Y-111926666D01*
X162203809Y-111879047D01*
X162346666Y-111879047D01*
X162441904Y-111831428D01*
X162489523Y-111736190D01*
X162489523Y-111688571D01*
X162441904Y-111593333D01*
X162346666Y-111545714D01*
X162203809Y-111545714D01*
X162108571Y-111593333D01*
X161251428Y-112164761D02*
X161346666Y-112212380D01*
X161537142Y-112212380D01*
X161632380Y-112164761D01*
X161680000Y-112069523D01*
X161680000Y-111688571D01*
X161632380Y-111593333D01*
X161537142Y-111545714D01*
X161346666Y-111545714D01*
X161251428Y-111593333D01*
X161203809Y-111688571D01*
X161203809Y-111783809D01*
X161680000Y-111879047D01*
X160584761Y-111212380D02*
X160394285Y-111212380D01*
X160299047Y-111260000D01*
X160203809Y-111355238D01*
X160156190Y-111545714D01*
X160156190Y-111879047D01*
X160203809Y-112069523D01*
X160299047Y-112164761D01*
X160394285Y-112212380D01*
X160584761Y-112212380D01*
X160680000Y-112164761D01*
X160775238Y-112069523D01*
X160822857Y-111879047D01*
X160822857Y-111545714D01*
X160775238Y-111355238D01*
X160680000Y-111260000D01*
X160584761Y-111212380D01*
X159822857Y-112212380D02*
X159299047Y-111545714D01*
X159822857Y-111545714D02*
X159299047Y-112212380D01*
X158918095Y-112212380D02*
X158918095Y-111545714D01*
X158918095Y-111212380D02*
X158965714Y-111260000D01*
X158918095Y-111307619D01*
X158870476Y-111260000D01*
X158918095Y-111212380D01*
X158918095Y-111307619D01*
X158441904Y-112212380D02*
X158441904Y-111545714D01*
X158441904Y-111640952D02*
X158394285Y-111593333D01*
X158299047Y-111545714D01*
X158156190Y-111545714D01*
X158060952Y-111593333D01*
X158013333Y-111688571D01*
X158013333Y-112212380D01*
X158013333Y-111688571D02*
X157965714Y-111593333D01*
X157870476Y-111545714D01*
X157727619Y-111545714D01*
X157632380Y-111593333D01*
X157584761Y-111688571D01*
X157584761Y-112212380D01*
X156727619Y-112164761D02*
X156822857Y-112212380D01*
X157013333Y-112212380D01*
X157108571Y-112164761D01*
X157156190Y-112069523D01*
X157156190Y-111688571D01*
X157108571Y-111593333D01*
X157013333Y-111545714D01*
X156822857Y-111545714D01*
X156727619Y-111593333D01*
X156680000Y-111688571D01*
X156680000Y-111783809D01*
X157156190Y-111879047D01*
X156394285Y-111545714D02*
X156013333Y-111545714D01*
X156251428Y-111212380D02*
X156251428Y-112069523D01*
X156203809Y-112164761D01*
X156108571Y-112212380D01*
X156013333Y-112212380D01*
X155299047Y-112164761D02*
X155394285Y-112212380D01*
X155584761Y-112212380D01*
X155680000Y-112164761D01*
X155727619Y-112069523D01*
X155727619Y-111688571D01*
X155680000Y-111593333D01*
X155584761Y-111545714D01*
X155394285Y-111545714D01*
X155299047Y-111593333D01*
X155251428Y-111688571D01*
X155251428Y-111783809D01*
X155727619Y-111879047D01*
X154822857Y-112212380D02*
X154822857Y-111545714D01*
X154822857Y-111736190D02*
X154775238Y-111640952D01*
X154727619Y-111593333D01*
X154632380Y-111545714D01*
X154537142Y-111545714D01*
X188608571Y-66709857D02*
X188608571Y-65509857D01*
X188322857Y-65509857D01*
X188151428Y-65567000D01*
X188037142Y-65681285D01*
X187980000Y-65795571D01*
X187922857Y-66024142D01*
X187922857Y-66195571D01*
X187980000Y-66424142D01*
X188037142Y-66538428D01*
X188151428Y-66652714D01*
X188322857Y-66709857D01*
X188608571Y-66709857D01*
X187408571Y-66709857D02*
X187408571Y-65509857D01*
X186608571Y-66138428D02*
X186608571Y-66709857D01*
X187008571Y-65509857D02*
X186608571Y-66138428D01*
X186208571Y-65509857D01*
X184894285Y-66709857D02*
X184894285Y-65509857D01*
X184437142Y-65509857D01*
X184322857Y-65567000D01*
X184265714Y-65624142D01*
X184208571Y-65738428D01*
X184208571Y-65909857D01*
X184265714Y-66024142D01*
X184322857Y-66081285D01*
X184437142Y-66138428D01*
X184894285Y-66138428D01*
X183180000Y-65909857D02*
X183180000Y-66709857D01*
X183694285Y-65909857D02*
X183694285Y-66538428D01*
X183637142Y-66652714D01*
X183522857Y-66709857D01*
X183351428Y-66709857D01*
X183237142Y-66652714D01*
X183180000Y-66595571D01*
X182437142Y-66709857D02*
X182551428Y-66652714D01*
X182608571Y-66538428D01*
X182608571Y-65509857D01*
X182037142Y-66652714D02*
X181922857Y-66709857D01*
X181694285Y-66709857D01*
X181579999Y-66652714D01*
X181522857Y-66538428D01*
X181522857Y-66481285D01*
X181579999Y-66367000D01*
X181694285Y-66309857D01*
X181865714Y-66309857D01*
X181979999Y-66252714D01*
X182037142Y-66138428D01*
X182037142Y-66081285D01*
X181979999Y-65967000D01*
X181865714Y-65909857D01*
X181694285Y-65909857D01*
X181579999Y-65967000D01*
X180551428Y-66652714D02*
X180665714Y-66709857D01*
X180894285Y-66709857D01*
X181008571Y-66652714D01*
X181065714Y-66538428D01*
X181065714Y-66081285D01*
X181008571Y-65967000D01*
X180894285Y-65909857D01*
X180665714Y-65909857D01*
X180551428Y-65967000D01*
X180494285Y-66081285D01*
X180494285Y-66195571D01*
X181065714Y-66309857D01*
X178837142Y-65509857D02*
X178608571Y-65509857D01*
X178494285Y-65567000D01*
X178380000Y-65681285D01*
X178322857Y-65909857D01*
X178322857Y-66309857D01*
X178380000Y-66538428D01*
X178494285Y-66652714D01*
X178608571Y-66709857D01*
X178837142Y-66709857D01*
X178951428Y-66652714D01*
X179065714Y-66538428D01*
X179122857Y-66309857D01*
X179122857Y-65909857D01*
X179065714Y-65681285D01*
X178951428Y-65567000D01*
X178837142Y-65509857D01*
X177922857Y-66709857D02*
X177294285Y-65909857D01*
X177922857Y-65909857D02*
X177294285Y-66709857D01*
X176837142Y-66709857D02*
X176837142Y-65909857D01*
X176837142Y-65509857D02*
X176894285Y-65567000D01*
X176837142Y-65624142D01*
X176780000Y-65567000D01*
X176837142Y-65509857D01*
X176837142Y-65624142D01*
X176265714Y-66709857D02*
X176265714Y-65909857D01*
X176265714Y-66024142D02*
X176208571Y-65967000D01*
X176094285Y-65909857D01*
X175922857Y-65909857D01*
X175808571Y-65967000D01*
X175751428Y-66081285D01*
X175751428Y-66709857D01*
X175751428Y-66081285D02*
X175694285Y-65967000D01*
X175580000Y-65909857D01*
X175408571Y-65909857D01*
X175294285Y-65967000D01*
X175237142Y-66081285D01*
X175237142Y-66709857D01*
X174208571Y-66652714D02*
X174322857Y-66709857D01*
X174551428Y-66709857D01*
X174665714Y-66652714D01*
X174722857Y-66538428D01*
X174722857Y-66081285D01*
X174665714Y-65967000D01*
X174551428Y-65909857D01*
X174322857Y-65909857D01*
X174208571Y-65967000D01*
X174151428Y-66081285D01*
X174151428Y-66195571D01*
X174722857Y-66309857D01*
X173808571Y-65909857D02*
X173351428Y-65909857D01*
X173637142Y-65509857D02*
X173637142Y-66538428D01*
X173580000Y-66652714D01*
X173465714Y-66709857D01*
X173351428Y-66709857D01*
X172494285Y-66652714D02*
X172608571Y-66709857D01*
X172837142Y-66709857D01*
X172951428Y-66652714D01*
X173008571Y-66538428D01*
X173008571Y-66081285D01*
X172951428Y-65967000D01*
X172837142Y-65909857D01*
X172608571Y-65909857D01*
X172494285Y-65967000D01*
X172437142Y-66081285D01*
X172437142Y-66195571D01*
X173008571Y-66309857D01*
X171922857Y-66709857D02*
X171922857Y-65909857D01*
X171922857Y-66138428D02*
X171865714Y-66024142D01*
X171808571Y-65967000D01*
X171694285Y-65909857D01*
X171579999Y-65909857D01*
X170265714Y-66709857D02*
X170265714Y-65509857D01*
X169865714Y-66367000D01*
X169465714Y-65509857D01*
X169465714Y-66709857D01*
X168380000Y-66709857D02*
X168380000Y-66081285D01*
X168437142Y-65967000D01*
X168551428Y-65909857D01*
X168780000Y-65909857D01*
X168894285Y-65967000D01*
X168380000Y-66652714D02*
X168494285Y-66709857D01*
X168780000Y-66709857D01*
X168894285Y-66652714D01*
X168951428Y-66538428D01*
X168951428Y-66424142D01*
X168894285Y-66309857D01*
X168780000Y-66252714D01*
X168494285Y-66252714D01*
X168380000Y-66195571D01*
X167808571Y-66709857D02*
X167808571Y-65909857D01*
X167808571Y-65509857D02*
X167865714Y-65567000D01*
X167808571Y-65624142D01*
X167751428Y-65567000D01*
X167808571Y-65509857D01*
X167808571Y-65624142D01*
X167237142Y-65909857D02*
X167237142Y-66709857D01*
X167237142Y-66024142D02*
X167180000Y-65967000D01*
X167065714Y-65909857D01*
X166894285Y-65909857D01*
X166780000Y-65967000D01*
X166722857Y-66081285D01*
X166722857Y-66709857D01*
X164837142Y-66081285D02*
X164665714Y-66138428D01*
X164608571Y-66195571D01*
X164551428Y-66309857D01*
X164551428Y-66481285D01*
X164608571Y-66595571D01*
X164665714Y-66652714D01*
X164780000Y-66709857D01*
X165237142Y-66709857D01*
X165237142Y-65509857D01*
X164837142Y-65509857D01*
X164722857Y-65567000D01*
X164665714Y-65624142D01*
X164608571Y-65738428D01*
X164608571Y-65852714D01*
X164665714Y-65967000D01*
X164722857Y-66024142D01*
X164837142Y-66081285D01*
X165237142Y-66081285D01*
X163865714Y-66709857D02*
X163980000Y-66652714D01*
X164037142Y-66595571D01*
X164094285Y-66481285D01*
X164094285Y-66138428D01*
X164037142Y-66024142D01*
X163980000Y-65967000D01*
X163865714Y-65909857D01*
X163694285Y-65909857D01*
X163580000Y-65967000D01*
X163522857Y-66024142D01*
X163465714Y-66138428D01*
X163465714Y-66481285D01*
X163522857Y-66595571D01*
X163580000Y-66652714D01*
X163694285Y-66709857D01*
X163865714Y-66709857D01*
X162437142Y-66709857D02*
X162437142Y-66081285D01*
X162494285Y-65967000D01*
X162608571Y-65909857D01*
X162837142Y-65909857D01*
X162951428Y-65967000D01*
X162437142Y-66652714D02*
X162551428Y-66709857D01*
X162837142Y-66709857D01*
X162951428Y-66652714D01*
X163008571Y-66538428D01*
X163008571Y-66424142D01*
X162951428Y-66309857D01*
X162837142Y-66252714D01*
X162551428Y-66252714D01*
X162437142Y-66195571D01*
X161865714Y-66709857D02*
X161865714Y-65909857D01*
X161865714Y-66138428D02*
X161808571Y-66024142D01*
X161751428Y-65967000D01*
X161637142Y-65909857D01*
X161522857Y-65909857D01*
X160608571Y-66709857D02*
X160608571Y-65509857D01*
X160608571Y-66652714D02*
X160722857Y-66709857D01*
X160951428Y-66709857D01*
X161065714Y-66652714D01*
X161122857Y-66595571D01*
X161180000Y-66481285D01*
X161180000Y-66138428D01*
X161122857Y-66024142D01*
X161065714Y-65967000D01*
X160951428Y-65909857D01*
X160722857Y-65909857D01*
X160608571Y-65967000D01*
X159180000Y-66367000D02*
X158608571Y-66367000D01*
X159294285Y-66709857D02*
X158894285Y-65509857D01*
X158494285Y-66709857D01*
X156494285Y-66709857D02*
X156894285Y-66138428D01*
X157180000Y-66709857D02*
X157180000Y-65509857D01*
X156722857Y-65509857D01*
X156608571Y-65567000D01*
X156551428Y-65624142D01*
X156494285Y-65738428D01*
X156494285Y-65909857D01*
X156551428Y-66024142D01*
X156608571Y-66081285D01*
X156722857Y-66138428D01*
X157180000Y-66138428D01*
X155522857Y-66652714D02*
X155637142Y-66709857D01*
X155865714Y-66709857D01*
X155980000Y-66652714D01*
X156037142Y-66538428D01*
X156037142Y-66081285D01*
X155980000Y-65967000D01*
X155865714Y-65909857D01*
X155637142Y-65909857D01*
X155522857Y-65967000D01*
X155465714Y-66081285D01*
X155465714Y-66195571D01*
X156037142Y-66309857D01*
X155065714Y-65909857D02*
X154780000Y-66709857D01*
X154494285Y-65909857D01*
X153522857Y-65909857D02*
X153522857Y-66709857D01*
X153808571Y-65452714D02*
X154094285Y-66309857D01*
X153351428Y-66309857D01*
X152894285Y-66595571D02*
X152837142Y-66652714D01*
X152894285Y-66709857D01*
X152951428Y-66652714D01*
X152894285Y-66595571D01*
X152894285Y-66709857D01*
X151694285Y-66709857D02*
X152380000Y-66709857D01*
X152037142Y-66709857D02*
X152037142Y-65509857D01*
X152151428Y-65681285D01*
X152265714Y-65795571D01*
X152380000Y-65852714D01*
%LPC*%
D11*
X207010000Y-125095000D03*
D12*
X199390000Y-125095000D03*
D11*
X157480000Y-125095000D03*
D12*
X149860000Y-125095000D03*
D11*
X207010000Y-75565000D03*
D12*
X199390000Y-75565000D03*
D11*
X200659999Y-145415000D03*
D12*
X200659999Y-153035000D03*
D11*
X151129999Y-145415000D03*
D12*
X151129999Y-153035000D03*
D11*
X200659999Y-95885000D03*
D12*
X200659999Y-103505000D03*
D13*
X219075000Y-118745000D03*
D14*
X216535000Y-118745000D03*
X213995000Y-118745000D03*
D13*
X169545000Y-118745000D03*
D14*
X167005000Y-118745000D03*
X164465000Y-118745000D03*
D13*
X219075000Y-69215000D03*
D14*
X216535000Y-69215000D03*
X213995000Y-69215000D03*
D12*
X212979000Y-123750000D03*
D15*
X210979000Y-123750000D03*
D12*
X163449000Y-123750000D03*
D15*
X161449000Y-123750000D03*
D12*
X212979000Y-74220000D03*
D15*
X210979000Y-74220000D03*
D16*
X198755000Y-159385000D03*
X149225000Y-159385000D03*
X198755000Y-109855000D03*
D11*
X228600000Y-137160000D03*
X220980000Y-129540000D03*
X226060000Y-137160000D03*
X223520000Y-129540000D03*
X223520000Y-137160000D03*
X226060000Y-129540000D03*
X220980000Y-137160000D03*
D15*
X228600000Y-129540000D03*
D11*
X179070000Y-137160000D03*
X171450000Y-129540000D03*
X176530000Y-137160000D03*
X173990000Y-129540000D03*
X173990000Y-137160000D03*
X176530000Y-129540000D03*
X171450000Y-137160000D03*
D15*
X179070000Y-129540000D03*
D11*
X228600000Y-87630000D03*
X220980000Y-80010000D03*
X226060000Y-87630000D03*
X223520000Y-80010000D03*
X223520000Y-87630000D03*
X226060000Y-80010000D03*
X220980000Y-87630000D03*
D15*
X228600000Y-80010000D03*
D11*
X215900000Y-128270000D03*
D12*
X215900000Y-135890000D03*
D11*
X166370000Y-128270000D03*
D12*
X166370000Y-135890000D03*
D11*
X215900000Y-78740000D03*
D12*
X215900000Y-86360000D03*
D11*
X234315000Y-119380000D03*
D12*
X234315000Y-127000000D03*
D11*
X184785000Y-119380000D03*
D12*
X184785000Y-127000000D03*
D11*
X234315000Y-69850000D03*
D12*
X234315000Y-77470000D03*
D17*
X205613000Y-157480000D03*
X208153000Y-157480000D03*
D18*
X203073000Y-157480000D03*
X210693000Y-157480000D03*
D17*
X156083000Y-157480000D03*
X158623000Y-157480000D03*
D18*
X153543000Y-157480000D03*
X161163000Y-157480000D03*
D17*
X205613000Y-107950000D03*
X208153000Y-107950000D03*
D18*
X203073000Y-107950000D03*
X210693000Y-107950000D03*
D12*
X212090000Y-128270000D03*
D11*
X212090000Y-135890000D03*
D12*
X162560000Y-128270000D03*
D11*
X162560000Y-135890000D03*
D12*
X212090000Y-78740000D03*
D11*
X212090000Y-86360000D03*
D12*
X238760000Y-130175000D03*
D11*
X238760000Y-122555000D03*
D12*
X189230000Y-130175000D03*
D11*
X189230000Y-122555000D03*
D12*
X238760000Y-80645000D03*
D11*
X238760000Y-73025000D03*
X208280000Y-128270000D03*
D12*
X208280000Y-135890000D03*
D11*
X158750000Y-128270000D03*
D12*
X158750000Y-135890000D03*
D11*
X208280000Y-78740000D03*
D12*
X208280000Y-86360000D03*
X222377000Y-146303999D03*
D15*
X225877000Y-146303999D03*
D12*
X172847000Y-146303999D03*
D15*
X176347000Y-146303999D03*
D12*
X222377000Y-96773999D03*
D15*
X225877000Y-96773999D03*
D18*
X207645001Y-140335000D03*
X200025001Y-140335000D03*
D17*
X205105001Y-140335000D03*
X202565001Y-140335000D03*
D18*
X158115001Y-140335000D03*
X150495001Y-140335000D03*
D17*
X155575001Y-140335000D03*
X153035001Y-140335000D03*
D18*
X207645001Y-90805000D03*
X200025001Y-90805000D03*
D17*
X205105001Y-90805000D03*
X202565001Y-90805000D03*
D16*
X240665000Y-117475000D03*
X191135000Y-117475000D03*
X240665000Y-67945000D03*
D12*
X223520000Y-140335000D03*
X228520000Y-140335000D03*
X173990000Y-140335000D03*
X178990000Y-140335000D03*
X223520000Y-90805000D03*
X228520000Y-90805000D03*
X200660000Y-135890000D03*
D11*
X200660000Y-128270000D03*
D12*
X151130000Y-135890000D03*
D11*
X151130000Y-128270000D03*
D12*
X200660000Y-86360000D03*
D11*
X200660000Y-78740000D03*
D12*
X204470000Y-153035000D03*
D11*
X204470000Y-145415000D03*
D12*
X154940000Y-153035000D03*
D11*
X154940000Y-145415000D03*
D12*
X204470000Y-103505000D03*
D11*
X204470000Y-95885000D03*
D16*
X198755000Y-117475000D03*
X149225000Y-117475000D03*
X198755000Y-67945000D03*
D12*
X235585000Y-144907000D03*
D11*
X235585000Y-137287000D03*
D12*
X186055000Y-144907000D03*
D11*
X186055000Y-137287000D03*
D12*
X235585000Y-95377000D03*
D11*
X235585000Y-87757000D03*
D12*
X207010000Y-121920000D03*
D11*
X199390000Y-121920000D03*
D12*
X157480000Y-121920000D03*
D11*
X149860000Y-121920000D03*
D12*
X207010000Y-72390000D03*
D11*
X199390000Y-72390000D03*
D14*
X239395000Y-154305000D03*
X239395000Y-151765000D03*
X239395000Y-149225000D03*
X239395000Y-146685000D03*
D13*
X239395000Y-144145000D03*
D14*
X189865000Y-154305000D03*
X189865000Y-151765000D03*
X189865000Y-149225000D03*
X189865000Y-146685000D03*
D13*
X189865000Y-144145000D03*
D14*
X239395000Y-104775000D03*
X239395000Y-102235000D03*
X239395000Y-99695000D03*
X239395000Y-97155000D03*
D13*
X239395000Y-94615000D03*
D18*
X220980000Y-157480000D03*
X213360000Y-157480000D03*
D17*
X218440000Y-157480000D03*
X215900000Y-157480000D03*
D18*
X171450000Y-157480000D03*
X163830000Y-157480000D03*
D17*
X168910000Y-157480000D03*
X166370000Y-157480000D03*
D18*
X220980000Y-107950000D03*
X213360000Y-107950000D03*
D17*
X218440000Y-107950000D03*
X215900000Y-107950000D03*
D11*
X231140000Y-119380000D03*
D12*
X223520000Y-119380000D03*
D11*
X181610000Y-119380000D03*
D12*
X173990000Y-119380000D03*
D11*
X231140000Y-69850000D03*
D12*
X223520000Y-69850000D03*
D19*
X220218001Y-123750000D03*
D20*
X217678001Y-123750000D03*
D19*
X170688001Y-123750000D03*
D20*
X168148001Y-123750000D03*
D19*
X220218001Y-74220000D03*
D20*
X217678001Y-74220000D03*
D21*
X228655000Y-158750000D03*
X224155000Y-158750000D03*
X228655000Y-152250000D03*
X224155000Y-152250000D03*
X179125000Y-158750000D03*
X174625000Y-158750000D03*
X179125000Y-152250000D03*
X174625000Y-152250000D03*
X228655000Y-109220000D03*
X224155000Y-109220000D03*
X228655000Y-102720000D03*
X224155000Y-102720000D03*
D12*
X231140000Y-126365000D03*
D11*
X223520000Y-126365000D03*
D12*
X181610000Y-126365000D03*
D11*
X173990000Y-126365000D03*
D12*
X231140000Y-76835000D03*
D11*
X223520000Y-76835000D03*
D12*
X208280000Y-153035000D03*
D11*
X208280000Y-145415000D03*
D12*
X158750000Y-153035000D03*
D11*
X158750000Y-145415000D03*
D12*
X208280000Y-103505000D03*
D11*
X208280000Y-95885000D03*
X204470000Y-128270000D03*
D12*
X204470000Y-135890000D03*
D11*
X154940000Y-128270000D03*
D12*
X154940000Y-135890000D03*
D11*
X204470000Y-78740000D03*
D12*
X204470000Y-86360000D03*
D11*
X223520000Y-123190000D03*
D12*
X231140000Y-123190000D03*
D11*
X173990000Y-123190000D03*
D12*
X181610000Y-123190000D03*
D11*
X223520000Y-73660000D03*
D12*
X231140000Y-73660000D03*
X215900000Y-153035000D03*
D11*
X215900000Y-145415000D03*
D12*
X166370000Y-153035000D03*
D11*
X166370000Y-145415000D03*
D12*
X215900000Y-103505000D03*
D11*
X215900000Y-95885000D03*
X231774999Y-144907000D03*
D12*
X231774999Y-137287000D03*
D11*
X182244999Y-144907000D03*
D12*
X182244999Y-137287000D03*
D11*
X231774999Y-95377000D03*
D12*
X231774999Y-87757000D03*
D11*
X212089999Y-153035000D03*
D12*
X212089999Y-145415000D03*
D11*
X162559999Y-153035000D03*
D12*
X162559999Y-145415000D03*
D11*
X212089999Y-103505000D03*
D12*
X212089999Y-95885000D03*
D14*
X235839000Y-158115000D03*
D13*
X233299000Y-158115000D03*
D14*
X186309000Y-158115000D03*
D13*
X183769000Y-158115000D03*
D14*
X235839000Y-108585000D03*
D13*
X233299000Y-108585000D03*
D12*
X234315000Y-134667000D03*
X234315000Y-129667000D03*
X184785000Y-134667000D03*
X184785000Y-129667000D03*
X234315000Y-85137000D03*
X234315000Y-80137000D03*
X238760000Y-140970000D03*
D11*
X238760000Y-133350000D03*
D12*
X189230000Y-140970000D03*
D11*
X189230000Y-133350000D03*
D12*
X238760000Y-91440000D03*
D11*
X238760000Y-83820000D03*
D13*
X208280000Y-118745001D03*
D14*
X205740000Y-118745001D03*
X203200000Y-118745001D03*
D13*
X158750000Y-118745001D03*
D14*
X156210000Y-118745001D03*
X153670000Y-118745001D03*
D13*
X208280000Y-69215001D03*
D14*
X205740000Y-69215001D03*
X203200000Y-69215001D03*
D16*
X240665000Y-159385000D03*
X191135000Y-159385000D03*
X240665000Y-109855000D03*
D18*
X233680000Y-155067000D03*
X233680000Y-147447000D03*
D17*
X233680000Y-152527000D03*
X233680000Y-149987000D03*
D18*
X184150000Y-155067000D03*
X184150000Y-147447000D03*
D17*
X184150000Y-152527000D03*
X184150000Y-149987000D03*
D18*
X233680000Y-105537000D03*
X233680000Y-97917000D03*
D17*
X233680000Y-102997000D03*
X233680000Y-100457000D03*
D18*
X218440000Y-140335000D03*
X210820000Y-140335000D03*
D17*
X215900000Y-140335000D03*
X213360000Y-140335000D03*
D18*
X168910000Y-140335000D03*
X161290000Y-140335000D03*
D17*
X166370000Y-140335000D03*
X163830000Y-140335000D03*
D18*
X218440000Y-90805000D03*
X210820000Y-90805000D03*
D17*
X215900000Y-90805000D03*
X213360000Y-90805000D03*
X163830000Y-90805000D03*
X166370000Y-90805000D03*
D18*
X161290000Y-90805000D03*
X168910000Y-90805000D03*
D17*
X184150000Y-100457000D03*
X184150000Y-102997000D03*
D18*
X184150000Y-97917000D03*
X184150000Y-105537000D03*
D16*
X191135000Y-109855000D03*
D15*
X161449000Y-74220000D03*
D12*
X163449000Y-74220000D03*
D13*
X189865000Y-94615000D03*
D14*
X189865000Y-97155000D03*
X189865000Y-99695000D03*
X189865000Y-102235000D03*
X189865000Y-104775000D03*
D12*
X184785000Y-80137000D03*
X184785000Y-85137000D03*
D11*
X189230000Y-73025000D03*
D12*
X189230000Y-80645000D03*
X151129999Y-103505000D03*
D11*
X151129999Y-95885000D03*
D14*
X164465000Y-69215000D03*
X167005000Y-69215000D03*
D13*
X169545000Y-69215000D03*
D20*
X168148001Y-74220000D03*
D19*
X170688001Y-74220000D03*
D16*
X149225000Y-109855000D03*
D15*
X179070000Y-80010000D03*
D11*
X171450000Y-87630000D03*
X176530000Y-80010000D03*
X173990000Y-87630000D03*
X173990000Y-80010000D03*
X176530000Y-87630000D03*
X171450000Y-80010000D03*
X179070000Y-87630000D03*
D16*
X191135000Y-67945000D03*
D17*
X153035001Y-90805000D03*
X155575001Y-90805000D03*
D18*
X150495001Y-90805000D03*
X158115001Y-90805000D03*
D21*
X174625000Y-102720000D03*
X179125000Y-102720000D03*
X174625000Y-109220000D03*
X179125000Y-109220000D03*
D11*
X151130000Y-78740000D03*
D12*
X151130000Y-86360000D03*
X181610000Y-73660000D03*
D11*
X173990000Y-73660000D03*
D18*
X161163000Y-107950000D03*
X153543000Y-107950000D03*
D17*
X158623000Y-107950000D03*
X156083000Y-107950000D03*
D12*
X184785000Y-77470000D03*
D11*
X184785000Y-69850000D03*
X173990000Y-76835000D03*
D12*
X181610000Y-76835000D03*
X149860000Y-75565000D03*
D11*
X157480000Y-75565000D03*
D12*
X173990000Y-69850000D03*
D11*
X181610000Y-69850000D03*
D14*
X153670000Y-69215001D03*
X156210000Y-69215001D03*
D13*
X158750000Y-69215001D03*
D12*
X178990000Y-90805000D03*
X173990000Y-90805000D03*
X154940000Y-86360000D03*
D11*
X154940000Y-78740000D03*
D12*
X162559999Y-95885000D03*
D11*
X162559999Y-103505000D03*
D12*
X166370000Y-86360000D03*
D11*
X166370000Y-78740000D03*
D12*
X158750000Y-86360000D03*
D11*
X158750000Y-78740000D03*
X149860000Y-72390000D03*
D12*
X157480000Y-72390000D03*
D11*
X189230000Y-83820000D03*
D12*
X189230000Y-91440000D03*
D11*
X158750000Y-95885000D03*
D12*
X158750000Y-103505000D03*
D11*
X166370000Y-95885000D03*
D12*
X166370000Y-103505000D03*
D16*
X149225000Y-67945000D03*
D11*
X154940000Y-95885000D03*
D12*
X154940000Y-103505000D03*
D17*
X166370000Y-107950000D03*
X168910000Y-107950000D03*
D18*
X163830000Y-107950000D03*
X171450000Y-107950000D03*
D11*
X162560000Y-86360000D03*
D12*
X162560000Y-78740000D03*
D15*
X176347000Y-96773999D03*
D12*
X172847000Y-96773999D03*
D11*
X186055000Y-87757000D03*
D12*
X186055000Y-95377000D03*
X182244999Y-87757000D03*
D11*
X182244999Y-95377000D03*
D13*
X183769000Y-108585000D03*
D14*
X186309000Y-108585000D03*
M02*
