M48
; DRILL file {KiCad 5.1.5-52549c5~84~ubuntu18.04.1} date Tue 07 Jul 2020 10:00:27 AM JST
; FORMAT={-:-/ absolute / metric / decimal}
; #@! TF.CreationDate,2020-07-07T10:00:27+09:00
; #@! TF.GenerationSoftware,Kicad,Pcbnew,5.1.5-52549c5~84~ubuntu18.04.1
FMAT,2
METRIC
T1C0.400
T2C0.800
T3C0.900
T4C1.000
T5C1.100
T6C3.000
%
G90
G05
T1
X147.955Y-90.805
X147.955Y-140.335
X148.59Y-73.66
X148.59Y-123.19
X149.225Y-106.045
X149.225Y-155.575
X151.13Y-80.645
X151.13Y-84.455
X151.13Y-130.175
X151.13Y-133.985
X151.13Y-97.79
X151.13Y-101.6
X151.13Y-147.32
X151.13Y-151.13
X151.765Y-72.39
X151.765Y-75.565
X151.765Y-121.92
X151.765Y-125.095
X154.94Y-80.645
X154.94Y-84.455
X154.94Y-97.79
X154.94Y-101.6
X154.94Y-130.175
X154.94Y-133.985
X154.94Y-147.32
X154.94Y-151.13
X155.575Y-72.39
X155.575Y-75.565
X155.575Y-121.92
X155.575Y-125.095
X158.75Y-84.455
X158.75Y-101.6
X158.75Y-133.985
X158.75Y-151.13
X161.925Y-69.469
X161.925Y-118.999
X162.56Y-80.645
X162.56Y-84.455
X162.56Y-97.79
X162.56Y-101.6
X162.56Y-130.175
X162.56Y-133.985
X162.56Y-147.32
X162.56Y-151.13
X164.465Y-82.169
X164.465Y-131.699
X165.735Y-74.295
X165.735Y-123.825
X166.37Y-80.645
X166.37Y-97.79
X166.37Y-101.6
X166.37Y-130.175
X166.37Y-147.32
X166.37Y-151.13
X168.91Y-96.52
X168.91Y-146.05
X169.545Y-80.645
X169.545Y-130.175
X170.815Y-83.439
X170.815Y-85.979
X170.815Y-102.87
X170.815Y-132.969
X170.815Y-135.509
X170.815Y-152.4
X172.085Y-69.469
X172.085Y-118.999
X174.371Y-85.979
X174.371Y-135.509
X175.641Y-105.791
X175.641Y-155.321
X175.895Y-69.85
X175.895Y-73.66
X175.895Y-76.835
X175.895Y-119.38
X175.895Y-123.19
X175.895Y-126.365
X176.53Y-83.439
X176.53Y-132.969
X178.943Y-81.915
X178.943Y-131.445
X179.07Y-85.979
X179.07Y-135.509
X179.705Y-69.85
X179.705Y-73.66
X179.705Y-76.835
X179.705Y-119.38
X179.705Y-123.19
X179.705Y-126.365
X181.61Y-83.185
X181.61Y-132.715
X181.737Y-98.933
X181.737Y-148.463
X184.15Y-93.345
X184.15Y-142.875
X184.785Y-75.565
X184.785Y-125.095
X186.055Y-90.17
X186.055Y-139.7
X186.309Y-97.409
X186.309Y-146.939
X187.325Y-104.521
X187.325Y-154.051
X189.23Y-74.93
X189.23Y-78.74
X189.23Y-85.725
X189.23Y-89.535
X189.23Y-124.46
X189.23Y-128.27
X189.23Y-135.255
X189.23Y-139.065
X197.485Y-90.805
X197.485Y-140.335
X198.12Y-73.66
X198.12Y-123.19
X198.755Y-106.045
X198.755Y-155.575
X200.66Y-80.645
X200.66Y-84.455
X200.66Y-130.175
X200.66Y-133.985
X200.66Y-97.79
X200.66Y-101.6
X200.66Y-147.32
X200.66Y-151.13
X201.295Y-72.39
X201.295Y-75.565
X201.295Y-121.92
X201.295Y-125.095
X204.47Y-80.645
X204.47Y-84.455
X204.47Y-97.79
X204.47Y-101.6
X204.47Y-130.175
X204.47Y-133.985
X204.47Y-147.32
X204.47Y-151.13
X205.105Y-72.39
X205.105Y-75.565
X205.105Y-121.92
X205.105Y-125.095
X208.28Y-84.455
X208.28Y-101.6
X208.28Y-133.985
X208.28Y-151.13
X211.455Y-69.469
X211.455Y-118.999
X212.09Y-80.645
X212.09Y-84.455
X212.09Y-97.79
X212.09Y-101.6
X212.09Y-130.175
X212.09Y-133.985
X212.09Y-147.32
X212.09Y-151.13
X213.995Y-82.169
X213.995Y-131.699
X215.265Y-74.295
X215.265Y-123.825
X215.9Y-80.645
X215.9Y-97.79
X215.9Y-101.6
X215.9Y-130.175
X215.9Y-147.32
X215.9Y-151.13
X218.44Y-96.52
X218.44Y-146.05
X219.075Y-80.645
X219.075Y-130.175
X220.345Y-83.439
X220.345Y-85.979
X220.345Y-102.87
X220.345Y-132.969
X220.345Y-135.509
X220.345Y-152.4
X221.615Y-69.469
X221.615Y-118.999
X223.901Y-85.979
X223.901Y-135.509
X225.171Y-105.791
X225.171Y-155.321
X225.425Y-69.85
X225.425Y-73.66
X225.425Y-76.835
X225.425Y-119.38
X225.425Y-123.19
X225.425Y-126.365
X226.06Y-83.439
X226.06Y-132.969
X228.473Y-81.915
X228.473Y-131.445
X228.6Y-85.979
X228.6Y-135.509
X229.235Y-69.85
X229.235Y-73.66
X229.235Y-76.835
X229.235Y-119.38
X229.235Y-123.19
X229.235Y-126.365
X231.14Y-83.185
X231.14Y-132.715
X231.267Y-98.933
X231.267Y-148.463
X233.68Y-93.345
X233.68Y-142.875
X234.315Y-75.565
X234.315Y-125.095
X235.585Y-90.17
X235.585Y-139.7
X235.839Y-97.409
X235.839Y-146.939
X236.855Y-104.521
X236.855Y-154.051
X238.76Y-74.93
X238.76Y-78.74
X238.76Y-85.725
X238.76Y-89.535
X238.76Y-124.46
X238.76Y-128.27
X238.76Y-135.255
X238.76Y-139.065
T2
X162.56Y-145.415
X162.56Y-153.035
X150.495Y-90.805
X153.035Y-90.805
X155.575Y-90.805
X158.115Y-90.805
X231.775Y-87.757
X231.775Y-95.377
X153.543Y-157.48
X156.083Y-157.48
X158.623Y-157.48
X161.163Y-157.48
X234.315Y-119.38
X234.315Y-127.0
X212.09Y-95.885
X212.09Y-103.505
X204.47Y-78.74
X204.47Y-86.36
X238.76Y-83.82
X238.76Y-91.44
X149.86Y-72.39
X157.48Y-72.39
X200.66Y-78.74
X200.66Y-86.36
X166.37Y-145.415
X166.37Y-153.035
X210.82Y-140.335
X213.36Y-140.335
X215.9Y-140.335
X218.44Y-140.335
X223.52Y-126.365
X231.14Y-126.365
X223.52Y-119.38
X231.14Y-119.38
X173.99Y-73.66
X181.61Y-73.66
X200.66Y-95.885
X200.66Y-103.505
X151.13Y-95.885
X151.13Y-103.505
X161.29Y-90.805
X163.83Y-90.805
X166.37Y-90.805
X168.91Y-90.805
X184.785Y-119.38
X184.785Y-127.0
X220.98Y-80.01
X220.98Y-87.63
X223.52Y-80.01
X223.52Y-87.63
X226.06Y-80.01
X226.06Y-87.63
X228.6Y-80.01
X228.6Y-87.63
X166.37Y-95.885
X166.37Y-103.505
X173.99Y-140.335
X178.99Y-140.335
X223.52Y-69.85
X231.14Y-69.85
X233.68Y-97.917
X233.68Y-100.457
X233.68Y-102.997
X233.68Y-105.537
X208.28Y-128.27
X208.28Y-135.89
X186.055Y-137.287
X186.055Y-144.907
X162.56Y-95.885
X162.56Y-103.505
X151.13Y-78.74
X151.13Y-86.36
X182.245Y-87.757
X182.245Y-95.377
X158.75Y-78.74
X158.75Y-86.36
X149.86Y-125.095
X157.48Y-125.095
X234.315Y-80.137
X234.315Y-85.137
X150.495Y-140.335
X153.035Y-140.335
X155.575Y-140.335
X158.115Y-140.335
X220.98Y-129.54
X220.98Y-137.16
X223.52Y-129.54
X223.52Y-137.16
X226.06Y-129.54
X226.06Y-137.16
X228.6Y-129.54
X228.6Y-137.16
X199.39Y-72.39
X207.01Y-72.39
X234.315Y-129.667
X234.315Y-134.667
X199.39Y-125.095
X207.01Y-125.095
X223.52Y-90.805
X228.52Y-90.805
X158.75Y-145.415
X158.75Y-153.035
X208.28Y-78.74
X208.28Y-86.36
X173.99Y-123.19
X181.61Y-123.19
X163.83Y-157.48
X166.37Y-157.48
X168.91Y-157.48
X171.45Y-157.48
X186.055Y-87.757
X186.055Y-95.377
X215.9Y-128.27
X215.9Y-135.89
X151.13Y-145.415
X151.13Y-153.035
X154.94Y-78.74
X154.94Y-86.36
X154.94Y-95.885
X154.94Y-103.505
X233.68Y-147.447
X233.68Y-149.987
X233.68Y-152.527
X233.68Y-155.067
X222.377Y-96.774
X225.877Y-96.774
X173.99Y-126.365
X181.61Y-126.365
X171.45Y-129.54
X171.45Y-137.16
X173.99Y-129.54
X173.99Y-137.16
X176.53Y-129.54
X176.53Y-137.16
X179.07Y-129.54
X179.07Y-137.16
X204.47Y-95.885
X204.47Y-103.505
X161.29Y-140.335
X163.83Y-140.335
X166.37Y-140.335
X168.91Y-140.335
X223.52Y-73.66
X231.14Y-73.66
X163.83Y-107.95
X166.37Y-107.95
X168.91Y-107.95
X171.45Y-107.95
X189.23Y-83.82
X189.23Y-91.44
X238.76Y-73.025
X238.76Y-80.645
X171.45Y-80.01
X171.45Y-87.63
X173.99Y-80.01
X173.99Y-87.63
X176.53Y-80.01
X176.53Y-87.63
X179.07Y-80.01
X179.07Y-87.63
X222.377Y-146.304
X225.877Y-146.304
X215.9Y-145.415
X215.9Y-153.035
X200.66Y-128.27
X200.66Y-135.89
X223.52Y-76.835
X231.14Y-76.835
X158.75Y-128.27
X158.75Y-135.89
X213.36Y-107.95
X215.9Y-107.95
X218.44Y-107.95
X220.98Y-107.95
X184.15Y-97.917
X184.15Y-100.457
X184.15Y-102.997
X184.15Y-105.537
X166.37Y-128.27
X166.37Y-135.89
X189.23Y-133.35
X189.23Y-140.97
X212.09Y-145.415
X212.09Y-153.035
X212.09Y-128.27
X212.09Y-135.89
X208.28Y-145.415
X208.28Y-153.035
X215.9Y-95.885
X215.9Y-103.505
X200.66Y-145.415
X200.66Y-153.035
X203.073Y-157.48
X205.613Y-157.48
X208.153Y-157.48
X210.693Y-157.48
X223.52Y-140.335
X228.52Y-140.335
X182.245Y-137.287
X182.245Y-144.907
X154.94Y-145.415
X154.94Y-153.035
X208.28Y-95.885
X208.28Y-103.505
X210.82Y-90.805
X213.36Y-90.805
X215.9Y-90.805
X218.44Y-90.805
X172.847Y-96.774
X176.347Y-96.774
X238.76Y-122.555
X238.76Y-130.175
X231.775Y-137.287
X231.775Y-144.907
X210.979Y-123.75
X212.979Y-123.75
X172.847Y-146.304
X176.347Y-146.304
X238.76Y-133.35
X238.76Y-140.97
X184.785Y-69.85
X184.785Y-77.47
X199.39Y-121.92
X207.01Y-121.92
X153.543Y-107.95
X156.083Y-107.95
X158.623Y-107.95
X161.163Y-107.95
X223.52Y-123.19
X231.14Y-123.19
X234.315Y-69.85
X234.315Y-77.47
X158.75Y-95.885
X158.75Y-103.505
X210.979Y-74.22
X212.979Y-74.22
X161.449Y-123.75
X163.449Y-123.75
X212.09Y-78.74
X212.09Y-86.36
X184.15Y-147.447
X184.15Y-149.987
X184.15Y-152.527
X184.15Y-155.067
X173.99Y-119.38
X181.61Y-119.38
X151.13Y-128.27
X151.13Y-135.89
X184.785Y-80.137
X184.785Y-85.137
X173.99Y-76.835
X181.61Y-76.835
X213.36Y-157.48
X215.9Y-157.48
X218.44Y-157.48
X220.98Y-157.48
X235.585Y-137.287
X235.585Y-144.907
X166.37Y-78.74
X166.37Y-86.36
X200.025Y-140.335
X202.565Y-140.335
X205.105Y-140.335
X207.645Y-140.335
X235.585Y-87.757
X235.585Y-95.377
X204.47Y-128.27
X204.47Y-135.89
X161.449Y-74.22
X163.449Y-74.22
X215.9Y-78.74
X215.9Y-86.36
X189.23Y-73.025
X189.23Y-80.645
X173.99Y-69.85
X181.61Y-69.85
X162.56Y-128.27
X162.56Y-135.89
X204.47Y-145.415
X204.47Y-153.035
X200.025Y-90.805
X202.565Y-90.805
X205.105Y-90.805
X207.645Y-90.805
X162.56Y-78.74
X162.56Y-86.36
X173.99Y-90.805
X178.99Y-90.805
X154.94Y-128.27
X154.94Y-135.89
X184.785Y-129.667
X184.785Y-134.667
X189.23Y-122.555
X189.23Y-130.175
X203.073Y-107.95
X205.613Y-107.95
X208.153Y-107.95
X210.693Y-107.95
X199.39Y-75.565
X207.01Y-75.565
X149.86Y-121.92
X157.48Y-121.92
X149.86Y-75.565
X157.48Y-75.565
T3
X168.148Y-74.22
X170.688Y-74.22
X217.678Y-74.22
X220.218Y-74.22
X168.148Y-123.75
X170.688Y-123.75
X217.678Y-123.75
X220.218Y-123.75
T4
X233.299Y-158.115
X235.839Y-158.115
X189.865Y-94.615
X189.865Y-97.155
X189.865Y-99.695
X189.865Y-102.235
X189.865Y-104.775
X213.995Y-69.215
X216.535Y-69.215
X219.075Y-69.215
X164.465Y-69.215
X167.005Y-69.215
X169.545Y-69.215
X233.299Y-108.585
X235.839Y-108.585
X164.465Y-118.745
X167.005Y-118.745
X169.545Y-118.745
X183.769Y-108.585
X186.309Y-108.585
X213.995Y-118.745
X216.535Y-118.745
X219.075Y-118.745
X189.865Y-144.145
X189.865Y-146.685
X189.865Y-149.225
X189.865Y-151.765
X189.865Y-154.305
X203.2Y-69.215
X205.74Y-69.215
X208.28Y-69.215
X183.769Y-158.115
X186.309Y-158.115
X153.67Y-118.745
X156.21Y-118.745
X158.75Y-118.745
X239.395Y-94.615
X239.395Y-97.155
X239.395Y-99.695
X239.395Y-102.235
X239.395Y-104.775
X153.67Y-69.215
X156.21Y-69.215
X158.75Y-69.215
X203.2Y-118.745
X205.74Y-118.745
X208.28Y-118.745
X239.395Y-144.145
X239.395Y-146.685
X239.395Y-149.225
X239.395Y-151.765
X239.395Y-154.305
T5
X224.155Y-152.25
X224.155Y-158.75
X228.655Y-152.25
X228.655Y-158.75
X224.155Y-102.72
X224.155Y-109.22
X228.655Y-102.72
X228.655Y-109.22
X174.625Y-152.25
X174.625Y-158.75
X179.125Y-152.25
X179.125Y-158.75
X174.625Y-102.72
X174.625Y-109.22
X179.125Y-102.72
X179.125Y-109.22
T6
X191.135Y-159.385
X240.665Y-117.475
X240.665Y-109.855
X240.665Y-67.945
X198.755Y-159.385
X191.135Y-117.475
X198.755Y-109.855
X149.225Y-67.945
X149.225Y-159.385
X198.755Y-117.475
X198.755Y-67.945
X149.225Y-117.475
X240.665Y-159.385
X191.135Y-67.945
X149.225Y-109.855
X191.135Y-109.855
T0
M30
