M48
; DRILL file {KiCad 5.1.5-52549c5~84~ubuntu18.04.1} date Tue 07 Jul 2020 10:07:03 AM JST
; FORMAT={-:-/ absolute / metric / decimal}
; #@! TF.CreationDate,2020-07-07T10:07:03+09:00
; #@! TF.GenerationSoftware,Kicad,Pcbnew,5.1.5-52549c5~84~ubuntu18.04.1
FMAT,2
METRIC
T1C0.400
T2C0.800
T3C0.900
T4C1.000
T5C1.100
T6C3.000
%
G90
G05
T1
X96.52Y-88.9
X96.52Y-138.43
X97.155Y-71.755
X97.155Y-121.285
X97.79Y-104.14
X97.79Y-153.67
X99.695Y-78.74
X99.695Y-82.55
X99.695Y-128.27
X99.695Y-132.08
X99.695Y-95.885
X99.695Y-99.695
X99.695Y-145.415
X99.695Y-149.225
X100.33Y-70.485
X100.33Y-73.66
X100.33Y-120.015
X100.33Y-123.19
X103.505Y-78.74
X103.505Y-82.55
X103.505Y-95.885
X103.505Y-99.695
X103.505Y-128.27
X103.505Y-132.08
X103.505Y-145.415
X103.505Y-149.225
X104.14Y-70.485
X104.14Y-73.66
X104.14Y-120.015
X104.14Y-123.19
X107.315Y-82.55
X107.315Y-132.08
X110.49Y-67.564
X110.49Y-117.094
X111.125Y-78.74
X111.125Y-82.55
X111.125Y-95.885
X111.125Y-128.27
X111.125Y-132.08
X111.125Y-145.415
X113.03Y-80.264
X113.03Y-129.794
X114.3Y-72.39
X114.3Y-121.92
X114.935Y-78.74
X114.935Y-95.885
X114.935Y-99.695
X114.935Y-128.27
X114.935Y-145.415
X114.935Y-149.225
X117.475Y-94.615
X117.475Y-144.145
X118.11Y-78.74
X118.11Y-128.27
X119.38Y-81.534
X119.38Y-84.074
X119.38Y-100.965
X119.38Y-131.064
X119.38Y-133.604
X119.38Y-150.495
X120.65Y-67.564
X120.65Y-117.094
X122.936Y-84.074
X122.936Y-133.604
X124.206Y-103.886
X124.206Y-153.416
X124.46Y-67.945
X124.46Y-71.755
X124.46Y-74.93
X124.46Y-117.475
X124.46Y-121.285
X124.46Y-124.46
X127.508Y-80.01
X127.508Y-129.54
X127.635Y-84.074
X127.635Y-133.604
X128.27Y-67.945
X128.27Y-71.755
X128.27Y-74.93
X128.27Y-117.475
X128.27Y-121.285
X128.27Y-124.46
X130.175Y-81.28
X130.175Y-130.81
X130.302Y-97.028
X130.302Y-146.558
X132.715Y-91.44
X132.715Y-140.97
X133.35Y-73.66
X133.35Y-123.19
X134.62Y-88.265
X134.62Y-137.795
X134.874Y-95.504
X134.874Y-145.034
X135.89Y-102.616
X135.89Y-152.146
X137.795Y-73.025
X137.795Y-76.835
X137.795Y-83.82
X137.795Y-87.63
X137.795Y-122.555
X137.795Y-126.365
X137.795Y-133.35
X137.795Y-137.16
X142.24Y-81.28
X142.24Y-130.81
X143.51Y-76.2
X143.51Y-125.73
X144.78Y-66.04
X144.78Y-115.57
X147.32Y-71.12
X147.32Y-81.28
X147.32Y-107.95
X147.32Y-120.65
X147.32Y-130.81
X147.32Y-157.48
X148.59Y-95.25
X148.59Y-144.78
X153.67Y-66.04
X153.67Y-115.57
X154.94Y-73.66
X154.94Y-77.47
X154.94Y-123.19
X154.94Y-127.0
X156.21Y-97.79
X156.21Y-147.32
X157.48Y-92.71
X157.48Y-142.24
X163.83Y-68.58
X163.83Y-78.74
X163.83Y-90.17
X163.83Y-100.33
X163.83Y-109.22
X163.83Y-118.11
X163.83Y-128.27
X163.83Y-139.7
X163.83Y-149.86
X163.83Y-158.75
X171.45Y-68.58
X171.45Y-78.74
X171.45Y-90.17
X171.45Y-100.33
X171.45Y-107.95
X171.45Y-118.11
X171.45Y-128.27
X171.45Y-139.7
X171.45Y-149.86
X171.45Y-157.48
X181.61Y-71.12
X181.61Y-87.63
X181.61Y-102.87
X181.61Y-120.65
X181.61Y-137.16
X181.61Y-152.4
T2
X122.555Y-124.46
X130.175Y-124.46
X133.35Y-78.232
X133.35Y-83.232
X120.015Y-78.105
X120.015Y-85.725
X122.555Y-78.105
X122.555Y-85.725
X125.095Y-78.105
X125.095Y-85.725
X127.635Y-78.105
X127.635Y-85.725
X122.555Y-138.43
X127.555Y-138.43
X114.935Y-143.51
X114.935Y-151.13
X122.555Y-88.9
X127.555Y-88.9
X132.715Y-96.012
X132.715Y-98.552
X132.715Y-101.092
X132.715Y-103.632
X160.02Y-66.675
X160.02Y-69.215
X160.02Y-71.755
X160.02Y-74.295
X160.02Y-76.835
X160.02Y-79.375
X160.02Y-81.915
X160.02Y-84.455
X160.02Y-86.995
X160.02Y-89.535
X160.02Y-92.075
X160.02Y-94.615
X160.02Y-97.155
X160.02Y-99.695
X160.02Y-102.235
X175.26Y-66.675
X175.26Y-69.215
X175.26Y-71.755
X175.26Y-74.295
X175.26Y-76.835
X175.26Y-79.375
X175.26Y-81.915
X175.26Y-84.455
X175.26Y-86.995
X175.26Y-89.535
X175.26Y-92.075
X175.26Y-94.615
X175.26Y-97.155
X175.26Y-99.695
X175.26Y-102.235
X111.125Y-126.365
X111.125Y-133.985
X103.505Y-93.98
X103.505Y-101.6
X114.935Y-76.835
X114.935Y-84.455
X98.425Y-73.66
X106.045Y-73.66
X134.62Y-135.382
X134.62Y-143.002
X110.014Y-72.315
X112.014Y-72.315
X112.395Y-155.575
X114.935Y-155.575
X117.475Y-155.575
X120.015Y-155.575
X114.935Y-93.98
X114.935Y-101.6
X120.015Y-127.635
X120.015Y-135.255
X122.555Y-127.635
X122.555Y-135.255
X125.095Y-127.635
X125.095Y-135.255
X127.635Y-127.635
X127.635Y-135.255
X121.412Y-94.869
X124.912Y-94.869
X102.108Y-155.575
X104.648Y-155.575
X107.188Y-155.575
X109.728Y-155.575
X99.695Y-76.835
X99.695Y-84.455
X103.505Y-76.835
X103.505Y-84.455
X137.795Y-71.12
X137.795Y-78.74
X98.425Y-70.485
X106.045Y-70.485
X145.415Y-85.09
X145.415Y-87.59
X137.795Y-120.65
X137.795Y-128.27
X122.555Y-117.475
X130.175Y-117.475
X133.35Y-127.762
X133.35Y-132.762
X103.505Y-126.365
X103.505Y-133.985
X133.35Y-117.475
X133.35Y-125.095
X107.315Y-93.98
X107.315Y-101.6
X122.555Y-121.285
X130.175Y-121.285
X122.555Y-74.93
X130.175Y-74.93
X121.412Y-144.399
X124.912Y-144.399
X145.415Y-134.62
X145.415Y-137.12
X98.425Y-123.19
X106.045Y-123.19
X99.06Y-138.43
X101.6Y-138.43
X104.14Y-138.43
X106.68Y-138.43
X102.108Y-106.045
X104.648Y-106.045
X107.188Y-106.045
X109.728Y-106.045
X137.795Y-131.445
X137.795Y-139.065
X134.62Y-85.852
X134.62Y-93.472
X112.395Y-106.045
X114.935Y-106.045
X117.475Y-106.045
X120.015Y-106.045
X110.014Y-121.845
X112.014Y-121.845
X99.695Y-93.98
X99.695Y-101.6
X107.315Y-143.51
X107.315Y-151.13
X109.855Y-88.9
X112.395Y-88.9
X114.935Y-88.9
X117.475Y-88.9
X130.81Y-135.382
X130.81Y-143.002
X137.795Y-81.915
X137.795Y-89.535
X130.81Y-85.852
X130.81Y-93.472
X122.555Y-71.755
X130.175Y-71.755
X99.06Y-88.9
X101.6Y-88.9
X104.14Y-88.9
X106.68Y-88.9
X98.425Y-120.015
X106.045Y-120.015
X103.505Y-143.51
X103.505Y-151.13
X109.855Y-138.43
X112.395Y-138.43
X114.935Y-138.43
X117.475Y-138.43
X160.02Y-116.205
X160.02Y-118.745
X160.02Y-121.285
X160.02Y-123.825
X160.02Y-126.365
X160.02Y-128.905
X160.02Y-131.445
X160.02Y-133.985
X160.02Y-136.525
X160.02Y-139.065
X160.02Y-141.605
X160.02Y-144.145
X160.02Y-146.685
X160.02Y-149.225
X160.02Y-151.765
X175.26Y-116.205
X175.26Y-118.745
X175.26Y-121.285
X175.26Y-123.825
X175.26Y-126.365
X175.26Y-128.905
X175.26Y-131.445
X175.26Y-133.985
X175.26Y-136.525
X175.26Y-139.065
X175.26Y-141.605
X175.26Y-144.145
X175.26Y-146.685
X175.26Y-149.225
X175.26Y-151.765
X107.315Y-76.835
X107.315Y-84.455
X133.35Y-67.945
X133.35Y-75.565
X132.715Y-145.542
X132.715Y-148.082
X132.715Y-150.622
X132.715Y-153.162
X99.695Y-126.365
X99.695Y-133.985
X122.555Y-67.945
X130.175Y-67.945
X107.315Y-126.365
X107.315Y-133.985
X111.125Y-93.98
X111.125Y-101.6
X111.125Y-143.51
X111.125Y-151.13
X99.695Y-143.51
X99.695Y-151.13
X111.125Y-76.835
X111.125Y-84.455
X114.935Y-126.365
X114.935Y-133.985
T3
X116.713Y-72.315
X119.253Y-72.315
X116.713Y-121.845
X119.253Y-121.845
T4
X113.03Y-67.31
X115.57Y-67.31
X118.11Y-67.31
X154.94Y-81.28
X154.94Y-83.82
X154.94Y-86.36
X154.94Y-88.9
X154.94Y-130.81
X154.94Y-133.35
X154.94Y-135.89
X154.94Y-138.43
X102.235Y-116.84
X104.775Y-116.84
X107.315Y-116.84
X138.43Y-92.71
X138.43Y-95.25
X138.43Y-97.79
X138.43Y-100.33
X138.43Y-102.87
X138.43Y-142.24
X138.43Y-144.78
X138.43Y-147.32
X138.43Y-149.86
X138.43Y-152.4
X132.334Y-106.68
X134.874Y-106.68
X149.86Y-116.86
X149.86Y-124.46
X132.334Y-156.21
X134.874Y-156.21
X102.235Y-67.31
X104.775Y-67.31
X107.315Y-67.31
X149.86Y-67.33
X149.86Y-74.93
X113.03Y-116.84
X115.57Y-116.84
X118.11Y-116.84
T5
X123.19Y-100.815
X123.19Y-107.315
X127.69Y-100.815
X127.69Y-107.315
X150.44Y-100.815
X150.44Y-107.315
X154.94Y-100.815
X154.94Y-107.315
X123.19Y-150.345
X123.19Y-156.845
X127.69Y-150.345
X127.69Y-156.845
X150.44Y-150.345
X150.44Y-156.845
X154.94Y-150.345
X154.94Y-156.845
T6
X139.7Y-115.57
X97.79Y-157.48
X97.79Y-66.04
X97.79Y-107.95
X139.7Y-66.04
X139.7Y-157.48
X97.79Y-115.57
X180.34Y-66.04
X180.34Y-107.95
X139.7Y-107.95
X180.34Y-115.57
X180.34Y-157.48
T0
M30
