G04 #@! TF.GenerationSoftware,KiCad,Pcbnew,5.1.5-52549c5~84~ubuntu18.04.1*
G04 #@! TF.CreationDate,2020-06-11T05:49:29+09:00*
G04 #@! TF.ProjectId,PulseOximeterTHT_rev3,50756c73-654f-4786-996d-657465725448,rev?*
G04 #@! TF.SameCoordinates,Original*
G04 #@! TF.FileFunction,Legend,Bot*
G04 #@! TF.FilePolarity,Positive*
%FSLAX46Y46*%
G04 Gerber Fmt 4.6, Leading zero omitted, Abs format (unit mm)*
G04 Created by KiCad (PCBNEW 5.1.5-52549c5~84~ubuntu18.04.1) date 2020-06-11 05:49:29*
%MOMM*%
%LPD*%
G04 APERTURE LIST*
%ADD10C,0.150000*%
%ADD11C,0.120000*%
%ADD12R,1.152000X1.602000*%
%ADD13O,1.152000X1.602000*%
%ADD14C,1.902000*%
%ADD15R,1.902000X1.902000*%
%ADD16O,1.702000X1.702000*%
%ADD17C,1.702000*%
%ADD18R,1.802000X1.802000*%
%ADD19O,1.802000X1.802000*%
G04 APERTURE END LIST*
D10*
X208619285Y-126303571D02*
X208285952Y-126303571D01*
X208143095Y-126827380D02*
X208619285Y-126827380D01*
X208619285Y-125827380D01*
X208143095Y-125827380D01*
X184619285Y-126303571D02*
X184285952Y-126303571D01*
X184143095Y-126827380D02*
X184619285Y-126827380D01*
X184619285Y-125827380D01*
X184143095Y-125827380D01*
X160619285Y-126303571D02*
X160285952Y-126303571D01*
X160143095Y-126827380D02*
X160619285Y-126827380D01*
X160619285Y-125827380D01*
X160143095Y-125827380D01*
X136619285Y-126303571D02*
X136285952Y-126303571D01*
X136143095Y-126827380D02*
X136619285Y-126827380D01*
X136619285Y-125827380D01*
X136143095Y-125827380D01*
X208619285Y-110303571D02*
X208285952Y-110303571D01*
X208143095Y-110827380D02*
X208619285Y-110827380D01*
X208619285Y-109827380D01*
X208143095Y-109827380D01*
X184619285Y-110303571D02*
X184285952Y-110303571D01*
X184143095Y-110827380D02*
X184619285Y-110827380D01*
X184619285Y-109827380D01*
X184143095Y-109827380D01*
X160619285Y-110303571D02*
X160285952Y-110303571D01*
X160143095Y-110827380D02*
X160619285Y-110827380D01*
X160619285Y-109827380D01*
X160143095Y-109827380D01*
X136619285Y-110303571D02*
X136285952Y-110303571D01*
X136143095Y-110827380D02*
X136619285Y-110827380D01*
X136619285Y-109827380D01*
X136143095Y-109827380D01*
X208619285Y-94303571D02*
X208285952Y-94303571D01*
X208143095Y-94827380D02*
X208619285Y-94827380D01*
X208619285Y-93827380D01*
X208143095Y-93827380D01*
X184619285Y-94303571D02*
X184285952Y-94303571D01*
X184143095Y-94827380D02*
X184619285Y-94827380D01*
X184619285Y-93827380D01*
X184143095Y-93827380D01*
X160619285Y-94303571D02*
X160285952Y-94303571D01*
X160143095Y-94827380D02*
X160619285Y-94827380D01*
X160619285Y-93827380D01*
X160143095Y-93827380D01*
X136619285Y-94303571D02*
X136285952Y-94303571D01*
X136143095Y-94827380D02*
X136619285Y-94827380D01*
X136619285Y-93827380D01*
X136143095Y-93827380D01*
X208619285Y-78303571D02*
X208285952Y-78303571D01*
X208143095Y-78827380D02*
X208619285Y-78827380D01*
X208619285Y-77827380D01*
X208143095Y-77827380D01*
X184619285Y-78303571D02*
X184285952Y-78303571D01*
X184143095Y-78827380D02*
X184619285Y-78827380D01*
X184619285Y-77827380D01*
X184143095Y-77827380D01*
X160619285Y-78303571D02*
X160285952Y-78303571D01*
X160143095Y-78827380D02*
X160619285Y-78827380D01*
X160619285Y-77827380D01*
X160143095Y-77827380D01*
X136619285Y-78303571D02*
X136285952Y-78303571D01*
X136143095Y-78827380D02*
X136619285Y-78827380D01*
X136619285Y-77827380D01*
X136143095Y-77827380D01*
X208619285Y-62303571D02*
X208285952Y-62303571D01*
X208143095Y-62827380D02*
X208619285Y-62827380D01*
X208619285Y-61827380D01*
X208143095Y-61827380D01*
X184619285Y-62303571D02*
X184285952Y-62303571D01*
X184143095Y-62827380D02*
X184619285Y-62827380D01*
X184619285Y-61827380D01*
X184143095Y-61827380D01*
X160619285Y-62303571D02*
X160285952Y-62303571D01*
X160143095Y-62827380D02*
X160619285Y-62827380D01*
X160619285Y-61827380D01*
X160143095Y-61827380D01*
X136619285Y-62303571D02*
X136285952Y-62303571D01*
X136143095Y-62827380D02*
X136619285Y-62827380D01*
X136619285Y-61827380D01*
X136143095Y-61827380D01*
X208619285Y-46303571D02*
X208285952Y-46303571D01*
X208143095Y-46827380D02*
X208619285Y-46827380D01*
X208619285Y-45827380D01*
X208143095Y-45827380D01*
X184619285Y-46303571D02*
X184285952Y-46303571D01*
X184143095Y-46827380D02*
X184619285Y-46827380D01*
X184619285Y-45827380D01*
X184143095Y-45827380D01*
X160619285Y-46303571D02*
X160285952Y-46303571D01*
X160143095Y-46827380D02*
X160619285Y-46827380D01*
X160619285Y-45827380D01*
X160143095Y-45827380D01*
X208095476Y-129732142D02*
X208143095Y-129779761D01*
X208285952Y-129827380D01*
X208381190Y-129827380D01*
X208524047Y-129779761D01*
X208619285Y-129684523D01*
X208666904Y-129589285D01*
X208714523Y-129398809D01*
X208714523Y-129255952D01*
X208666904Y-129065476D01*
X208619285Y-128970238D01*
X208524047Y-128875000D01*
X208381190Y-128827380D01*
X208285952Y-128827380D01*
X208143095Y-128875000D01*
X208095476Y-128922619D01*
X184095476Y-129732142D02*
X184143095Y-129779761D01*
X184285952Y-129827380D01*
X184381190Y-129827380D01*
X184524047Y-129779761D01*
X184619285Y-129684523D01*
X184666904Y-129589285D01*
X184714523Y-129398809D01*
X184714523Y-129255952D01*
X184666904Y-129065476D01*
X184619285Y-128970238D01*
X184524047Y-128875000D01*
X184381190Y-128827380D01*
X184285952Y-128827380D01*
X184143095Y-128875000D01*
X184095476Y-128922619D01*
X160095476Y-129732142D02*
X160143095Y-129779761D01*
X160285952Y-129827380D01*
X160381190Y-129827380D01*
X160524047Y-129779761D01*
X160619285Y-129684523D01*
X160666904Y-129589285D01*
X160714523Y-129398809D01*
X160714523Y-129255952D01*
X160666904Y-129065476D01*
X160619285Y-128970238D01*
X160524047Y-128875000D01*
X160381190Y-128827380D01*
X160285952Y-128827380D01*
X160143095Y-128875000D01*
X160095476Y-128922619D01*
X136095476Y-129732142D02*
X136143095Y-129779761D01*
X136285952Y-129827380D01*
X136381190Y-129827380D01*
X136524047Y-129779761D01*
X136619285Y-129684523D01*
X136666904Y-129589285D01*
X136714523Y-129398809D01*
X136714523Y-129255952D01*
X136666904Y-129065476D01*
X136619285Y-128970238D01*
X136524047Y-128875000D01*
X136381190Y-128827380D01*
X136285952Y-128827380D01*
X136143095Y-128875000D01*
X136095476Y-128922619D01*
X208095476Y-113732142D02*
X208143095Y-113779761D01*
X208285952Y-113827380D01*
X208381190Y-113827380D01*
X208524047Y-113779761D01*
X208619285Y-113684523D01*
X208666904Y-113589285D01*
X208714523Y-113398809D01*
X208714523Y-113255952D01*
X208666904Y-113065476D01*
X208619285Y-112970238D01*
X208524047Y-112875000D01*
X208381190Y-112827380D01*
X208285952Y-112827380D01*
X208143095Y-112875000D01*
X208095476Y-112922619D01*
X184095476Y-113732142D02*
X184143095Y-113779761D01*
X184285952Y-113827380D01*
X184381190Y-113827380D01*
X184524047Y-113779761D01*
X184619285Y-113684523D01*
X184666904Y-113589285D01*
X184714523Y-113398809D01*
X184714523Y-113255952D01*
X184666904Y-113065476D01*
X184619285Y-112970238D01*
X184524047Y-112875000D01*
X184381190Y-112827380D01*
X184285952Y-112827380D01*
X184143095Y-112875000D01*
X184095476Y-112922619D01*
X160095476Y-113732142D02*
X160143095Y-113779761D01*
X160285952Y-113827380D01*
X160381190Y-113827380D01*
X160524047Y-113779761D01*
X160619285Y-113684523D01*
X160666904Y-113589285D01*
X160714523Y-113398809D01*
X160714523Y-113255952D01*
X160666904Y-113065476D01*
X160619285Y-112970238D01*
X160524047Y-112875000D01*
X160381190Y-112827380D01*
X160285952Y-112827380D01*
X160143095Y-112875000D01*
X160095476Y-112922619D01*
X136095476Y-113732142D02*
X136143095Y-113779761D01*
X136285952Y-113827380D01*
X136381190Y-113827380D01*
X136524047Y-113779761D01*
X136619285Y-113684523D01*
X136666904Y-113589285D01*
X136714523Y-113398809D01*
X136714523Y-113255952D01*
X136666904Y-113065476D01*
X136619285Y-112970238D01*
X136524047Y-112875000D01*
X136381190Y-112827380D01*
X136285952Y-112827380D01*
X136143095Y-112875000D01*
X136095476Y-112922619D01*
X208095476Y-97732142D02*
X208143095Y-97779761D01*
X208285952Y-97827380D01*
X208381190Y-97827380D01*
X208524047Y-97779761D01*
X208619285Y-97684523D01*
X208666904Y-97589285D01*
X208714523Y-97398809D01*
X208714523Y-97255952D01*
X208666904Y-97065476D01*
X208619285Y-96970238D01*
X208524047Y-96875000D01*
X208381190Y-96827380D01*
X208285952Y-96827380D01*
X208143095Y-96875000D01*
X208095476Y-96922619D01*
X184095476Y-97732142D02*
X184143095Y-97779761D01*
X184285952Y-97827380D01*
X184381190Y-97827380D01*
X184524047Y-97779761D01*
X184619285Y-97684523D01*
X184666904Y-97589285D01*
X184714523Y-97398809D01*
X184714523Y-97255952D01*
X184666904Y-97065476D01*
X184619285Y-96970238D01*
X184524047Y-96875000D01*
X184381190Y-96827380D01*
X184285952Y-96827380D01*
X184143095Y-96875000D01*
X184095476Y-96922619D01*
X160095476Y-97732142D02*
X160143095Y-97779761D01*
X160285952Y-97827380D01*
X160381190Y-97827380D01*
X160524047Y-97779761D01*
X160619285Y-97684523D01*
X160666904Y-97589285D01*
X160714523Y-97398809D01*
X160714523Y-97255952D01*
X160666904Y-97065476D01*
X160619285Y-96970238D01*
X160524047Y-96875000D01*
X160381190Y-96827380D01*
X160285952Y-96827380D01*
X160143095Y-96875000D01*
X160095476Y-96922619D01*
X136095476Y-97732142D02*
X136143095Y-97779761D01*
X136285952Y-97827380D01*
X136381190Y-97827380D01*
X136524047Y-97779761D01*
X136619285Y-97684523D01*
X136666904Y-97589285D01*
X136714523Y-97398809D01*
X136714523Y-97255952D01*
X136666904Y-97065476D01*
X136619285Y-96970238D01*
X136524047Y-96875000D01*
X136381190Y-96827380D01*
X136285952Y-96827380D01*
X136143095Y-96875000D01*
X136095476Y-96922619D01*
X208095476Y-81732142D02*
X208143095Y-81779761D01*
X208285952Y-81827380D01*
X208381190Y-81827380D01*
X208524047Y-81779761D01*
X208619285Y-81684523D01*
X208666904Y-81589285D01*
X208714523Y-81398809D01*
X208714523Y-81255952D01*
X208666904Y-81065476D01*
X208619285Y-80970238D01*
X208524047Y-80875000D01*
X208381190Y-80827380D01*
X208285952Y-80827380D01*
X208143095Y-80875000D01*
X208095476Y-80922619D01*
X184095476Y-81732142D02*
X184143095Y-81779761D01*
X184285952Y-81827380D01*
X184381190Y-81827380D01*
X184524047Y-81779761D01*
X184619285Y-81684523D01*
X184666904Y-81589285D01*
X184714523Y-81398809D01*
X184714523Y-81255952D01*
X184666904Y-81065476D01*
X184619285Y-80970238D01*
X184524047Y-80875000D01*
X184381190Y-80827380D01*
X184285952Y-80827380D01*
X184143095Y-80875000D01*
X184095476Y-80922619D01*
X160095476Y-81732142D02*
X160143095Y-81779761D01*
X160285952Y-81827380D01*
X160381190Y-81827380D01*
X160524047Y-81779761D01*
X160619285Y-81684523D01*
X160666904Y-81589285D01*
X160714523Y-81398809D01*
X160714523Y-81255952D01*
X160666904Y-81065476D01*
X160619285Y-80970238D01*
X160524047Y-80875000D01*
X160381190Y-80827380D01*
X160285952Y-80827380D01*
X160143095Y-80875000D01*
X160095476Y-80922619D01*
X136095476Y-81732142D02*
X136143095Y-81779761D01*
X136285952Y-81827380D01*
X136381190Y-81827380D01*
X136524047Y-81779761D01*
X136619285Y-81684523D01*
X136666904Y-81589285D01*
X136714523Y-81398809D01*
X136714523Y-81255952D01*
X136666904Y-81065476D01*
X136619285Y-80970238D01*
X136524047Y-80875000D01*
X136381190Y-80827380D01*
X136285952Y-80827380D01*
X136143095Y-80875000D01*
X136095476Y-80922619D01*
X208095476Y-65732142D02*
X208143095Y-65779761D01*
X208285952Y-65827380D01*
X208381190Y-65827380D01*
X208524047Y-65779761D01*
X208619285Y-65684523D01*
X208666904Y-65589285D01*
X208714523Y-65398809D01*
X208714523Y-65255952D01*
X208666904Y-65065476D01*
X208619285Y-64970238D01*
X208524047Y-64875000D01*
X208381190Y-64827380D01*
X208285952Y-64827380D01*
X208143095Y-64875000D01*
X208095476Y-64922619D01*
X184095476Y-65732142D02*
X184143095Y-65779761D01*
X184285952Y-65827380D01*
X184381190Y-65827380D01*
X184524047Y-65779761D01*
X184619285Y-65684523D01*
X184666904Y-65589285D01*
X184714523Y-65398809D01*
X184714523Y-65255952D01*
X184666904Y-65065476D01*
X184619285Y-64970238D01*
X184524047Y-64875000D01*
X184381190Y-64827380D01*
X184285952Y-64827380D01*
X184143095Y-64875000D01*
X184095476Y-64922619D01*
X160095476Y-65732142D02*
X160143095Y-65779761D01*
X160285952Y-65827380D01*
X160381190Y-65827380D01*
X160524047Y-65779761D01*
X160619285Y-65684523D01*
X160666904Y-65589285D01*
X160714523Y-65398809D01*
X160714523Y-65255952D01*
X160666904Y-65065476D01*
X160619285Y-64970238D01*
X160524047Y-64875000D01*
X160381190Y-64827380D01*
X160285952Y-64827380D01*
X160143095Y-64875000D01*
X160095476Y-64922619D01*
X136095476Y-65732142D02*
X136143095Y-65779761D01*
X136285952Y-65827380D01*
X136381190Y-65827380D01*
X136524047Y-65779761D01*
X136619285Y-65684523D01*
X136666904Y-65589285D01*
X136714523Y-65398809D01*
X136714523Y-65255952D01*
X136666904Y-65065476D01*
X136619285Y-64970238D01*
X136524047Y-64875000D01*
X136381190Y-64827380D01*
X136285952Y-64827380D01*
X136143095Y-64875000D01*
X136095476Y-64922619D01*
X208095476Y-49732142D02*
X208143095Y-49779761D01*
X208285952Y-49827380D01*
X208381190Y-49827380D01*
X208524047Y-49779761D01*
X208619285Y-49684523D01*
X208666904Y-49589285D01*
X208714523Y-49398809D01*
X208714523Y-49255952D01*
X208666904Y-49065476D01*
X208619285Y-48970238D01*
X208524047Y-48875000D01*
X208381190Y-48827380D01*
X208285952Y-48827380D01*
X208143095Y-48875000D01*
X208095476Y-48922619D01*
X184095476Y-49732142D02*
X184143095Y-49779761D01*
X184285952Y-49827380D01*
X184381190Y-49827380D01*
X184524047Y-49779761D01*
X184619285Y-49684523D01*
X184666904Y-49589285D01*
X184714523Y-49398809D01*
X184714523Y-49255952D01*
X184666904Y-49065476D01*
X184619285Y-48970238D01*
X184524047Y-48875000D01*
X184381190Y-48827380D01*
X184285952Y-48827380D01*
X184143095Y-48875000D01*
X184095476Y-48922619D01*
X160095476Y-49732142D02*
X160143095Y-49779761D01*
X160285952Y-49827380D01*
X160381190Y-49827380D01*
X160524047Y-49779761D01*
X160619285Y-49684523D01*
X160666904Y-49589285D01*
X160714523Y-49398809D01*
X160714523Y-49255952D01*
X160666904Y-49065476D01*
X160619285Y-48970238D01*
X160524047Y-48875000D01*
X160381190Y-48827380D01*
X160285952Y-48827380D01*
X160143095Y-48875000D01*
X160095476Y-48922619D01*
X207633571Y-133403571D02*
X207490714Y-133451190D01*
X207443095Y-133498809D01*
X207395476Y-133594047D01*
X207395476Y-133736904D01*
X207443095Y-133832142D01*
X207490714Y-133879761D01*
X207585952Y-133927380D01*
X207966904Y-133927380D01*
X207966904Y-132927380D01*
X207633571Y-132927380D01*
X207538333Y-132975000D01*
X207490714Y-133022619D01*
X207443095Y-133117857D01*
X207443095Y-133213095D01*
X207490714Y-133308333D01*
X207538333Y-133355952D01*
X207633571Y-133403571D01*
X207966904Y-133403571D01*
X183633571Y-133403571D02*
X183490714Y-133451190D01*
X183443095Y-133498809D01*
X183395476Y-133594047D01*
X183395476Y-133736904D01*
X183443095Y-133832142D01*
X183490714Y-133879761D01*
X183585952Y-133927380D01*
X183966904Y-133927380D01*
X183966904Y-132927380D01*
X183633571Y-132927380D01*
X183538333Y-132975000D01*
X183490714Y-133022619D01*
X183443095Y-133117857D01*
X183443095Y-133213095D01*
X183490714Y-133308333D01*
X183538333Y-133355952D01*
X183633571Y-133403571D01*
X183966904Y-133403571D01*
X159633571Y-133403571D02*
X159490714Y-133451190D01*
X159443095Y-133498809D01*
X159395476Y-133594047D01*
X159395476Y-133736904D01*
X159443095Y-133832142D01*
X159490714Y-133879761D01*
X159585952Y-133927380D01*
X159966904Y-133927380D01*
X159966904Y-132927380D01*
X159633571Y-132927380D01*
X159538333Y-132975000D01*
X159490714Y-133022619D01*
X159443095Y-133117857D01*
X159443095Y-133213095D01*
X159490714Y-133308333D01*
X159538333Y-133355952D01*
X159633571Y-133403571D01*
X159966904Y-133403571D01*
X135633571Y-133403571D02*
X135490714Y-133451190D01*
X135443095Y-133498809D01*
X135395476Y-133594047D01*
X135395476Y-133736904D01*
X135443095Y-133832142D01*
X135490714Y-133879761D01*
X135585952Y-133927380D01*
X135966904Y-133927380D01*
X135966904Y-132927380D01*
X135633571Y-132927380D01*
X135538333Y-132975000D01*
X135490714Y-133022619D01*
X135443095Y-133117857D01*
X135443095Y-133213095D01*
X135490714Y-133308333D01*
X135538333Y-133355952D01*
X135633571Y-133403571D01*
X135966904Y-133403571D01*
X207633571Y-117403571D02*
X207490714Y-117451190D01*
X207443095Y-117498809D01*
X207395476Y-117594047D01*
X207395476Y-117736904D01*
X207443095Y-117832142D01*
X207490714Y-117879761D01*
X207585952Y-117927380D01*
X207966904Y-117927380D01*
X207966904Y-116927380D01*
X207633571Y-116927380D01*
X207538333Y-116975000D01*
X207490714Y-117022619D01*
X207443095Y-117117857D01*
X207443095Y-117213095D01*
X207490714Y-117308333D01*
X207538333Y-117355952D01*
X207633571Y-117403571D01*
X207966904Y-117403571D01*
X183633571Y-117403571D02*
X183490714Y-117451190D01*
X183443095Y-117498809D01*
X183395476Y-117594047D01*
X183395476Y-117736904D01*
X183443095Y-117832142D01*
X183490714Y-117879761D01*
X183585952Y-117927380D01*
X183966904Y-117927380D01*
X183966904Y-116927380D01*
X183633571Y-116927380D01*
X183538333Y-116975000D01*
X183490714Y-117022619D01*
X183443095Y-117117857D01*
X183443095Y-117213095D01*
X183490714Y-117308333D01*
X183538333Y-117355952D01*
X183633571Y-117403571D01*
X183966904Y-117403571D01*
X159633571Y-117403571D02*
X159490714Y-117451190D01*
X159443095Y-117498809D01*
X159395476Y-117594047D01*
X159395476Y-117736904D01*
X159443095Y-117832142D01*
X159490714Y-117879761D01*
X159585952Y-117927380D01*
X159966904Y-117927380D01*
X159966904Y-116927380D01*
X159633571Y-116927380D01*
X159538333Y-116975000D01*
X159490714Y-117022619D01*
X159443095Y-117117857D01*
X159443095Y-117213095D01*
X159490714Y-117308333D01*
X159538333Y-117355952D01*
X159633571Y-117403571D01*
X159966904Y-117403571D01*
X135633571Y-117403571D02*
X135490714Y-117451190D01*
X135443095Y-117498809D01*
X135395476Y-117594047D01*
X135395476Y-117736904D01*
X135443095Y-117832142D01*
X135490714Y-117879761D01*
X135585952Y-117927380D01*
X135966904Y-117927380D01*
X135966904Y-116927380D01*
X135633571Y-116927380D01*
X135538333Y-116975000D01*
X135490714Y-117022619D01*
X135443095Y-117117857D01*
X135443095Y-117213095D01*
X135490714Y-117308333D01*
X135538333Y-117355952D01*
X135633571Y-117403571D01*
X135966904Y-117403571D01*
X207633571Y-101403571D02*
X207490714Y-101451190D01*
X207443095Y-101498809D01*
X207395476Y-101594047D01*
X207395476Y-101736904D01*
X207443095Y-101832142D01*
X207490714Y-101879761D01*
X207585952Y-101927380D01*
X207966904Y-101927380D01*
X207966904Y-100927380D01*
X207633571Y-100927380D01*
X207538333Y-100975000D01*
X207490714Y-101022619D01*
X207443095Y-101117857D01*
X207443095Y-101213095D01*
X207490714Y-101308333D01*
X207538333Y-101355952D01*
X207633571Y-101403571D01*
X207966904Y-101403571D01*
X183633571Y-101403571D02*
X183490714Y-101451190D01*
X183443095Y-101498809D01*
X183395476Y-101594047D01*
X183395476Y-101736904D01*
X183443095Y-101832142D01*
X183490714Y-101879761D01*
X183585952Y-101927380D01*
X183966904Y-101927380D01*
X183966904Y-100927380D01*
X183633571Y-100927380D01*
X183538333Y-100975000D01*
X183490714Y-101022619D01*
X183443095Y-101117857D01*
X183443095Y-101213095D01*
X183490714Y-101308333D01*
X183538333Y-101355952D01*
X183633571Y-101403571D01*
X183966904Y-101403571D01*
X159633571Y-101403571D02*
X159490714Y-101451190D01*
X159443095Y-101498809D01*
X159395476Y-101594047D01*
X159395476Y-101736904D01*
X159443095Y-101832142D01*
X159490714Y-101879761D01*
X159585952Y-101927380D01*
X159966904Y-101927380D01*
X159966904Y-100927380D01*
X159633571Y-100927380D01*
X159538333Y-100975000D01*
X159490714Y-101022619D01*
X159443095Y-101117857D01*
X159443095Y-101213095D01*
X159490714Y-101308333D01*
X159538333Y-101355952D01*
X159633571Y-101403571D01*
X159966904Y-101403571D01*
X135633571Y-101403571D02*
X135490714Y-101451190D01*
X135443095Y-101498809D01*
X135395476Y-101594047D01*
X135395476Y-101736904D01*
X135443095Y-101832142D01*
X135490714Y-101879761D01*
X135585952Y-101927380D01*
X135966904Y-101927380D01*
X135966904Y-100927380D01*
X135633571Y-100927380D01*
X135538333Y-100975000D01*
X135490714Y-101022619D01*
X135443095Y-101117857D01*
X135443095Y-101213095D01*
X135490714Y-101308333D01*
X135538333Y-101355952D01*
X135633571Y-101403571D01*
X135966904Y-101403571D01*
X207633571Y-85403571D02*
X207490714Y-85451190D01*
X207443095Y-85498809D01*
X207395476Y-85594047D01*
X207395476Y-85736904D01*
X207443095Y-85832142D01*
X207490714Y-85879761D01*
X207585952Y-85927380D01*
X207966904Y-85927380D01*
X207966904Y-84927380D01*
X207633571Y-84927380D01*
X207538333Y-84975000D01*
X207490714Y-85022619D01*
X207443095Y-85117857D01*
X207443095Y-85213095D01*
X207490714Y-85308333D01*
X207538333Y-85355952D01*
X207633571Y-85403571D01*
X207966904Y-85403571D01*
X183633571Y-85403571D02*
X183490714Y-85451190D01*
X183443095Y-85498809D01*
X183395476Y-85594047D01*
X183395476Y-85736904D01*
X183443095Y-85832142D01*
X183490714Y-85879761D01*
X183585952Y-85927380D01*
X183966904Y-85927380D01*
X183966904Y-84927380D01*
X183633571Y-84927380D01*
X183538333Y-84975000D01*
X183490714Y-85022619D01*
X183443095Y-85117857D01*
X183443095Y-85213095D01*
X183490714Y-85308333D01*
X183538333Y-85355952D01*
X183633571Y-85403571D01*
X183966904Y-85403571D01*
X159633571Y-85403571D02*
X159490714Y-85451190D01*
X159443095Y-85498809D01*
X159395476Y-85594047D01*
X159395476Y-85736904D01*
X159443095Y-85832142D01*
X159490714Y-85879761D01*
X159585952Y-85927380D01*
X159966904Y-85927380D01*
X159966904Y-84927380D01*
X159633571Y-84927380D01*
X159538333Y-84975000D01*
X159490714Y-85022619D01*
X159443095Y-85117857D01*
X159443095Y-85213095D01*
X159490714Y-85308333D01*
X159538333Y-85355952D01*
X159633571Y-85403571D01*
X159966904Y-85403571D01*
X135633571Y-85403571D02*
X135490714Y-85451190D01*
X135443095Y-85498809D01*
X135395476Y-85594047D01*
X135395476Y-85736904D01*
X135443095Y-85832142D01*
X135490714Y-85879761D01*
X135585952Y-85927380D01*
X135966904Y-85927380D01*
X135966904Y-84927380D01*
X135633571Y-84927380D01*
X135538333Y-84975000D01*
X135490714Y-85022619D01*
X135443095Y-85117857D01*
X135443095Y-85213095D01*
X135490714Y-85308333D01*
X135538333Y-85355952D01*
X135633571Y-85403571D01*
X135966904Y-85403571D01*
X207633571Y-69403571D02*
X207490714Y-69451190D01*
X207443095Y-69498809D01*
X207395476Y-69594047D01*
X207395476Y-69736904D01*
X207443095Y-69832142D01*
X207490714Y-69879761D01*
X207585952Y-69927380D01*
X207966904Y-69927380D01*
X207966904Y-68927380D01*
X207633571Y-68927380D01*
X207538333Y-68975000D01*
X207490714Y-69022619D01*
X207443095Y-69117857D01*
X207443095Y-69213095D01*
X207490714Y-69308333D01*
X207538333Y-69355952D01*
X207633571Y-69403571D01*
X207966904Y-69403571D01*
X183633571Y-69403571D02*
X183490714Y-69451190D01*
X183443095Y-69498809D01*
X183395476Y-69594047D01*
X183395476Y-69736904D01*
X183443095Y-69832142D01*
X183490714Y-69879761D01*
X183585952Y-69927380D01*
X183966904Y-69927380D01*
X183966904Y-68927380D01*
X183633571Y-68927380D01*
X183538333Y-68975000D01*
X183490714Y-69022619D01*
X183443095Y-69117857D01*
X183443095Y-69213095D01*
X183490714Y-69308333D01*
X183538333Y-69355952D01*
X183633571Y-69403571D01*
X183966904Y-69403571D01*
X159633571Y-69403571D02*
X159490714Y-69451190D01*
X159443095Y-69498809D01*
X159395476Y-69594047D01*
X159395476Y-69736904D01*
X159443095Y-69832142D01*
X159490714Y-69879761D01*
X159585952Y-69927380D01*
X159966904Y-69927380D01*
X159966904Y-68927380D01*
X159633571Y-68927380D01*
X159538333Y-68975000D01*
X159490714Y-69022619D01*
X159443095Y-69117857D01*
X159443095Y-69213095D01*
X159490714Y-69308333D01*
X159538333Y-69355952D01*
X159633571Y-69403571D01*
X159966904Y-69403571D01*
X135633571Y-69403571D02*
X135490714Y-69451190D01*
X135443095Y-69498809D01*
X135395476Y-69594047D01*
X135395476Y-69736904D01*
X135443095Y-69832142D01*
X135490714Y-69879761D01*
X135585952Y-69927380D01*
X135966904Y-69927380D01*
X135966904Y-68927380D01*
X135633571Y-68927380D01*
X135538333Y-68975000D01*
X135490714Y-69022619D01*
X135443095Y-69117857D01*
X135443095Y-69213095D01*
X135490714Y-69308333D01*
X135538333Y-69355952D01*
X135633571Y-69403571D01*
X135966904Y-69403571D01*
X207633571Y-53403571D02*
X207490714Y-53451190D01*
X207443095Y-53498809D01*
X207395476Y-53594047D01*
X207395476Y-53736904D01*
X207443095Y-53832142D01*
X207490714Y-53879761D01*
X207585952Y-53927380D01*
X207966904Y-53927380D01*
X207966904Y-52927380D01*
X207633571Y-52927380D01*
X207538333Y-52975000D01*
X207490714Y-53022619D01*
X207443095Y-53117857D01*
X207443095Y-53213095D01*
X207490714Y-53308333D01*
X207538333Y-53355952D01*
X207633571Y-53403571D01*
X207966904Y-53403571D01*
X183633571Y-53403571D02*
X183490714Y-53451190D01*
X183443095Y-53498809D01*
X183395476Y-53594047D01*
X183395476Y-53736904D01*
X183443095Y-53832142D01*
X183490714Y-53879761D01*
X183585952Y-53927380D01*
X183966904Y-53927380D01*
X183966904Y-52927380D01*
X183633571Y-52927380D01*
X183538333Y-52975000D01*
X183490714Y-53022619D01*
X183443095Y-53117857D01*
X183443095Y-53213095D01*
X183490714Y-53308333D01*
X183538333Y-53355952D01*
X183633571Y-53403571D01*
X183966904Y-53403571D01*
X159633571Y-53403571D02*
X159490714Y-53451190D01*
X159443095Y-53498809D01*
X159395476Y-53594047D01*
X159395476Y-53736904D01*
X159443095Y-53832142D01*
X159490714Y-53879761D01*
X159585952Y-53927380D01*
X159966904Y-53927380D01*
X159966904Y-52927380D01*
X159633571Y-52927380D01*
X159538333Y-52975000D01*
X159490714Y-53022619D01*
X159443095Y-53117857D01*
X159443095Y-53213095D01*
X159490714Y-53308333D01*
X159538333Y-53355952D01*
X159633571Y-53403571D01*
X159966904Y-53403571D01*
X202519285Y-133403571D02*
X202185952Y-133403571D01*
X202043095Y-133927380D02*
X202519285Y-133927380D01*
X202519285Y-132927380D01*
X202043095Y-132927380D01*
X178519285Y-133403571D02*
X178185952Y-133403571D01*
X178043095Y-133927380D02*
X178519285Y-133927380D01*
X178519285Y-132927380D01*
X178043095Y-132927380D01*
X154519285Y-133403571D02*
X154185952Y-133403571D01*
X154043095Y-133927380D02*
X154519285Y-133927380D01*
X154519285Y-132927380D01*
X154043095Y-132927380D01*
X130519285Y-133403571D02*
X130185952Y-133403571D01*
X130043095Y-133927380D02*
X130519285Y-133927380D01*
X130519285Y-132927380D01*
X130043095Y-132927380D01*
X202519285Y-117403571D02*
X202185952Y-117403571D01*
X202043095Y-117927380D02*
X202519285Y-117927380D01*
X202519285Y-116927380D01*
X202043095Y-116927380D01*
X178519285Y-117403571D02*
X178185952Y-117403571D01*
X178043095Y-117927380D02*
X178519285Y-117927380D01*
X178519285Y-116927380D01*
X178043095Y-116927380D01*
X154519285Y-117403571D02*
X154185952Y-117403571D01*
X154043095Y-117927380D02*
X154519285Y-117927380D01*
X154519285Y-116927380D01*
X154043095Y-116927380D01*
X130519285Y-117403571D02*
X130185952Y-117403571D01*
X130043095Y-117927380D02*
X130519285Y-117927380D01*
X130519285Y-116927380D01*
X130043095Y-116927380D01*
X202519285Y-101403571D02*
X202185952Y-101403571D01*
X202043095Y-101927380D02*
X202519285Y-101927380D01*
X202519285Y-100927380D01*
X202043095Y-100927380D01*
X178519285Y-101403571D02*
X178185952Y-101403571D01*
X178043095Y-101927380D02*
X178519285Y-101927380D01*
X178519285Y-100927380D01*
X178043095Y-100927380D01*
X154519285Y-101403571D02*
X154185952Y-101403571D01*
X154043095Y-101927380D02*
X154519285Y-101927380D01*
X154519285Y-100927380D01*
X154043095Y-100927380D01*
X130519285Y-101403571D02*
X130185952Y-101403571D01*
X130043095Y-101927380D02*
X130519285Y-101927380D01*
X130519285Y-100927380D01*
X130043095Y-100927380D01*
X202519285Y-85403571D02*
X202185952Y-85403571D01*
X202043095Y-85927380D02*
X202519285Y-85927380D01*
X202519285Y-84927380D01*
X202043095Y-84927380D01*
X178519285Y-85403571D02*
X178185952Y-85403571D01*
X178043095Y-85927380D02*
X178519285Y-85927380D01*
X178519285Y-84927380D01*
X178043095Y-84927380D01*
X154519285Y-85403571D02*
X154185952Y-85403571D01*
X154043095Y-85927380D02*
X154519285Y-85927380D01*
X154519285Y-84927380D01*
X154043095Y-84927380D01*
X130519285Y-85403571D02*
X130185952Y-85403571D01*
X130043095Y-85927380D02*
X130519285Y-85927380D01*
X130519285Y-84927380D01*
X130043095Y-84927380D01*
X202519285Y-69403571D02*
X202185952Y-69403571D01*
X202043095Y-69927380D02*
X202519285Y-69927380D01*
X202519285Y-68927380D01*
X202043095Y-68927380D01*
X178519285Y-69403571D02*
X178185952Y-69403571D01*
X178043095Y-69927380D02*
X178519285Y-69927380D01*
X178519285Y-68927380D01*
X178043095Y-68927380D01*
X154519285Y-69403571D02*
X154185952Y-69403571D01*
X154043095Y-69927380D02*
X154519285Y-69927380D01*
X154519285Y-68927380D01*
X154043095Y-68927380D01*
X130519285Y-69403571D02*
X130185952Y-69403571D01*
X130043095Y-69927380D02*
X130519285Y-69927380D01*
X130519285Y-68927380D01*
X130043095Y-68927380D01*
X202519285Y-53403571D02*
X202185952Y-53403571D01*
X202043095Y-53927380D02*
X202519285Y-53927380D01*
X202519285Y-52927380D01*
X202043095Y-52927380D01*
X178519285Y-53403571D02*
X178185952Y-53403571D01*
X178043095Y-53927380D02*
X178519285Y-53927380D01*
X178519285Y-52927380D01*
X178043095Y-52927380D01*
X154519285Y-53403571D02*
X154185952Y-53403571D01*
X154043095Y-53927380D02*
X154519285Y-53927380D01*
X154519285Y-52927380D01*
X154043095Y-52927380D01*
X130519285Y-53403571D02*
X130185952Y-53403571D01*
X130043095Y-53927380D02*
X130519285Y-53927380D01*
X130519285Y-52927380D01*
X130043095Y-52927380D01*
X135633571Y-53403571D02*
X135490714Y-53451190D01*
X135443095Y-53498809D01*
X135395476Y-53594047D01*
X135395476Y-53736904D01*
X135443095Y-53832142D01*
X135490714Y-53879761D01*
X135585952Y-53927380D01*
X135966904Y-53927380D01*
X135966904Y-52927380D01*
X135633571Y-52927380D01*
X135538333Y-52975000D01*
X135490714Y-53022619D01*
X135443095Y-53117857D01*
X135443095Y-53213095D01*
X135490714Y-53308333D01*
X135538333Y-53355952D01*
X135633571Y-53403571D01*
X135966904Y-53403571D01*
X136095476Y-49732142D02*
X136143095Y-49779761D01*
X136285952Y-49827380D01*
X136381190Y-49827380D01*
X136524047Y-49779761D01*
X136619285Y-49684523D01*
X136666904Y-49589285D01*
X136714523Y-49398809D01*
X136714523Y-49255952D01*
X136666904Y-49065476D01*
X136619285Y-48970238D01*
X136524047Y-48875000D01*
X136381190Y-48827380D01*
X136285952Y-48827380D01*
X136143095Y-48875000D01*
X136095476Y-48922619D01*
X136619285Y-46303571D02*
X136285952Y-46303571D01*
X136143095Y-46827380D02*
X136619285Y-46827380D01*
X136619285Y-45827380D01*
X136143095Y-45827380D01*
D11*
X202599999Y-124500000D02*
X202599999Y-129690000D01*
X207399999Y-124500000D02*
X202599999Y-124500000D01*
X207399999Y-129690000D02*
X207399999Y-124500000D01*
X202599999Y-129690000D02*
X207399999Y-129690000D01*
X206269999Y-132480000D02*
X206269999Y-129690000D01*
X204999999Y-132480000D02*
X204999999Y-129690000D01*
X203729999Y-132480000D02*
X203729999Y-129690000D01*
X178599999Y-124500000D02*
X178599999Y-129690000D01*
X183399999Y-124500000D02*
X178599999Y-124500000D01*
X183399999Y-129690000D02*
X183399999Y-124500000D01*
X178599999Y-129690000D02*
X183399999Y-129690000D01*
X182269999Y-132480000D02*
X182269999Y-129690000D01*
X180999999Y-132480000D02*
X180999999Y-129690000D01*
X179729999Y-132480000D02*
X179729999Y-129690000D01*
X154599999Y-124500000D02*
X154599999Y-129690000D01*
X159399999Y-124500000D02*
X154599999Y-124500000D01*
X159399999Y-129690000D02*
X159399999Y-124500000D01*
X154599999Y-129690000D02*
X159399999Y-129690000D01*
X158269999Y-132480000D02*
X158269999Y-129690000D01*
X156999999Y-132480000D02*
X156999999Y-129690000D01*
X155729999Y-132480000D02*
X155729999Y-129690000D01*
X130599999Y-124500000D02*
X130599999Y-129690000D01*
X135399999Y-124500000D02*
X130599999Y-124500000D01*
X135399999Y-129690000D02*
X135399999Y-124500000D01*
X130599999Y-129690000D02*
X135399999Y-129690000D01*
X134269999Y-132480000D02*
X134269999Y-129690000D01*
X132999999Y-132480000D02*
X132999999Y-129690000D01*
X131729999Y-132480000D02*
X131729999Y-129690000D01*
X202599999Y-108500000D02*
X202599999Y-113690000D01*
X207399999Y-108500000D02*
X202599999Y-108500000D01*
X207399999Y-113690000D02*
X207399999Y-108500000D01*
X202599999Y-113690000D02*
X207399999Y-113690000D01*
X206269999Y-116480000D02*
X206269999Y-113690000D01*
X204999999Y-116480000D02*
X204999999Y-113690000D01*
X203729999Y-116480000D02*
X203729999Y-113690000D01*
X178599999Y-108500000D02*
X178599999Y-113690000D01*
X183399999Y-108500000D02*
X178599999Y-108500000D01*
X183399999Y-113690000D02*
X183399999Y-108500000D01*
X178599999Y-113690000D02*
X183399999Y-113690000D01*
X182269999Y-116480000D02*
X182269999Y-113690000D01*
X180999999Y-116480000D02*
X180999999Y-113690000D01*
X179729999Y-116480000D02*
X179729999Y-113690000D01*
X154599999Y-108500000D02*
X154599999Y-113690000D01*
X159399999Y-108500000D02*
X154599999Y-108500000D01*
X159399999Y-113690000D02*
X159399999Y-108500000D01*
X154599999Y-113690000D02*
X159399999Y-113690000D01*
X158269999Y-116480000D02*
X158269999Y-113690000D01*
X156999999Y-116480000D02*
X156999999Y-113690000D01*
X155729999Y-116480000D02*
X155729999Y-113690000D01*
X130599999Y-108500000D02*
X130599999Y-113690000D01*
X135399999Y-108500000D02*
X130599999Y-108500000D01*
X135399999Y-113690000D02*
X135399999Y-108500000D01*
X130599999Y-113690000D02*
X135399999Y-113690000D01*
X134269999Y-116480000D02*
X134269999Y-113690000D01*
X132999999Y-116480000D02*
X132999999Y-113690000D01*
X131729999Y-116480000D02*
X131729999Y-113690000D01*
X202599999Y-92500000D02*
X202599999Y-97690000D01*
X207399999Y-92500000D02*
X202599999Y-92500000D01*
X207399999Y-97690000D02*
X207399999Y-92500000D01*
X202599999Y-97690000D02*
X207399999Y-97690000D01*
X206269999Y-100480000D02*
X206269999Y-97690000D01*
X204999999Y-100480000D02*
X204999999Y-97690000D01*
X203729999Y-100480000D02*
X203729999Y-97690000D01*
X178599999Y-92500000D02*
X178599999Y-97690000D01*
X183399999Y-92500000D02*
X178599999Y-92500000D01*
X183399999Y-97690000D02*
X183399999Y-92500000D01*
X178599999Y-97690000D02*
X183399999Y-97690000D01*
X182269999Y-100480000D02*
X182269999Y-97690000D01*
X180999999Y-100480000D02*
X180999999Y-97690000D01*
X179729999Y-100480000D02*
X179729999Y-97690000D01*
X154599999Y-92500000D02*
X154599999Y-97690000D01*
X159399999Y-92500000D02*
X154599999Y-92500000D01*
X159399999Y-97690000D02*
X159399999Y-92500000D01*
X154599999Y-97690000D02*
X159399999Y-97690000D01*
X158269999Y-100480000D02*
X158269999Y-97690000D01*
X156999999Y-100480000D02*
X156999999Y-97690000D01*
X155729999Y-100480000D02*
X155729999Y-97690000D01*
X130599999Y-92500000D02*
X130599999Y-97690000D01*
X135399999Y-92500000D02*
X130599999Y-92500000D01*
X135399999Y-97690000D02*
X135399999Y-92500000D01*
X130599999Y-97690000D02*
X135399999Y-97690000D01*
X134269999Y-100480000D02*
X134269999Y-97690000D01*
X132999999Y-100480000D02*
X132999999Y-97690000D01*
X131729999Y-100480000D02*
X131729999Y-97690000D01*
X202599999Y-76500000D02*
X202599999Y-81690000D01*
X207399999Y-76500000D02*
X202599999Y-76500000D01*
X207399999Y-81690000D02*
X207399999Y-76500000D01*
X202599999Y-81690000D02*
X207399999Y-81690000D01*
X206269999Y-84480000D02*
X206269999Y-81690000D01*
X204999999Y-84480000D02*
X204999999Y-81690000D01*
X203729999Y-84480000D02*
X203729999Y-81690000D01*
X178599999Y-76500000D02*
X178599999Y-81690000D01*
X183399999Y-76500000D02*
X178599999Y-76500000D01*
X183399999Y-81690000D02*
X183399999Y-76500000D01*
X178599999Y-81690000D02*
X183399999Y-81690000D01*
X182269999Y-84480000D02*
X182269999Y-81690000D01*
X180999999Y-84480000D02*
X180999999Y-81690000D01*
X179729999Y-84480000D02*
X179729999Y-81690000D01*
X154599999Y-76500000D02*
X154599999Y-81690000D01*
X159399999Y-76500000D02*
X154599999Y-76500000D01*
X159399999Y-81690000D02*
X159399999Y-76500000D01*
X154599999Y-81690000D02*
X159399999Y-81690000D01*
X158269999Y-84480000D02*
X158269999Y-81690000D01*
X156999999Y-84480000D02*
X156999999Y-81690000D01*
X155729999Y-84480000D02*
X155729999Y-81690000D01*
X130599999Y-76500000D02*
X130599999Y-81690000D01*
X135399999Y-76500000D02*
X130599999Y-76500000D01*
X135399999Y-81690000D02*
X135399999Y-76500000D01*
X130599999Y-81690000D02*
X135399999Y-81690000D01*
X134269999Y-84480000D02*
X134269999Y-81690000D01*
X132999999Y-84480000D02*
X132999999Y-81690000D01*
X131729999Y-84480000D02*
X131729999Y-81690000D01*
X202599999Y-60500000D02*
X202599999Y-65690000D01*
X207399999Y-60500000D02*
X202599999Y-60500000D01*
X207399999Y-65690000D02*
X207399999Y-60500000D01*
X202599999Y-65690000D02*
X207399999Y-65690000D01*
X206269999Y-68480000D02*
X206269999Y-65690000D01*
X204999999Y-68480000D02*
X204999999Y-65690000D01*
X203729999Y-68480000D02*
X203729999Y-65690000D01*
X178599999Y-60500000D02*
X178599999Y-65690000D01*
X183399999Y-60500000D02*
X178599999Y-60500000D01*
X183399999Y-65690000D02*
X183399999Y-60500000D01*
X178599999Y-65690000D02*
X183399999Y-65690000D01*
X182269999Y-68480000D02*
X182269999Y-65690000D01*
X180999999Y-68480000D02*
X180999999Y-65690000D01*
X179729999Y-68480000D02*
X179729999Y-65690000D01*
X154599999Y-60500000D02*
X154599999Y-65690000D01*
X159399999Y-60500000D02*
X154599999Y-60500000D01*
X159399999Y-65690000D02*
X159399999Y-60500000D01*
X154599999Y-65690000D02*
X159399999Y-65690000D01*
X158269999Y-68480000D02*
X158269999Y-65690000D01*
X156999999Y-68480000D02*
X156999999Y-65690000D01*
X155729999Y-68480000D02*
X155729999Y-65690000D01*
X130599999Y-60500000D02*
X130599999Y-65690000D01*
X135399999Y-60500000D02*
X130599999Y-60500000D01*
X135399999Y-65690000D02*
X135399999Y-60500000D01*
X130599999Y-65690000D02*
X135399999Y-65690000D01*
X134269999Y-68480000D02*
X134269999Y-65690000D01*
X132999999Y-68480000D02*
X132999999Y-65690000D01*
X131729999Y-68480000D02*
X131729999Y-65690000D01*
X202599999Y-44500000D02*
X202599999Y-49690000D01*
X207399999Y-44500000D02*
X202599999Y-44500000D01*
X207399999Y-49690000D02*
X207399999Y-44500000D01*
X202599999Y-49690000D02*
X207399999Y-49690000D01*
X206269999Y-52480000D02*
X206269999Y-49690000D01*
X204999999Y-52480000D02*
X204999999Y-49690000D01*
X203729999Y-52480000D02*
X203729999Y-49690000D01*
X178599999Y-44500000D02*
X178599999Y-49690000D01*
X183399999Y-44500000D02*
X178599999Y-44500000D01*
X183399999Y-49690000D02*
X183399999Y-44500000D01*
X178599999Y-49690000D02*
X183399999Y-49690000D01*
X182269999Y-52480000D02*
X182269999Y-49690000D01*
X180999999Y-52480000D02*
X180999999Y-49690000D01*
X179729999Y-52480000D02*
X179729999Y-49690000D01*
X154599999Y-44500000D02*
X154599999Y-49690000D01*
X159399999Y-44500000D02*
X154599999Y-44500000D01*
X159399999Y-49690000D02*
X159399999Y-44500000D01*
X154599999Y-49690000D02*
X159399999Y-49690000D01*
X158269999Y-52480000D02*
X158269999Y-49690000D01*
X156999999Y-52480000D02*
X156999999Y-49690000D01*
X155729999Y-52480000D02*
X155729999Y-49690000D01*
X209920163Y-126938870D02*
G75*
G03X209920000Y-129020961I1079837J-1041130D01*
G01*
X212079837Y-126938870D02*
G75*
G02X212080000Y-129020961I-1079837J-1041130D01*
G01*
X209921392Y-126307665D02*
G75*
G03X209764484Y-129540000I1078608J-1672335D01*
G01*
X212078608Y-126307665D02*
G75*
G02X212235516Y-129540000I-1078608J-1672335D01*
G01*
X209920000Y-129540000D02*
X209764000Y-129540000D01*
X212236000Y-129540000D02*
X212080000Y-129540000D01*
X185920163Y-126938870D02*
G75*
G03X185920000Y-129020961I1079837J-1041130D01*
G01*
X188079837Y-126938870D02*
G75*
G02X188080000Y-129020961I-1079837J-1041130D01*
G01*
X185921392Y-126307665D02*
G75*
G03X185764484Y-129540000I1078608J-1672335D01*
G01*
X188078608Y-126307665D02*
G75*
G02X188235516Y-129540000I-1078608J-1672335D01*
G01*
X185920000Y-129540000D02*
X185764000Y-129540000D01*
X188236000Y-129540000D02*
X188080000Y-129540000D01*
X161920163Y-126938870D02*
G75*
G03X161920000Y-129020961I1079837J-1041130D01*
G01*
X164079837Y-126938870D02*
G75*
G02X164080000Y-129020961I-1079837J-1041130D01*
G01*
X161921392Y-126307665D02*
G75*
G03X161764484Y-129540000I1078608J-1672335D01*
G01*
X164078608Y-126307665D02*
G75*
G02X164235516Y-129540000I-1078608J-1672335D01*
G01*
X161920000Y-129540000D02*
X161764000Y-129540000D01*
X164236000Y-129540000D02*
X164080000Y-129540000D01*
X137920163Y-126938870D02*
G75*
G03X137920000Y-129020961I1079837J-1041130D01*
G01*
X140079837Y-126938870D02*
G75*
G02X140080000Y-129020961I-1079837J-1041130D01*
G01*
X137921392Y-126307665D02*
G75*
G03X137764484Y-129540000I1078608J-1672335D01*
G01*
X140078608Y-126307665D02*
G75*
G02X140235516Y-129540000I-1078608J-1672335D01*
G01*
X137920000Y-129540000D02*
X137764000Y-129540000D01*
X140236000Y-129540000D02*
X140080000Y-129540000D01*
X209920163Y-110938870D02*
G75*
G03X209920000Y-113020961I1079837J-1041130D01*
G01*
X212079837Y-110938870D02*
G75*
G02X212080000Y-113020961I-1079837J-1041130D01*
G01*
X209921392Y-110307665D02*
G75*
G03X209764484Y-113540000I1078608J-1672335D01*
G01*
X212078608Y-110307665D02*
G75*
G02X212235516Y-113540000I-1078608J-1672335D01*
G01*
X209920000Y-113540000D02*
X209764000Y-113540000D01*
X212236000Y-113540000D02*
X212080000Y-113540000D01*
X185920163Y-110938870D02*
G75*
G03X185920000Y-113020961I1079837J-1041130D01*
G01*
X188079837Y-110938870D02*
G75*
G02X188080000Y-113020961I-1079837J-1041130D01*
G01*
X185921392Y-110307665D02*
G75*
G03X185764484Y-113540000I1078608J-1672335D01*
G01*
X188078608Y-110307665D02*
G75*
G02X188235516Y-113540000I-1078608J-1672335D01*
G01*
X185920000Y-113540000D02*
X185764000Y-113540000D01*
X188236000Y-113540000D02*
X188080000Y-113540000D01*
X161920163Y-110938870D02*
G75*
G03X161920000Y-113020961I1079837J-1041130D01*
G01*
X164079837Y-110938870D02*
G75*
G02X164080000Y-113020961I-1079837J-1041130D01*
G01*
X161921392Y-110307665D02*
G75*
G03X161764484Y-113540000I1078608J-1672335D01*
G01*
X164078608Y-110307665D02*
G75*
G02X164235516Y-113540000I-1078608J-1672335D01*
G01*
X161920000Y-113540000D02*
X161764000Y-113540000D01*
X164236000Y-113540000D02*
X164080000Y-113540000D01*
X137920163Y-110938870D02*
G75*
G03X137920000Y-113020961I1079837J-1041130D01*
G01*
X140079837Y-110938870D02*
G75*
G02X140080000Y-113020961I-1079837J-1041130D01*
G01*
X137921392Y-110307665D02*
G75*
G03X137764484Y-113540000I1078608J-1672335D01*
G01*
X140078608Y-110307665D02*
G75*
G02X140235516Y-113540000I-1078608J-1672335D01*
G01*
X137920000Y-113540000D02*
X137764000Y-113540000D01*
X140236000Y-113540000D02*
X140080000Y-113540000D01*
X209920163Y-94938870D02*
G75*
G03X209920000Y-97020961I1079837J-1041130D01*
G01*
X212079837Y-94938870D02*
G75*
G02X212080000Y-97020961I-1079837J-1041130D01*
G01*
X209921392Y-94307665D02*
G75*
G03X209764484Y-97540000I1078608J-1672335D01*
G01*
X212078608Y-94307665D02*
G75*
G02X212235516Y-97540000I-1078608J-1672335D01*
G01*
X209920000Y-97540000D02*
X209764000Y-97540000D01*
X212236000Y-97540000D02*
X212080000Y-97540000D01*
X185920163Y-94938870D02*
G75*
G03X185920000Y-97020961I1079837J-1041130D01*
G01*
X188079837Y-94938870D02*
G75*
G02X188080000Y-97020961I-1079837J-1041130D01*
G01*
X185921392Y-94307665D02*
G75*
G03X185764484Y-97540000I1078608J-1672335D01*
G01*
X188078608Y-94307665D02*
G75*
G02X188235516Y-97540000I-1078608J-1672335D01*
G01*
X185920000Y-97540000D02*
X185764000Y-97540000D01*
X188236000Y-97540000D02*
X188080000Y-97540000D01*
X161920163Y-94938870D02*
G75*
G03X161920000Y-97020961I1079837J-1041130D01*
G01*
X164079837Y-94938870D02*
G75*
G02X164080000Y-97020961I-1079837J-1041130D01*
G01*
X161921392Y-94307665D02*
G75*
G03X161764484Y-97540000I1078608J-1672335D01*
G01*
X164078608Y-94307665D02*
G75*
G02X164235516Y-97540000I-1078608J-1672335D01*
G01*
X161920000Y-97540000D02*
X161764000Y-97540000D01*
X164236000Y-97540000D02*
X164080000Y-97540000D01*
X137920163Y-94938870D02*
G75*
G03X137920000Y-97020961I1079837J-1041130D01*
G01*
X140079837Y-94938870D02*
G75*
G02X140080000Y-97020961I-1079837J-1041130D01*
G01*
X137921392Y-94307665D02*
G75*
G03X137764484Y-97540000I1078608J-1672335D01*
G01*
X140078608Y-94307665D02*
G75*
G02X140235516Y-97540000I-1078608J-1672335D01*
G01*
X137920000Y-97540000D02*
X137764000Y-97540000D01*
X140236000Y-97540000D02*
X140080000Y-97540000D01*
X209920163Y-78938870D02*
G75*
G03X209920000Y-81020961I1079837J-1041130D01*
G01*
X212079837Y-78938870D02*
G75*
G02X212080000Y-81020961I-1079837J-1041130D01*
G01*
X209921392Y-78307665D02*
G75*
G03X209764484Y-81540000I1078608J-1672335D01*
G01*
X212078608Y-78307665D02*
G75*
G02X212235516Y-81540000I-1078608J-1672335D01*
G01*
X209920000Y-81540000D02*
X209764000Y-81540000D01*
X212236000Y-81540000D02*
X212080000Y-81540000D01*
X185920163Y-78938870D02*
G75*
G03X185920000Y-81020961I1079837J-1041130D01*
G01*
X188079837Y-78938870D02*
G75*
G02X188080000Y-81020961I-1079837J-1041130D01*
G01*
X185921392Y-78307665D02*
G75*
G03X185764484Y-81540000I1078608J-1672335D01*
G01*
X188078608Y-78307665D02*
G75*
G02X188235516Y-81540000I-1078608J-1672335D01*
G01*
X185920000Y-81540000D02*
X185764000Y-81540000D01*
X188236000Y-81540000D02*
X188080000Y-81540000D01*
X161920163Y-78938870D02*
G75*
G03X161920000Y-81020961I1079837J-1041130D01*
G01*
X164079837Y-78938870D02*
G75*
G02X164080000Y-81020961I-1079837J-1041130D01*
G01*
X161921392Y-78307665D02*
G75*
G03X161764484Y-81540000I1078608J-1672335D01*
G01*
X164078608Y-78307665D02*
G75*
G02X164235516Y-81540000I-1078608J-1672335D01*
G01*
X161920000Y-81540000D02*
X161764000Y-81540000D01*
X164236000Y-81540000D02*
X164080000Y-81540000D01*
X137920163Y-78938870D02*
G75*
G03X137920000Y-81020961I1079837J-1041130D01*
G01*
X140079837Y-78938870D02*
G75*
G02X140080000Y-81020961I-1079837J-1041130D01*
G01*
X137921392Y-78307665D02*
G75*
G03X137764484Y-81540000I1078608J-1672335D01*
G01*
X140078608Y-78307665D02*
G75*
G02X140235516Y-81540000I-1078608J-1672335D01*
G01*
X137920000Y-81540000D02*
X137764000Y-81540000D01*
X140236000Y-81540000D02*
X140080000Y-81540000D01*
X209920163Y-62938870D02*
G75*
G03X209920000Y-65020961I1079837J-1041130D01*
G01*
X212079837Y-62938870D02*
G75*
G02X212080000Y-65020961I-1079837J-1041130D01*
G01*
X209921392Y-62307665D02*
G75*
G03X209764484Y-65540000I1078608J-1672335D01*
G01*
X212078608Y-62307665D02*
G75*
G02X212235516Y-65540000I-1078608J-1672335D01*
G01*
X209920000Y-65540000D02*
X209764000Y-65540000D01*
X212236000Y-65540000D02*
X212080000Y-65540000D01*
X185920163Y-62938870D02*
G75*
G03X185920000Y-65020961I1079837J-1041130D01*
G01*
X188079837Y-62938870D02*
G75*
G02X188080000Y-65020961I-1079837J-1041130D01*
G01*
X185921392Y-62307665D02*
G75*
G03X185764484Y-65540000I1078608J-1672335D01*
G01*
X188078608Y-62307665D02*
G75*
G02X188235516Y-65540000I-1078608J-1672335D01*
G01*
X185920000Y-65540000D02*
X185764000Y-65540000D01*
X188236000Y-65540000D02*
X188080000Y-65540000D01*
X161920163Y-62938870D02*
G75*
G03X161920000Y-65020961I1079837J-1041130D01*
G01*
X164079837Y-62938870D02*
G75*
G02X164080000Y-65020961I-1079837J-1041130D01*
G01*
X161921392Y-62307665D02*
G75*
G03X161764484Y-65540000I1078608J-1672335D01*
G01*
X164078608Y-62307665D02*
G75*
G02X164235516Y-65540000I-1078608J-1672335D01*
G01*
X161920000Y-65540000D02*
X161764000Y-65540000D01*
X164236000Y-65540000D02*
X164080000Y-65540000D01*
X137920163Y-62938870D02*
G75*
G03X137920000Y-65020961I1079837J-1041130D01*
G01*
X140079837Y-62938870D02*
G75*
G02X140080000Y-65020961I-1079837J-1041130D01*
G01*
X137921392Y-62307665D02*
G75*
G03X137764484Y-65540000I1078608J-1672335D01*
G01*
X140078608Y-62307665D02*
G75*
G02X140235516Y-65540000I-1078608J-1672335D01*
G01*
X137920000Y-65540000D02*
X137764000Y-65540000D01*
X140236000Y-65540000D02*
X140080000Y-65540000D01*
X209920163Y-46938870D02*
G75*
G03X209920000Y-49020961I1079837J-1041130D01*
G01*
X212079837Y-46938870D02*
G75*
G02X212080000Y-49020961I-1079837J-1041130D01*
G01*
X209921392Y-46307665D02*
G75*
G03X209764484Y-49540000I1078608J-1672335D01*
G01*
X212078608Y-46307665D02*
G75*
G02X212235516Y-49540000I-1078608J-1672335D01*
G01*
X209920000Y-49540000D02*
X209764000Y-49540000D01*
X212236000Y-49540000D02*
X212080000Y-49540000D01*
X185920163Y-46938870D02*
G75*
G03X185920000Y-49020961I1079837J-1041130D01*
G01*
X188079837Y-46938870D02*
G75*
G02X188080000Y-49020961I-1079837J-1041130D01*
G01*
X185921392Y-46307665D02*
G75*
G03X185764484Y-49540000I1078608J-1672335D01*
G01*
X188078608Y-46307665D02*
G75*
G02X188235516Y-49540000I-1078608J-1672335D01*
G01*
X185920000Y-49540000D02*
X185764000Y-49540000D01*
X188236000Y-49540000D02*
X188080000Y-49540000D01*
X161920163Y-46938870D02*
G75*
G03X161920000Y-49020961I1079837J-1041130D01*
G01*
X164079837Y-46938870D02*
G75*
G02X164080000Y-49020961I-1079837J-1041130D01*
G01*
X161921392Y-46307665D02*
G75*
G03X161764484Y-49540000I1078608J-1672335D01*
G01*
X164078608Y-46307665D02*
G75*
G02X164235516Y-49540000I-1078608J-1672335D01*
G01*
X161920000Y-49540000D02*
X161764000Y-49540000D01*
X164236000Y-49540000D02*
X164080000Y-49540000D01*
X201790000Y-123370000D02*
X201790000Y-123040000D01*
X208330000Y-123370000D02*
X201790000Y-123370000D01*
X208330000Y-123040000D02*
X208330000Y-123370000D01*
X201790000Y-120630000D02*
X201790000Y-120960000D01*
X208330000Y-120630000D02*
X201790000Y-120630000D01*
X208330000Y-120960000D02*
X208330000Y-120630000D01*
X177790000Y-123370000D02*
X177790000Y-123040000D01*
X184330000Y-123370000D02*
X177790000Y-123370000D01*
X184330000Y-123040000D02*
X184330000Y-123370000D01*
X177790000Y-120630000D02*
X177790000Y-120960000D01*
X184330000Y-120630000D02*
X177790000Y-120630000D01*
X184330000Y-120960000D02*
X184330000Y-120630000D01*
X153790000Y-123370000D02*
X153790000Y-123040000D01*
X160330000Y-123370000D02*
X153790000Y-123370000D01*
X160330000Y-123040000D02*
X160330000Y-123370000D01*
X153790000Y-120630000D02*
X153790000Y-120960000D01*
X160330000Y-120630000D02*
X153790000Y-120630000D01*
X160330000Y-120960000D02*
X160330000Y-120630000D01*
X129790000Y-123370000D02*
X129790000Y-123040000D01*
X136330000Y-123370000D02*
X129790000Y-123370000D01*
X136330000Y-123040000D02*
X136330000Y-123370000D01*
X129790000Y-120630000D02*
X129790000Y-120960000D01*
X136330000Y-120630000D02*
X129790000Y-120630000D01*
X136330000Y-120960000D02*
X136330000Y-120630000D01*
X201790000Y-107370000D02*
X201790000Y-107040000D01*
X208330000Y-107370000D02*
X201790000Y-107370000D01*
X208330000Y-107040000D02*
X208330000Y-107370000D01*
X201790000Y-104630000D02*
X201790000Y-104960000D01*
X208330000Y-104630000D02*
X201790000Y-104630000D01*
X208330000Y-104960000D02*
X208330000Y-104630000D01*
X177790000Y-107370000D02*
X177790000Y-107040000D01*
X184330000Y-107370000D02*
X177790000Y-107370000D01*
X184330000Y-107040000D02*
X184330000Y-107370000D01*
X177790000Y-104630000D02*
X177790000Y-104960000D01*
X184330000Y-104630000D02*
X177790000Y-104630000D01*
X184330000Y-104960000D02*
X184330000Y-104630000D01*
X153790000Y-107370000D02*
X153790000Y-107040000D01*
X160330000Y-107370000D02*
X153790000Y-107370000D01*
X160330000Y-107040000D02*
X160330000Y-107370000D01*
X153790000Y-104630000D02*
X153790000Y-104960000D01*
X160330000Y-104630000D02*
X153790000Y-104630000D01*
X160330000Y-104960000D02*
X160330000Y-104630000D01*
X129790000Y-107370000D02*
X129790000Y-107040000D01*
X136330000Y-107370000D02*
X129790000Y-107370000D01*
X136330000Y-107040000D02*
X136330000Y-107370000D01*
X129790000Y-104630000D02*
X129790000Y-104960000D01*
X136330000Y-104630000D02*
X129790000Y-104630000D01*
X136330000Y-104960000D02*
X136330000Y-104630000D01*
X201790000Y-91370000D02*
X201790000Y-91040000D01*
X208330000Y-91370000D02*
X201790000Y-91370000D01*
X208330000Y-91040000D02*
X208330000Y-91370000D01*
X201790000Y-88630000D02*
X201790000Y-88960000D01*
X208330000Y-88630000D02*
X201790000Y-88630000D01*
X208330000Y-88960000D02*
X208330000Y-88630000D01*
X177790000Y-91370000D02*
X177790000Y-91040000D01*
X184330000Y-91370000D02*
X177790000Y-91370000D01*
X184330000Y-91040000D02*
X184330000Y-91370000D01*
X177790000Y-88630000D02*
X177790000Y-88960000D01*
X184330000Y-88630000D02*
X177790000Y-88630000D01*
X184330000Y-88960000D02*
X184330000Y-88630000D01*
X153790000Y-91370000D02*
X153790000Y-91040000D01*
X160330000Y-91370000D02*
X153790000Y-91370000D01*
X160330000Y-91040000D02*
X160330000Y-91370000D01*
X153790000Y-88630000D02*
X153790000Y-88960000D01*
X160330000Y-88630000D02*
X153790000Y-88630000D01*
X160330000Y-88960000D02*
X160330000Y-88630000D01*
X129790000Y-91370000D02*
X129790000Y-91040000D01*
X136330000Y-91370000D02*
X129790000Y-91370000D01*
X136330000Y-91040000D02*
X136330000Y-91370000D01*
X129790000Y-88630000D02*
X129790000Y-88960000D01*
X136330000Y-88630000D02*
X129790000Y-88630000D01*
X136330000Y-88960000D02*
X136330000Y-88630000D01*
X201790000Y-75370000D02*
X201790000Y-75040000D01*
X208330000Y-75370000D02*
X201790000Y-75370000D01*
X208330000Y-75040000D02*
X208330000Y-75370000D01*
X201790000Y-72630000D02*
X201790000Y-72960000D01*
X208330000Y-72630000D02*
X201790000Y-72630000D01*
X208330000Y-72960000D02*
X208330000Y-72630000D01*
X177790000Y-75370000D02*
X177790000Y-75040000D01*
X184330000Y-75370000D02*
X177790000Y-75370000D01*
X184330000Y-75040000D02*
X184330000Y-75370000D01*
X177790000Y-72630000D02*
X177790000Y-72960000D01*
X184330000Y-72630000D02*
X177790000Y-72630000D01*
X184330000Y-72960000D02*
X184330000Y-72630000D01*
X153790000Y-75370000D02*
X153790000Y-75040000D01*
X160330000Y-75370000D02*
X153790000Y-75370000D01*
X160330000Y-75040000D02*
X160330000Y-75370000D01*
X153790000Y-72630000D02*
X153790000Y-72960000D01*
X160330000Y-72630000D02*
X153790000Y-72630000D01*
X160330000Y-72960000D02*
X160330000Y-72630000D01*
X129790000Y-75370000D02*
X129790000Y-75040000D01*
X136330000Y-75370000D02*
X129790000Y-75370000D01*
X136330000Y-75040000D02*
X136330000Y-75370000D01*
X129790000Y-72630000D02*
X129790000Y-72960000D01*
X136330000Y-72630000D02*
X129790000Y-72630000D01*
X136330000Y-72960000D02*
X136330000Y-72630000D01*
X201790000Y-59370000D02*
X201790000Y-59040000D01*
X208330000Y-59370000D02*
X201790000Y-59370000D01*
X208330000Y-59040000D02*
X208330000Y-59370000D01*
X201790000Y-56630000D02*
X201790000Y-56960000D01*
X208330000Y-56630000D02*
X201790000Y-56630000D01*
X208330000Y-56960000D02*
X208330000Y-56630000D01*
X177790000Y-59370000D02*
X177790000Y-59040000D01*
X184330000Y-59370000D02*
X177790000Y-59370000D01*
X184330000Y-59040000D02*
X184330000Y-59370000D01*
X177790000Y-56630000D02*
X177790000Y-56960000D01*
X184330000Y-56630000D02*
X177790000Y-56630000D01*
X184330000Y-56960000D02*
X184330000Y-56630000D01*
X153790000Y-59370000D02*
X153790000Y-59040000D01*
X160330000Y-59370000D02*
X153790000Y-59370000D01*
X160330000Y-59040000D02*
X160330000Y-59370000D01*
X153790000Y-56630000D02*
X153790000Y-56960000D01*
X160330000Y-56630000D02*
X153790000Y-56630000D01*
X160330000Y-56960000D02*
X160330000Y-56630000D01*
X129790000Y-59370000D02*
X129790000Y-59040000D01*
X136330000Y-59370000D02*
X129790000Y-59370000D01*
X136330000Y-59040000D02*
X136330000Y-59370000D01*
X129790000Y-56630000D02*
X129790000Y-56960000D01*
X136330000Y-56630000D02*
X129790000Y-56630000D01*
X136330000Y-56960000D02*
X136330000Y-56630000D01*
X201790000Y-43370000D02*
X201790000Y-43040000D01*
X208330000Y-43370000D02*
X201790000Y-43370000D01*
X208330000Y-43040000D02*
X208330000Y-43370000D01*
X201790000Y-40630000D02*
X201790000Y-40960000D01*
X208330000Y-40630000D02*
X201790000Y-40630000D01*
X208330000Y-40960000D02*
X208330000Y-40630000D01*
X177790000Y-43370000D02*
X177790000Y-43040000D01*
X184330000Y-43370000D02*
X177790000Y-43370000D01*
X184330000Y-43040000D02*
X184330000Y-43370000D01*
X177790000Y-40630000D02*
X177790000Y-40960000D01*
X184330000Y-40630000D02*
X177790000Y-40630000D01*
X184330000Y-40960000D02*
X184330000Y-40630000D01*
X153790000Y-43370000D02*
X153790000Y-43040000D01*
X160330000Y-43370000D02*
X153790000Y-43370000D01*
X160330000Y-43040000D02*
X160330000Y-43370000D01*
X153790000Y-40630000D02*
X153790000Y-40960000D01*
X160330000Y-40630000D02*
X153790000Y-40630000D01*
X160330000Y-40960000D02*
X160330000Y-40630000D01*
D10*
X216818000Y-127744000D02*
X216818000Y-127244000D01*
X218318000Y-129244000D02*
X216818000Y-127744000D01*
X214818000Y-127744000D02*
X214818000Y-127244000D01*
X213318000Y-129244000D02*
X214818000Y-127744000D01*
X213318000Y-131244000D02*
X213318000Y-129244000D01*
X218318000Y-131244000D02*
X218318000Y-129244000D01*
X214218000Y-122744000D02*
X217418000Y-122744000D01*
X212718000Y-125744000D02*
X212718000Y-124244000D01*
X217418000Y-127244000D02*
X214218000Y-127244000D01*
X218918000Y-125744000D02*
X218918000Y-124244000D01*
X214218000Y-122744000D02*
G75*
G03X212718000Y-124244000I0J-1500000D01*
G01*
X212718000Y-125744000D02*
G75*
G03X214218000Y-127244000I1500000J0D01*
G01*
X218918000Y-124244000D02*
G75*
G03X217418000Y-122744000I-1500000J0D01*
G01*
X217418000Y-127244000D02*
G75*
G03X218918000Y-125744000I0J1500000D01*
G01*
X192818000Y-127744000D02*
X192818000Y-127244000D01*
X194318000Y-129244000D02*
X192818000Y-127744000D01*
X190818000Y-127744000D02*
X190818000Y-127244000D01*
X189318000Y-129244000D02*
X190818000Y-127744000D01*
X189318000Y-131244000D02*
X189318000Y-129244000D01*
X194318000Y-131244000D02*
X194318000Y-129244000D01*
X190218000Y-122744000D02*
X193418000Y-122744000D01*
X188718000Y-125744000D02*
X188718000Y-124244000D01*
X193418000Y-127244000D02*
X190218000Y-127244000D01*
X194918000Y-125744000D02*
X194918000Y-124244000D01*
X190218000Y-122744000D02*
G75*
G03X188718000Y-124244000I0J-1500000D01*
G01*
X188718000Y-125744000D02*
G75*
G03X190218000Y-127244000I1500000J0D01*
G01*
X194918000Y-124244000D02*
G75*
G03X193418000Y-122744000I-1500000J0D01*
G01*
X193418000Y-127244000D02*
G75*
G03X194918000Y-125744000I0J1500000D01*
G01*
X168818000Y-127744000D02*
X168818000Y-127244000D01*
X170318000Y-129244000D02*
X168818000Y-127744000D01*
X166818000Y-127744000D02*
X166818000Y-127244000D01*
X165318000Y-129244000D02*
X166818000Y-127744000D01*
X165318000Y-131244000D02*
X165318000Y-129244000D01*
X170318000Y-131244000D02*
X170318000Y-129244000D01*
X166218000Y-122744000D02*
X169418000Y-122744000D01*
X164718000Y-125744000D02*
X164718000Y-124244000D01*
X169418000Y-127244000D02*
X166218000Y-127244000D01*
X170918000Y-125744000D02*
X170918000Y-124244000D01*
X166218000Y-122744000D02*
G75*
G03X164718000Y-124244000I0J-1500000D01*
G01*
X164718000Y-125744000D02*
G75*
G03X166218000Y-127244000I1500000J0D01*
G01*
X170918000Y-124244000D02*
G75*
G03X169418000Y-122744000I-1500000J0D01*
G01*
X169418000Y-127244000D02*
G75*
G03X170918000Y-125744000I0J1500000D01*
G01*
X144818000Y-127744000D02*
X144818000Y-127244000D01*
X146318000Y-129244000D02*
X144818000Y-127744000D01*
X142818000Y-127744000D02*
X142818000Y-127244000D01*
X141318000Y-129244000D02*
X142818000Y-127744000D01*
X141318000Y-131244000D02*
X141318000Y-129244000D01*
X146318000Y-131244000D02*
X146318000Y-129244000D01*
X142218000Y-122744000D02*
X145418000Y-122744000D01*
X140718000Y-125744000D02*
X140718000Y-124244000D01*
X145418000Y-127244000D02*
X142218000Y-127244000D01*
X146918000Y-125744000D02*
X146918000Y-124244000D01*
X142218000Y-122744000D02*
G75*
G03X140718000Y-124244000I0J-1500000D01*
G01*
X140718000Y-125744000D02*
G75*
G03X142218000Y-127244000I1500000J0D01*
G01*
X146918000Y-124244000D02*
G75*
G03X145418000Y-122744000I-1500000J0D01*
G01*
X145418000Y-127244000D02*
G75*
G03X146918000Y-125744000I0J1500000D01*
G01*
X216818000Y-111744000D02*
X216818000Y-111244000D01*
X218318000Y-113244000D02*
X216818000Y-111744000D01*
X214818000Y-111744000D02*
X214818000Y-111244000D01*
X213318000Y-113244000D02*
X214818000Y-111744000D01*
X213318000Y-115244000D02*
X213318000Y-113244000D01*
X218318000Y-115244000D02*
X218318000Y-113244000D01*
X214218000Y-106744000D02*
X217418000Y-106744000D01*
X212718000Y-109744000D02*
X212718000Y-108244000D01*
X217418000Y-111244000D02*
X214218000Y-111244000D01*
X218918000Y-109744000D02*
X218918000Y-108244000D01*
X214218000Y-106744000D02*
G75*
G03X212718000Y-108244000I0J-1500000D01*
G01*
X212718000Y-109744000D02*
G75*
G03X214218000Y-111244000I1500000J0D01*
G01*
X218918000Y-108244000D02*
G75*
G03X217418000Y-106744000I-1500000J0D01*
G01*
X217418000Y-111244000D02*
G75*
G03X218918000Y-109744000I0J1500000D01*
G01*
X192818000Y-111744000D02*
X192818000Y-111244000D01*
X194318000Y-113244000D02*
X192818000Y-111744000D01*
X190818000Y-111744000D02*
X190818000Y-111244000D01*
X189318000Y-113244000D02*
X190818000Y-111744000D01*
X189318000Y-115244000D02*
X189318000Y-113244000D01*
X194318000Y-115244000D02*
X194318000Y-113244000D01*
X190218000Y-106744000D02*
X193418000Y-106744000D01*
X188718000Y-109744000D02*
X188718000Y-108244000D01*
X193418000Y-111244000D02*
X190218000Y-111244000D01*
X194918000Y-109744000D02*
X194918000Y-108244000D01*
X190218000Y-106744000D02*
G75*
G03X188718000Y-108244000I0J-1500000D01*
G01*
X188718000Y-109744000D02*
G75*
G03X190218000Y-111244000I1500000J0D01*
G01*
X194918000Y-108244000D02*
G75*
G03X193418000Y-106744000I-1500000J0D01*
G01*
X193418000Y-111244000D02*
G75*
G03X194918000Y-109744000I0J1500000D01*
G01*
X168818000Y-111744000D02*
X168818000Y-111244000D01*
X170318000Y-113244000D02*
X168818000Y-111744000D01*
X166818000Y-111744000D02*
X166818000Y-111244000D01*
X165318000Y-113244000D02*
X166818000Y-111744000D01*
X165318000Y-115244000D02*
X165318000Y-113244000D01*
X170318000Y-115244000D02*
X170318000Y-113244000D01*
X166218000Y-106744000D02*
X169418000Y-106744000D01*
X164718000Y-109744000D02*
X164718000Y-108244000D01*
X169418000Y-111244000D02*
X166218000Y-111244000D01*
X170918000Y-109744000D02*
X170918000Y-108244000D01*
X166218000Y-106744000D02*
G75*
G03X164718000Y-108244000I0J-1500000D01*
G01*
X164718000Y-109744000D02*
G75*
G03X166218000Y-111244000I1500000J0D01*
G01*
X170918000Y-108244000D02*
G75*
G03X169418000Y-106744000I-1500000J0D01*
G01*
X169418000Y-111244000D02*
G75*
G03X170918000Y-109744000I0J1500000D01*
G01*
X144818000Y-111744000D02*
X144818000Y-111244000D01*
X146318000Y-113244000D02*
X144818000Y-111744000D01*
X142818000Y-111744000D02*
X142818000Y-111244000D01*
X141318000Y-113244000D02*
X142818000Y-111744000D01*
X141318000Y-115244000D02*
X141318000Y-113244000D01*
X146318000Y-115244000D02*
X146318000Y-113244000D01*
X142218000Y-106744000D02*
X145418000Y-106744000D01*
X140718000Y-109744000D02*
X140718000Y-108244000D01*
X145418000Y-111244000D02*
X142218000Y-111244000D01*
X146918000Y-109744000D02*
X146918000Y-108244000D01*
X142218000Y-106744000D02*
G75*
G03X140718000Y-108244000I0J-1500000D01*
G01*
X140718000Y-109744000D02*
G75*
G03X142218000Y-111244000I1500000J0D01*
G01*
X146918000Y-108244000D02*
G75*
G03X145418000Y-106744000I-1500000J0D01*
G01*
X145418000Y-111244000D02*
G75*
G03X146918000Y-109744000I0J1500000D01*
G01*
X216818000Y-95744000D02*
X216818000Y-95244000D01*
X218318000Y-97244000D02*
X216818000Y-95744000D01*
X214818000Y-95744000D02*
X214818000Y-95244000D01*
X213318000Y-97244000D02*
X214818000Y-95744000D01*
X213318000Y-99244000D02*
X213318000Y-97244000D01*
X218318000Y-99244000D02*
X218318000Y-97244000D01*
X214218000Y-90744000D02*
X217418000Y-90744000D01*
X212718000Y-93744000D02*
X212718000Y-92244000D01*
X217418000Y-95244000D02*
X214218000Y-95244000D01*
X218918000Y-93744000D02*
X218918000Y-92244000D01*
X214218000Y-90744000D02*
G75*
G03X212718000Y-92244000I0J-1500000D01*
G01*
X212718000Y-93744000D02*
G75*
G03X214218000Y-95244000I1500000J0D01*
G01*
X218918000Y-92244000D02*
G75*
G03X217418000Y-90744000I-1500000J0D01*
G01*
X217418000Y-95244000D02*
G75*
G03X218918000Y-93744000I0J1500000D01*
G01*
X192818000Y-95744000D02*
X192818000Y-95244000D01*
X194318000Y-97244000D02*
X192818000Y-95744000D01*
X190818000Y-95744000D02*
X190818000Y-95244000D01*
X189318000Y-97244000D02*
X190818000Y-95744000D01*
X189318000Y-99244000D02*
X189318000Y-97244000D01*
X194318000Y-99244000D02*
X194318000Y-97244000D01*
X190218000Y-90744000D02*
X193418000Y-90744000D01*
X188718000Y-93744000D02*
X188718000Y-92244000D01*
X193418000Y-95244000D02*
X190218000Y-95244000D01*
X194918000Y-93744000D02*
X194918000Y-92244000D01*
X190218000Y-90744000D02*
G75*
G03X188718000Y-92244000I0J-1500000D01*
G01*
X188718000Y-93744000D02*
G75*
G03X190218000Y-95244000I1500000J0D01*
G01*
X194918000Y-92244000D02*
G75*
G03X193418000Y-90744000I-1500000J0D01*
G01*
X193418000Y-95244000D02*
G75*
G03X194918000Y-93744000I0J1500000D01*
G01*
X168818000Y-95744000D02*
X168818000Y-95244000D01*
X170318000Y-97244000D02*
X168818000Y-95744000D01*
X166818000Y-95744000D02*
X166818000Y-95244000D01*
X165318000Y-97244000D02*
X166818000Y-95744000D01*
X165318000Y-99244000D02*
X165318000Y-97244000D01*
X170318000Y-99244000D02*
X170318000Y-97244000D01*
X166218000Y-90744000D02*
X169418000Y-90744000D01*
X164718000Y-93744000D02*
X164718000Y-92244000D01*
X169418000Y-95244000D02*
X166218000Y-95244000D01*
X170918000Y-93744000D02*
X170918000Y-92244000D01*
X166218000Y-90744000D02*
G75*
G03X164718000Y-92244000I0J-1500000D01*
G01*
X164718000Y-93744000D02*
G75*
G03X166218000Y-95244000I1500000J0D01*
G01*
X170918000Y-92244000D02*
G75*
G03X169418000Y-90744000I-1500000J0D01*
G01*
X169418000Y-95244000D02*
G75*
G03X170918000Y-93744000I0J1500000D01*
G01*
X144818000Y-95744000D02*
X144818000Y-95244000D01*
X146318000Y-97244000D02*
X144818000Y-95744000D01*
X142818000Y-95744000D02*
X142818000Y-95244000D01*
X141318000Y-97244000D02*
X142818000Y-95744000D01*
X141318000Y-99244000D02*
X141318000Y-97244000D01*
X146318000Y-99244000D02*
X146318000Y-97244000D01*
X142218000Y-90744000D02*
X145418000Y-90744000D01*
X140718000Y-93744000D02*
X140718000Y-92244000D01*
X145418000Y-95244000D02*
X142218000Y-95244000D01*
X146918000Y-93744000D02*
X146918000Y-92244000D01*
X142218000Y-90744000D02*
G75*
G03X140718000Y-92244000I0J-1500000D01*
G01*
X140718000Y-93744000D02*
G75*
G03X142218000Y-95244000I1500000J0D01*
G01*
X146918000Y-92244000D02*
G75*
G03X145418000Y-90744000I-1500000J0D01*
G01*
X145418000Y-95244000D02*
G75*
G03X146918000Y-93744000I0J1500000D01*
G01*
X216818000Y-79744000D02*
X216818000Y-79244000D01*
X218318000Y-81244000D02*
X216818000Y-79744000D01*
X214818000Y-79744000D02*
X214818000Y-79244000D01*
X213318000Y-81244000D02*
X214818000Y-79744000D01*
X213318000Y-83244000D02*
X213318000Y-81244000D01*
X218318000Y-83244000D02*
X218318000Y-81244000D01*
X214218000Y-74744000D02*
X217418000Y-74744000D01*
X212718000Y-77744000D02*
X212718000Y-76244000D01*
X217418000Y-79244000D02*
X214218000Y-79244000D01*
X218918000Y-77744000D02*
X218918000Y-76244000D01*
X214218000Y-74744000D02*
G75*
G03X212718000Y-76244000I0J-1500000D01*
G01*
X212718000Y-77744000D02*
G75*
G03X214218000Y-79244000I1500000J0D01*
G01*
X218918000Y-76244000D02*
G75*
G03X217418000Y-74744000I-1500000J0D01*
G01*
X217418000Y-79244000D02*
G75*
G03X218918000Y-77744000I0J1500000D01*
G01*
X192818000Y-79744000D02*
X192818000Y-79244000D01*
X194318000Y-81244000D02*
X192818000Y-79744000D01*
X190818000Y-79744000D02*
X190818000Y-79244000D01*
X189318000Y-81244000D02*
X190818000Y-79744000D01*
X189318000Y-83244000D02*
X189318000Y-81244000D01*
X194318000Y-83244000D02*
X194318000Y-81244000D01*
X190218000Y-74744000D02*
X193418000Y-74744000D01*
X188718000Y-77744000D02*
X188718000Y-76244000D01*
X193418000Y-79244000D02*
X190218000Y-79244000D01*
X194918000Y-77744000D02*
X194918000Y-76244000D01*
X190218000Y-74744000D02*
G75*
G03X188718000Y-76244000I0J-1500000D01*
G01*
X188718000Y-77744000D02*
G75*
G03X190218000Y-79244000I1500000J0D01*
G01*
X194918000Y-76244000D02*
G75*
G03X193418000Y-74744000I-1500000J0D01*
G01*
X193418000Y-79244000D02*
G75*
G03X194918000Y-77744000I0J1500000D01*
G01*
X168818000Y-79744000D02*
X168818000Y-79244000D01*
X170318000Y-81244000D02*
X168818000Y-79744000D01*
X166818000Y-79744000D02*
X166818000Y-79244000D01*
X165318000Y-81244000D02*
X166818000Y-79744000D01*
X165318000Y-83244000D02*
X165318000Y-81244000D01*
X170318000Y-83244000D02*
X170318000Y-81244000D01*
X166218000Y-74744000D02*
X169418000Y-74744000D01*
X164718000Y-77744000D02*
X164718000Y-76244000D01*
X169418000Y-79244000D02*
X166218000Y-79244000D01*
X170918000Y-77744000D02*
X170918000Y-76244000D01*
X166218000Y-74744000D02*
G75*
G03X164718000Y-76244000I0J-1500000D01*
G01*
X164718000Y-77744000D02*
G75*
G03X166218000Y-79244000I1500000J0D01*
G01*
X170918000Y-76244000D02*
G75*
G03X169418000Y-74744000I-1500000J0D01*
G01*
X169418000Y-79244000D02*
G75*
G03X170918000Y-77744000I0J1500000D01*
G01*
X144818000Y-79744000D02*
X144818000Y-79244000D01*
X146318000Y-81244000D02*
X144818000Y-79744000D01*
X142818000Y-79744000D02*
X142818000Y-79244000D01*
X141318000Y-81244000D02*
X142818000Y-79744000D01*
X141318000Y-83244000D02*
X141318000Y-81244000D01*
X146318000Y-83244000D02*
X146318000Y-81244000D01*
X142218000Y-74744000D02*
X145418000Y-74744000D01*
X140718000Y-77744000D02*
X140718000Y-76244000D01*
X145418000Y-79244000D02*
X142218000Y-79244000D01*
X146918000Y-77744000D02*
X146918000Y-76244000D01*
X142218000Y-74744000D02*
G75*
G03X140718000Y-76244000I0J-1500000D01*
G01*
X140718000Y-77744000D02*
G75*
G03X142218000Y-79244000I1500000J0D01*
G01*
X146918000Y-76244000D02*
G75*
G03X145418000Y-74744000I-1500000J0D01*
G01*
X145418000Y-79244000D02*
G75*
G03X146918000Y-77744000I0J1500000D01*
G01*
X216818000Y-63744000D02*
X216818000Y-63244000D01*
X218318000Y-65244000D02*
X216818000Y-63744000D01*
X214818000Y-63744000D02*
X214818000Y-63244000D01*
X213318000Y-65244000D02*
X214818000Y-63744000D01*
X213318000Y-67244000D02*
X213318000Y-65244000D01*
X218318000Y-67244000D02*
X218318000Y-65244000D01*
X214218000Y-58744000D02*
X217418000Y-58744000D01*
X212718000Y-61744000D02*
X212718000Y-60244000D01*
X217418000Y-63244000D02*
X214218000Y-63244000D01*
X218918000Y-61744000D02*
X218918000Y-60244000D01*
X214218000Y-58744000D02*
G75*
G03X212718000Y-60244000I0J-1500000D01*
G01*
X212718000Y-61744000D02*
G75*
G03X214218000Y-63244000I1500000J0D01*
G01*
X218918000Y-60244000D02*
G75*
G03X217418000Y-58744000I-1500000J0D01*
G01*
X217418000Y-63244000D02*
G75*
G03X218918000Y-61744000I0J1500000D01*
G01*
X192818000Y-63744000D02*
X192818000Y-63244000D01*
X194318000Y-65244000D02*
X192818000Y-63744000D01*
X190818000Y-63744000D02*
X190818000Y-63244000D01*
X189318000Y-65244000D02*
X190818000Y-63744000D01*
X189318000Y-67244000D02*
X189318000Y-65244000D01*
X194318000Y-67244000D02*
X194318000Y-65244000D01*
X190218000Y-58744000D02*
X193418000Y-58744000D01*
X188718000Y-61744000D02*
X188718000Y-60244000D01*
X193418000Y-63244000D02*
X190218000Y-63244000D01*
X194918000Y-61744000D02*
X194918000Y-60244000D01*
X190218000Y-58744000D02*
G75*
G03X188718000Y-60244000I0J-1500000D01*
G01*
X188718000Y-61744000D02*
G75*
G03X190218000Y-63244000I1500000J0D01*
G01*
X194918000Y-60244000D02*
G75*
G03X193418000Y-58744000I-1500000J0D01*
G01*
X193418000Y-63244000D02*
G75*
G03X194918000Y-61744000I0J1500000D01*
G01*
X168818000Y-63744000D02*
X168818000Y-63244000D01*
X170318000Y-65244000D02*
X168818000Y-63744000D01*
X166818000Y-63744000D02*
X166818000Y-63244000D01*
X165318000Y-65244000D02*
X166818000Y-63744000D01*
X165318000Y-67244000D02*
X165318000Y-65244000D01*
X170318000Y-67244000D02*
X170318000Y-65244000D01*
X166218000Y-58744000D02*
X169418000Y-58744000D01*
X164718000Y-61744000D02*
X164718000Y-60244000D01*
X169418000Y-63244000D02*
X166218000Y-63244000D01*
X170918000Y-61744000D02*
X170918000Y-60244000D01*
X166218000Y-58744000D02*
G75*
G03X164718000Y-60244000I0J-1500000D01*
G01*
X164718000Y-61744000D02*
G75*
G03X166218000Y-63244000I1500000J0D01*
G01*
X170918000Y-60244000D02*
G75*
G03X169418000Y-58744000I-1500000J0D01*
G01*
X169418000Y-63244000D02*
G75*
G03X170918000Y-61744000I0J1500000D01*
G01*
X144818000Y-63744000D02*
X144818000Y-63244000D01*
X146318000Y-65244000D02*
X144818000Y-63744000D01*
X142818000Y-63744000D02*
X142818000Y-63244000D01*
X141318000Y-65244000D02*
X142818000Y-63744000D01*
X141318000Y-67244000D02*
X141318000Y-65244000D01*
X146318000Y-67244000D02*
X146318000Y-65244000D01*
X142218000Y-58744000D02*
X145418000Y-58744000D01*
X140718000Y-61744000D02*
X140718000Y-60244000D01*
X145418000Y-63244000D02*
X142218000Y-63244000D01*
X146918000Y-61744000D02*
X146918000Y-60244000D01*
X142218000Y-58744000D02*
G75*
G03X140718000Y-60244000I0J-1500000D01*
G01*
X140718000Y-61744000D02*
G75*
G03X142218000Y-63244000I1500000J0D01*
G01*
X146918000Y-60244000D02*
G75*
G03X145418000Y-58744000I-1500000J0D01*
G01*
X145418000Y-63244000D02*
G75*
G03X146918000Y-61744000I0J1500000D01*
G01*
X216818000Y-47744000D02*
X216818000Y-47244000D01*
X218318000Y-49244000D02*
X216818000Y-47744000D01*
X214818000Y-47744000D02*
X214818000Y-47244000D01*
X213318000Y-49244000D02*
X214818000Y-47744000D01*
X213318000Y-51244000D02*
X213318000Y-49244000D01*
X218318000Y-51244000D02*
X218318000Y-49244000D01*
X214218000Y-42744000D02*
X217418000Y-42744000D01*
X212718000Y-45744000D02*
X212718000Y-44244000D01*
X217418000Y-47244000D02*
X214218000Y-47244000D01*
X218918000Y-45744000D02*
X218918000Y-44244000D01*
X214218000Y-42744000D02*
G75*
G03X212718000Y-44244000I0J-1500000D01*
G01*
X212718000Y-45744000D02*
G75*
G03X214218000Y-47244000I1500000J0D01*
G01*
X218918000Y-44244000D02*
G75*
G03X217418000Y-42744000I-1500000J0D01*
G01*
X217418000Y-47244000D02*
G75*
G03X218918000Y-45744000I0J1500000D01*
G01*
X192818000Y-47744000D02*
X192818000Y-47244000D01*
X194318000Y-49244000D02*
X192818000Y-47744000D01*
X190818000Y-47744000D02*
X190818000Y-47244000D01*
X189318000Y-49244000D02*
X190818000Y-47744000D01*
X189318000Y-51244000D02*
X189318000Y-49244000D01*
X194318000Y-51244000D02*
X194318000Y-49244000D01*
X190218000Y-42744000D02*
X193418000Y-42744000D01*
X188718000Y-45744000D02*
X188718000Y-44244000D01*
X193418000Y-47244000D02*
X190218000Y-47244000D01*
X194918000Y-45744000D02*
X194918000Y-44244000D01*
X190218000Y-42744000D02*
G75*
G03X188718000Y-44244000I0J-1500000D01*
G01*
X188718000Y-45744000D02*
G75*
G03X190218000Y-47244000I1500000J0D01*
G01*
X194918000Y-44244000D02*
G75*
G03X193418000Y-42744000I-1500000J0D01*
G01*
X193418000Y-47244000D02*
G75*
G03X194918000Y-45744000I0J1500000D01*
G01*
X168818000Y-47744000D02*
X168818000Y-47244000D01*
X170318000Y-49244000D02*
X168818000Y-47744000D01*
X166818000Y-47744000D02*
X166818000Y-47244000D01*
X165318000Y-49244000D02*
X166818000Y-47744000D01*
X165318000Y-51244000D02*
X165318000Y-49244000D01*
X170318000Y-51244000D02*
X170318000Y-49244000D01*
X166218000Y-42744000D02*
X169418000Y-42744000D01*
X164718000Y-45744000D02*
X164718000Y-44244000D01*
X169418000Y-47244000D02*
X166218000Y-47244000D01*
X170918000Y-45744000D02*
X170918000Y-44244000D01*
X166218000Y-42744000D02*
G75*
G03X164718000Y-44244000I0J-1500000D01*
G01*
X164718000Y-45744000D02*
G75*
G03X166218000Y-47244000I1500000J0D01*
G01*
X170918000Y-44244000D02*
G75*
G03X169418000Y-42744000I-1500000J0D01*
G01*
X169418000Y-47244000D02*
G75*
G03X170918000Y-45744000I0J1500000D01*
G01*
X145418000Y-47244000D02*
G75*
G03X146918000Y-45744000I0J1500000D01*
G01*
X146918000Y-44244000D02*
G75*
G03X145418000Y-42744000I-1500000J0D01*
G01*
X140718000Y-45744000D02*
G75*
G03X142218000Y-47244000I1500000J0D01*
G01*
X142218000Y-42744000D02*
G75*
G03X140718000Y-44244000I0J-1500000D01*
G01*
X146918000Y-45744000D02*
X146918000Y-44244000D01*
X145418000Y-47244000D02*
X142218000Y-47244000D01*
X140718000Y-45744000D02*
X140718000Y-44244000D01*
X142218000Y-42744000D02*
X145418000Y-42744000D01*
X146318000Y-51244000D02*
X146318000Y-49244000D01*
X141318000Y-51244000D02*
X141318000Y-49244000D01*
X141318000Y-49244000D02*
X142818000Y-47744000D01*
X142818000Y-47744000D02*
X142818000Y-47244000D01*
X146318000Y-49244000D02*
X144818000Y-47744000D01*
X144818000Y-47744000D02*
X144818000Y-47244000D01*
D11*
X136330000Y-40960000D02*
X136330000Y-40630000D01*
X136330000Y-40630000D02*
X129790000Y-40630000D01*
X129790000Y-40630000D02*
X129790000Y-40960000D01*
X136330000Y-43040000D02*
X136330000Y-43370000D01*
X136330000Y-43370000D02*
X129790000Y-43370000D01*
X129790000Y-43370000D02*
X129790000Y-43040000D01*
X140236000Y-49540000D02*
X140080000Y-49540000D01*
X137920000Y-49540000D02*
X137764000Y-49540000D01*
X140078608Y-46307665D02*
G75*
G02X140235516Y-49540000I-1078608J-1672335D01*
G01*
X137921392Y-46307665D02*
G75*
G03X137764484Y-49540000I1078608J-1672335D01*
G01*
X140079837Y-46938870D02*
G75*
G02X140080000Y-49020961I-1079837J-1041130D01*
G01*
X137920163Y-46938870D02*
G75*
G03X137920000Y-49020961I1079837J-1041130D01*
G01*
X131729999Y-52480000D02*
X131729999Y-49690000D01*
X132999999Y-52480000D02*
X132999999Y-49690000D01*
X134269999Y-52480000D02*
X134269999Y-49690000D01*
X130599999Y-49690000D02*
X135399999Y-49690000D01*
X135399999Y-49690000D02*
X135399999Y-44500000D01*
X135399999Y-44500000D02*
X130599999Y-44500000D01*
X130599999Y-44500000D02*
X130599999Y-49690000D01*
D10*
X205095238Y-127647619D02*
X205190476Y-127600000D01*
X205285714Y-127504761D01*
X205428571Y-127361904D01*
X205523809Y-127314285D01*
X205619047Y-127314285D01*
X205571428Y-127552380D02*
X205666666Y-127504761D01*
X205761904Y-127409523D01*
X205809523Y-127219047D01*
X205809523Y-126885714D01*
X205761904Y-126695238D01*
X205666666Y-126600000D01*
X205571428Y-126552380D01*
X205380952Y-126552380D01*
X205285714Y-126600000D01*
X205190476Y-126695238D01*
X205142857Y-126885714D01*
X205142857Y-127219047D01*
X205190476Y-127409523D01*
X205285714Y-127504761D01*
X205380952Y-127552380D01*
X205571428Y-127552380D01*
X204238095Y-126552380D02*
X204714285Y-126552380D01*
X204761904Y-127028571D01*
X204714285Y-126980952D01*
X204619047Y-126933333D01*
X204380952Y-126933333D01*
X204285714Y-126980952D01*
X204238095Y-127028571D01*
X204190476Y-127123809D01*
X204190476Y-127361904D01*
X204238095Y-127457142D01*
X204285714Y-127504761D01*
X204380952Y-127552380D01*
X204619047Y-127552380D01*
X204714285Y-127504761D01*
X204761904Y-127457142D01*
X181095238Y-127647619D02*
X181190476Y-127600000D01*
X181285714Y-127504761D01*
X181428571Y-127361904D01*
X181523809Y-127314285D01*
X181619047Y-127314285D01*
X181571428Y-127552380D02*
X181666666Y-127504761D01*
X181761904Y-127409523D01*
X181809523Y-127219047D01*
X181809523Y-126885714D01*
X181761904Y-126695238D01*
X181666666Y-126600000D01*
X181571428Y-126552380D01*
X181380952Y-126552380D01*
X181285714Y-126600000D01*
X181190476Y-126695238D01*
X181142857Y-126885714D01*
X181142857Y-127219047D01*
X181190476Y-127409523D01*
X181285714Y-127504761D01*
X181380952Y-127552380D01*
X181571428Y-127552380D01*
X180238095Y-126552380D02*
X180714285Y-126552380D01*
X180761904Y-127028571D01*
X180714285Y-126980952D01*
X180619047Y-126933333D01*
X180380952Y-126933333D01*
X180285714Y-126980952D01*
X180238095Y-127028571D01*
X180190476Y-127123809D01*
X180190476Y-127361904D01*
X180238095Y-127457142D01*
X180285714Y-127504761D01*
X180380952Y-127552380D01*
X180619047Y-127552380D01*
X180714285Y-127504761D01*
X180761904Y-127457142D01*
X157095238Y-127647619D02*
X157190476Y-127600000D01*
X157285714Y-127504761D01*
X157428571Y-127361904D01*
X157523809Y-127314285D01*
X157619047Y-127314285D01*
X157571428Y-127552380D02*
X157666666Y-127504761D01*
X157761904Y-127409523D01*
X157809523Y-127219047D01*
X157809523Y-126885714D01*
X157761904Y-126695238D01*
X157666666Y-126600000D01*
X157571428Y-126552380D01*
X157380952Y-126552380D01*
X157285714Y-126600000D01*
X157190476Y-126695238D01*
X157142857Y-126885714D01*
X157142857Y-127219047D01*
X157190476Y-127409523D01*
X157285714Y-127504761D01*
X157380952Y-127552380D01*
X157571428Y-127552380D01*
X156238095Y-126552380D02*
X156714285Y-126552380D01*
X156761904Y-127028571D01*
X156714285Y-126980952D01*
X156619047Y-126933333D01*
X156380952Y-126933333D01*
X156285714Y-126980952D01*
X156238095Y-127028571D01*
X156190476Y-127123809D01*
X156190476Y-127361904D01*
X156238095Y-127457142D01*
X156285714Y-127504761D01*
X156380952Y-127552380D01*
X156619047Y-127552380D01*
X156714285Y-127504761D01*
X156761904Y-127457142D01*
X133095238Y-127647619D02*
X133190476Y-127600000D01*
X133285714Y-127504761D01*
X133428571Y-127361904D01*
X133523809Y-127314285D01*
X133619047Y-127314285D01*
X133571428Y-127552380D02*
X133666666Y-127504761D01*
X133761904Y-127409523D01*
X133809523Y-127219047D01*
X133809523Y-126885714D01*
X133761904Y-126695238D01*
X133666666Y-126600000D01*
X133571428Y-126552380D01*
X133380952Y-126552380D01*
X133285714Y-126600000D01*
X133190476Y-126695238D01*
X133142857Y-126885714D01*
X133142857Y-127219047D01*
X133190476Y-127409523D01*
X133285714Y-127504761D01*
X133380952Y-127552380D01*
X133571428Y-127552380D01*
X132238095Y-126552380D02*
X132714285Y-126552380D01*
X132761904Y-127028571D01*
X132714285Y-126980952D01*
X132619047Y-126933333D01*
X132380952Y-126933333D01*
X132285714Y-126980952D01*
X132238095Y-127028571D01*
X132190476Y-127123809D01*
X132190476Y-127361904D01*
X132238095Y-127457142D01*
X132285714Y-127504761D01*
X132380952Y-127552380D01*
X132619047Y-127552380D01*
X132714285Y-127504761D01*
X132761904Y-127457142D01*
X205095238Y-111647619D02*
X205190476Y-111600000D01*
X205285714Y-111504761D01*
X205428571Y-111361904D01*
X205523809Y-111314285D01*
X205619047Y-111314285D01*
X205571428Y-111552380D02*
X205666666Y-111504761D01*
X205761904Y-111409523D01*
X205809523Y-111219047D01*
X205809523Y-110885714D01*
X205761904Y-110695238D01*
X205666666Y-110600000D01*
X205571428Y-110552380D01*
X205380952Y-110552380D01*
X205285714Y-110600000D01*
X205190476Y-110695238D01*
X205142857Y-110885714D01*
X205142857Y-111219047D01*
X205190476Y-111409523D01*
X205285714Y-111504761D01*
X205380952Y-111552380D01*
X205571428Y-111552380D01*
X204238095Y-110552380D02*
X204714285Y-110552380D01*
X204761904Y-111028571D01*
X204714285Y-110980952D01*
X204619047Y-110933333D01*
X204380952Y-110933333D01*
X204285714Y-110980952D01*
X204238095Y-111028571D01*
X204190476Y-111123809D01*
X204190476Y-111361904D01*
X204238095Y-111457142D01*
X204285714Y-111504761D01*
X204380952Y-111552380D01*
X204619047Y-111552380D01*
X204714285Y-111504761D01*
X204761904Y-111457142D01*
X181095238Y-111647619D02*
X181190476Y-111600000D01*
X181285714Y-111504761D01*
X181428571Y-111361904D01*
X181523809Y-111314285D01*
X181619047Y-111314285D01*
X181571428Y-111552380D02*
X181666666Y-111504761D01*
X181761904Y-111409523D01*
X181809523Y-111219047D01*
X181809523Y-110885714D01*
X181761904Y-110695238D01*
X181666666Y-110600000D01*
X181571428Y-110552380D01*
X181380952Y-110552380D01*
X181285714Y-110600000D01*
X181190476Y-110695238D01*
X181142857Y-110885714D01*
X181142857Y-111219047D01*
X181190476Y-111409523D01*
X181285714Y-111504761D01*
X181380952Y-111552380D01*
X181571428Y-111552380D01*
X180238095Y-110552380D02*
X180714285Y-110552380D01*
X180761904Y-111028571D01*
X180714285Y-110980952D01*
X180619047Y-110933333D01*
X180380952Y-110933333D01*
X180285714Y-110980952D01*
X180238095Y-111028571D01*
X180190476Y-111123809D01*
X180190476Y-111361904D01*
X180238095Y-111457142D01*
X180285714Y-111504761D01*
X180380952Y-111552380D01*
X180619047Y-111552380D01*
X180714285Y-111504761D01*
X180761904Y-111457142D01*
X157095238Y-111647619D02*
X157190476Y-111600000D01*
X157285714Y-111504761D01*
X157428571Y-111361904D01*
X157523809Y-111314285D01*
X157619047Y-111314285D01*
X157571428Y-111552380D02*
X157666666Y-111504761D01*
X157761904Y-111409523D01*
X157809523Y-111219047D01*
X157809523Y-110885714D01*
X157761904Y-110695238D01*
X157666666Y-110600000D01*
X157571428Y-110552380D01*
X157380952Y-110552380D01*
X157285714Y-110600000D01*
X157190476Y-110695238D01*
X157142857Y-110885714D01*
X157142857Y-111219047D01*
X157190476Y-111409523D01*
X157285714Y-111504761D01*
X157380952Y-111552380D01*
X157571428Y-111552380D01*
X156238095Y-110552380D02*
X156714285Y-110552380D01*
X156761904Y-111028571D01*
X156714285Y-110980952D01*
X156619047Y-110933333D01*
X156380952Y-110933333D01*
X156285714Y-110980952D01*
X156238095Y-111028571D01*
X156190476Y-111123809D01*
X156190476Y-111361904D01*
X156238095Y-111457142D01*
X156285714Y-111504761D01*
X156380952Y-111552380D01*
X156619047Y-111552380D01*
X156714285Y-111504761D01*
X156761904Y-111457142D01*
X133095238Y-111647619D02*
X133190476Y-111600000D01*
X133285714Y-111504761D01*
X133428571Y-111361904D01*
X133523809Y-111314285D01*
X133619047Y-111314285D01*
X133571428Y-111552380D02*
X133666666Y-111504761D01*
X133761904Y-111409523D01*
X133809523Y-111219047D01*
X133809523Y-110885714D01*
X133761904Y-110695238D01*
X133666666Y-110600000D01*
X133571428Y-110552380D01*
X133380952Y-110552380D01*
X133285714Y-110600000D01*
X133190476Y-110695238D01*
X133142857Y-110885714D01*
X133142857Y-111219047D01*
X133190476Y-111409523D01*
X133285714Y-111504761D01*
X133380952Y-111552380D01*
X133571428Y-111552380D01*
X132238095Y-110552380D02*
X132714285Y-110552380D01*
X132761904Y-111028571D01*
X132714285Y-110980952D01*
X132619047Y-110933333D01*
X132380952Y-110933333D01*
X132285714Y-110980952D01*
X132238095Y-111028571D01*
X132190476Y-111123809D01*
X132190476Y-111361904D01*
X132238095Y-111457142D01*
X132285714Y-111504761D01*
X132380952Y-111552380D01*
X132619047Y-111552380D01*
X132714285Y-111504761D01*
X132761904Y-111457142D01*
X205095238Y-95647619D02*
X205190476Y-95600000D01*
X205285714Y-95504761D01*
X205428571Y-95361904D01*
X205523809Y-95314285D01*
X205619047Y-95314285D01*
X205571428Y-95552380D02*
X205666666Y-95504761D01*
X205761904Y-95409523D01*
X205809523Y-95219047D01*
X205809523Y-94885714D01*
X205761904Y-94695238D01*
X205666666Y-94600000D01*
X205571428Y-94552380D01*
X205380952Y-94552380D01*
X205285714Y-94600000D01*
X205190476Y-94695238D01*
X205142857Y-94885714D01*
X205142857Y-95219047D01*
X205190476Y-95409523D01*
X205285714Y-95504761D01*
X205380952Y-95552380D01*
X205571428Y-95552380D01*
X204238095Y-94552380D02*
X204714285Y-94552380D01*
X204761904Y-95028571D01*
X204714285Y-94980952D01*
X204619047Y-94933333D01*
X204380952Y-94933333D01*
X204285714Y-94980952D01*
X204238095Y-95028571D01*
X204190476Y-95123809D01*
X204190476Y-95361904D01*
X204238095Y-95457142D01*
X204285714Y-95504761D01*
X204380952Y-95552380D01*
X204619047Y-95552380D01*
X204714285Y-95504761D01*
X204761904Y-95457142D01*
X181095238Y-95647619D02*
X181190476Y-95600000D01*
X181285714Y-95504761D01*
X181428571Y-95361904D01*
X181523809Y-95314285D01*
X181619047Y-95314285D01*
X181571428Y-95552380D02*
X181666666Y-95504761D01*
X181761904Y-95409523D01*
X181809523Y-95219047D01*
X181809523Y-94885714D01*
X181761904Y-94695238D01*
X181666666Y-94600000D01*
X181571428Y-94552380D01*
X181380952Y-94552380D01*
X181285714Y-94600000D01*
X181190476Y-94695238D01*
X181142857Y-94885714D01*
X181142857Y-95219047D01*
X181190476Y-95409523D01*
X181285714Y-95504761D01*
X181380952Y-95552380D01*
X181571428Y-95552380D01*
X180238095Y-94552380D02*
X180714285Y-94552380D01*
X180761904Y-95028571D01*
X180714285Y-94980952D01*
X180619047Y-94933333D01*
X180380952Y-94933333D01*
X180285714Y-94980952D01*
X180238095Y-95028571D01*
X180190476Y-95123809D01*
X180190476Y-95361904D01*
X180238095Y-95457142D01*
X180285714Y-95504761D01*
X180380952Y-95552380D01*
X180619047Y-95552380D01*
X180714285Y-95504761D01*
X180761904Y-95457142D01*
X157095238Y-95647619D02*
X157190476Y-95600000D01*
X157285714Y-95504761D01*
X157428571Y-95361904D01*
X157523809Y-95314285D01*
X157619047Y-95314285D01*
X157571428Y-95552380D02*
X157666666Y-95504761D01*
X157761904Y-95409523D01*
X157809523Y-95219047D01*
X157809523Y-94885714D01*
X157761904Y-94695238D01*
X157666666Y-94600000D01*
X157571428Y-94552380D01*
X157380952Y-94552380D01*
X157285714Y-94600000D01*
X157190476Y-94695238D01*
X157142857Y-94885714D01*
X157142857Y-95219047D01*
X157190476Y-95409523D01*
X157285714Y-95504761D01*
X157380952Y-95552380D01*
X157571428Y-95552380D01*
X156238095Y-94552380D02*
X156714285Y-94552380D01*
X156761904Y-95028571D01*
X156714285Y-94980952D01*
X156619047Y-94933333D01*
X156380952Y-94933333D01*
X156285714Y-94980952D01*
X156238095Y-95028571D01*
X156190476Y-95123809D01*
X156190476Y-95361904D01*
X156238095Y-95457142D01*
X156285714Y-95504761D01*
X156380952Y-95552380D01*
X156619047Y-95552380D01*
X156714285Y-95504761D01*
X156761904Y-95457142D01*
X133095238Y-95647619D02*
X133190476Y-95600000D01*
X133285714Y-95504761D01*
X133428571Y-95361904D01*
X133523809Y-95314285D01*
X133619047Y-95314285D01*
X133571428Y-95552380D02*
X133666666Y-95504761D01*
X133761904Y-95409523D01*
X133809523Y-95219047D01*
X133809523Y-94885714D01*
X133761904Y-94695238D01*
X133666666Y-94600000D01*
X133571428Y-94552380D01*
X133380952Y-94552380D01*
X133285714Y-94600000D01*
X133190476Y-94695238D01*
X133142857Y-94885714D01*
X133142857Y-95219047D01*
X133190476Y-95409523D01*
X133285714Y-95504761D01*
X133380952Y-95552380D01*
X133571428Y-95552380D01*
X132238095Y-94552380D02*
X132714285Y-94552380D01*
X132761904Y-95028571D01*
X132714285Y-94980952D01*
X132619047Y-94933333D01*
X132380952Y-94933333D01*
X132285714Y-94980952D01*
X132238095Y-95028571D01*
X132190476Y-95123809D01*
X132190476Y-95361904D01*
X132238095Y-95457142D01*
X132285714Y-95504761D01*
X132380952Y-95552380D01*
X132619047Y-95552380D01*
X132714285Y-95504761D01*
X132761904Y-95457142D01*
X205095238Y-79647619D02*
X205190476Y-79600000D01*
X205285714Y-79504761D01*
X205428571Y-79361904D01*
X205523809Y-79314285D01*
X205619047Y-79314285D01*
X205571428Y-79552380D02*
X205666666Y-79504761D01*
X205761904Y-79409523D01*
X205809523Y-79219047D01*
X205809523Y-78885714D01*
X205761904Y-78695238D01*
X205666666Y-78600000D01*
X205571428Y-78552380D01*
X205380952Y-78552380D01*
X205285714Y-78600000D01*
X205190476Y-78695238D01*
X205142857Y-78885714D01*
X205142857Y-79219047D01*
X205190476Y-79409523D01*
X205285714Y-79504761D01*
X205380952Y-79552380D01*
X205571428Y-79552380D01*
X204238095Y-78552380D02*
X204714285Y-78552380D01*
X204761904Y-79028571D01*
X204714285Y-78980952D01*
X204619047Y-78933333D01*
X204380952Y-78933333D01*
X204285714Y-78980952D01*
X204238095Y-79028571D01*
X204190476Y-79123809D01*
X204190476Y-79361904D01*
X204238095Y-79457142D01*
X204285714Y-79504761D01*
X204380952Y-79552380D01*
X204619047Y-79552380D01*
X204714285Y-79504761D01*
X204761904Y-79457142D01*
X181095238Y-79647619D02*
X181190476Y-79600000D01*
X181285714Y-79504761D01*
X181428571Y-79361904D01*
X181523809Y-79314285D01*
X181619047Y-79314285D01*
X181571428Y-79552380D02*
X181666666Y-79504761D01*
X181761904Y-79409523D01*
X181809523Y-79219047D01*
X181809523Y-78885714D01*
X181761904Y-78695238D01*
X181666666Y-78600000D01*
X181571428Y-78552380D01*
X181380952Y-78552380D01*
X181285714Y-78600000D01*
X181190476Y-78695238D01*
X181142857Y-78885714D01*
X181142857Y-79219047D01*
X181190476Y-79409523D01*
X181285714Y-79504761D01*
X181380952Y-79552380D01*
X181571428Y-79552380D01*
X180238095Y-78552380D02*
X180714285Y-78552380D01*
X180761904Y-79028571D01*
X180714285Y-78980952D01*
X180619047Y-78933333D01*
X180380952Y-78933333D01*
X180285714Y-78980952D01*
X180238095Y-79028571D01*
X180190476Y-79123809D01*
X180190476Y-79361904D01*
X180238095Y-79457142D01*
X180285714Y-79504761D01*
X180380952Y-79552380D01*
X180619047Y-79552380D01*
X180714285Y-79504761D01*
X180761904Y-79457142D01*
X157095238Y-79647619D02*
X157190476Y-79600000D01*
X157285714Y-79504761D01*
X157428571Y-79361904D01*
X157523809Y-79314285D01*
X157619047Y-79314285D01*
X157571428Y-79552380D02*
X157666666Y-79504761D01*
X157761904Y-79409523D01*
X157809523Y-79219047D01*
X157809523Y-78885714D01*
X157761904Y-78695238D01*
X157666666Y-78600000D01*
X157571428Y-78552380D01*
X157380952Y-78552380D01*
X157285714Y-78600000D01*
X157190476Y-78695238D01*
X157142857Y-78885714D01*
X157142857Y-79219047D01*
X157190476Y-79409523D01*
X157285714Y-79504761D01*
X157380952Y-79552380D01*
X157571428Y-79552380D01*
X156238095Y-78552380D02*
X156714285Y-78552380D01*
X156761904Y-79028571D01*
X156714285Y-78980952D01*
X156619047Y-78933333D01*
X156380952Y-78933333D01*
X156285714Y-78980952D01*
X156238095Y-79028571D01*
X156190476Y-79123809D01*
X156190476Y-79361904D01*
X156238095Y-79457142D01*
X156285714Y-79504761D01*
X156380952Y-79552380D01*
X156619047Y-79552380D01*
X156714285Y-79504761D01*
X156761904Y-79457142D01*
X133095238Y-79647619D02*
X133190476Y-79600000D01*
X133285714Y-79504761D01*
X133428571Y-79361904D01*
X133523809Y-79314285D01*
X133619047Y-79314285D01*
X133571428Y-79552380D02*
X133666666Y-79504761D01*
X133761904Y-79409523D01*
X133809523Y-79219047D01*
X133809523Y-78885714D01*
X133761904Y-78695238D01*
X133666666Y-78600000D01*
X133571428Y-78552380D01*
X133380952Y-78552380D01*
X133285714Y-78600000D01*
X133190476Y-78695238D01*
X133142857Y-78885714D01*
X133142857Y-79219047D01*
X133190476Y-79409523D01*
X133285714Y-79504761D01*
X133380952Y-79552380D01*
X133571428Y-79552380D01*
X132238095Y-78552380D02*
X132714285Y-78552380D01*
X132761904Y-79028571D01*
X132714285Y-78980952D01*
X132619047Y-78933333D01*
X132380952Y-78933333D01*
X132285714Y-78980952D01*
X132238095Y-79028571D01*
X132190476Y-79123809D01*
X132190476Y-79361904D01*
X132238095Y-79457142D01*
X132285714Y-79504761D01*
X132380952Y-79552380D01*
X132619047Y-79552380D01*
X132714285Y-79504761D01*
X132761904Y-79457142D01*
X205095238Y-63647619D02*
X205190476Y-63600000D01*
X205285714Y-63504761D01*
X205428571Y-63361904D01*
X205523809Y-63314285D01*
X205619047Y-63314285D01*
X205571428Y-63552380D02*
X205666666Y-63504761D01*
X205761904Y-63409523D01*
X205809523Y-63219047D01*
X205809523Y-62885714D01*
X205761904Y-62695238D01*
X205666666Y-62600000D01*
X205571428Y-62552380D01*
X205380952Y-62552380D01*
X205285714Y-62600000D01*
X205190476Y-62695238D01*
X205142857Y-62885714D01*
X205142857Y-63219047D01*
X205190476Y-63409523D01*
X205285714Y-63504761D01*
X205380952Y-63552380D01*
X205571428Y-63552380D01*
X204238095Y-62552380D02*
X204714285Y-62552380D01*
X204761904Y-63028571D01*
X204714285Y-62980952D01*
X204619047Y-62933333D01*
X204380952Y-62933333D01*
X204285714Y-62980952D01*
X204238095Y-63028571D01*
X204190476Y-63123809D01*
X204190476Y-63361904D01*
X204238095Y-63457142D01*
X204285714Y-63504761D01*
X204380952Y-63552380D01*
X204619047Y-63552380D01*
X204714285Y-63504761D01*
X204761904Y-63457142D01*
X181095238Y-63647619D02*
X181190476Y-63600000D01*
X181285714Y-63504761D01*
X181428571Y-63361904D01*
X181523809Y-63314285D01*
X181619047Y-63314285D01*
X181571428Y-63552380D02*
X181666666Y-63504761D01*
X181761904Y-63409523D01*
X181809523Y-63219047D01*
X181809523Y-62885714D01*
X181761904Y-62695238D01*
X181666666Y-62600000D01*
X181571428Y-62552380D01*
X181380952Y-62552380D01*
X181285714Y-62600000D01*
X181190476Y-62695238D01*
X181142857Y-62885714D01*
X181142857Y-63219047D01*
X181190476Y-63409523D01*
X181285714Y-63504761D01*
X181380952Y-63552380D01*
X181571428Y-63552380D01*
X180238095Y-62552380D02*
X180714285Y-62552380D01*
X180761904Y-63028571D01*
X180714285Y-62980952D01*
X180619047Y-62933333D01*
X180380952Y-62933333D01*
X180285714Y-62980952D01*
X180238095Y-63028571D01*
X180190476Y-63123809D01*
X180190476Y-63361904D01*
X180238095Y-63457142D01*
X180285714Y-63504761D01*
X180380952Y-63552380D01*
X180619047Y-63552380D01*
X180714285Y-63504761D01*
X180761904Y-63457142D01*
X157095238Y-63647619D02*
X157190476Y-63600000D01*
X157285714Y-63504761D01*
X157428571Y-63361904D01*
X157523809Y-63314285D01*
X157619047Y-63314285D01*
X157571428Y-63552380D02*
X157666666Y-63504761D01*
X157761904Y-63409523D01*
X157809523Y-63219047D01*
X157809523Y-62885714D01*
X157761904Y-62695238D01*
X157666666Y-62600000D01*
X157571428Y-62552380D01*
X157380952Y-62552380D01*
X157285714Y-62600000D01*
X157190476Y-62695238D01*
X157142857Y-62885714D01*
X157142857Y-63219047D01*
X157190476Y-63409523D01*
X157285714Y-63504761D01*
X157380952Y-63552380D01*
X157571428Y-63552380D01*
X156238095Y-62552380D02*
X156714285Y-62552380D01*
X156761904Y-63028571D01*
X156714285Y-62980952D01*
X156619047Y-62933333D01*
X156380952Y-62933333D01*
X156285714Y-62980952D01*
X156238095Y-63028571D01*
X156190476Y-63123809D01*
X156190476Y-63361904D01*
X156238095Y-63457142D01*
X156285714Y-63504761D01*
X156380952Y-63552380D01*
X156619047Y-63552380D01*
X156714285Y-63504761D01*
X156761904Y-63457142D01*
X133095238Y-63647619D02*
X133190476Y-63600000D01*
X133285714Y-63504761D01*
X133428571Y-63361904D01*
X133523809Y-63314285D01*
X133619047Y-63314285D01*
X133571428Y-63552380D02*
X133666666Y-63504761D01*
X133761904Y-63409523D01*
X133809523Y-63219047D01*
X133809523Y-62885714D01*
X133761904Y-62695238D01*
X133666666Y-62600000D01*
X133571428Y-62552380D01*
X133380952Y-62552380D01*
X133285714Y-62600000D01*
X133190476Y-62695238D01*
X133142857Y-62885714D01*
X133142857Y-63219047D01*
X133190476Y-63409523D01*
X133285714Y-63504761D01*
X133380952Y-63552380D01*
X133571428Y-63552380D01*
X132238095Y-62552380D02*
X132714285Y-62552380D01*
X132761904Y-63028571D01*
X132714285Y-62980952D01*
X132619047Y-62933333D01*
X132380952Y-62933333D01*
X132285714Y-62980952D01*
X132238095Y-63028571D01*
X132190476Y-63123809D01*
X132190476Y-63361904D01*
X132238095Y-63457142D01*
X132285714Y-63504761D01*
X132380952Y-63552380D01*
X132619047Y-63552380D01*
X132714285Y-63504761D01*
X132761904Y-63457142D01*
X205095238Y-47647619D02*
X205190476Y-47600000D01*
X205285714Y-47504761D01*
X205428571Y-47361904D01*
X205523809Y-47314285D01*
X205619047Y-47314285D01*
X205571428Y-47552380D02*
X205666666Y-47504761D01*
X205761904Y-47409523D01*
X205809523Y-47219047D01*
X205809523Y-46885714D01*
X205761904Y-46695238D01*
X205666666Y-46600000D01*
X205571428Y-46552380D01*
X205380952Y-46552380D01*
X205285714Y-46600000D01*
X205190476Y-46695238D01*
X205142857Y-46885714D01*
X205142857Y-47219047D01*
X205190476Y-47409523D01*
X205285714Y-47504761D01*
X205380952Y-47552380D01*
X205571428Y-47552380D01*
X204238095Y-46552380D02*
X204714285Y-46552380D01*
X204761904Y-47028571D01*
X204714285Y-46980952D01*
X204619047Y-46933333D01*
X204380952Y-46933333D01*
X204285714Y-46980952D01*
X204238095Y-47028571D01*
X204190476Y-47123809D01*
X204190476Y-47361904D01*
X204238095Y-47457142D01*
X204285714Y-47504761D01*
X204380952Y-47552380D01*
X204619047Y-47552380D01*
X204714285Y-47504761D01*
X204761904Y-47457142D01*
X181095238Y-47647619D02*
X181190476Y-47600000D01*
X181285714Y-47504761D01*
X181428571Y-47361904D01*
X181523809Y-47314285D01*
X181619047Y-47314285D01*
X181571428Y-47552380D02*
X181666666Y-47504761D01*
X181761904Y-47409523D01*
X181809523Y-47219047D01*
X181809523Y-46885714D01*
X181761904Y-46695238D01*
X181666666Y-46600000D01*
X181571428Y-46552380D01*
X181380952Y-46552380D01*
X181285714Y-46600000D01*
X181190476Y-46695238D01*
X181142857Y-46885714D01*
X181142857Y-47219047D01*
X181190476Y-47409523D01*
X181285714Y-47504761D01*
X181380952Y-47552380D01*
X181571428Y-47552380D01*
X180238095Y-46552380D02*
X180714285Y-46552380D01*
X180761904Y-47028571D01*
X180714285Y-46980952D01*
X180619047Y-46933333D01*
X180380952Y-46933333D01*
X180285714Y-46980952D01*
X180238095Y-47028571D01*
X180190476Y-47123809D01*
X180190476Y-47361904D01*
X180238095Y-47457142D01*
X180285714Y-47504761D01*
X180380952Y-47552380D01*
X180619047Y-47552380D01*
X180714285Y-47504761D01*
X180761904Y-47457142D01*
X157095238Y-47647619D02*
X157190476Y-47600000D01*
X157285714Y-47504761D01*
X157428571Y-47361904D01*
X157523809Y-47314285D01*
X157619047Y-47314285D01*
X157571428Y-47552380D02*
X157666666Y-47504761D01*
X157761904Y-47409523D01*
X157809523Y-47219047D01*
X157809523Y-46885714D01*
X157761904Y-46695238D01*
X157666666Y-46600000D01*
X157571428Y-46552380D01*
X157380952Y-46552380D01*
X157285714Y-46600000D01*
X157190476Y-46695238D01*
X157142857Y-46885714D01*
X157142857Y-47219047D01*
X157190476Y-47409523D01*
X157285714Y-47504761D01*
X157380952Y-47552380D01*
X157571428Y-47552380D01*
X156238095Y-46552380D02*
X156714285Y-46552380D01*
X156761904Y-47028571D01*
X156714285Y-46980952D01*
X156619047Y-46933333D01*
X156380952Y-46933333D01*
X156285714Y-46980952D01*
X156238095Y-47028571D01*
X156190476Y-47123809D01*
X156190476Y-47361904D01*
X156238095Y-47457142D01*
X156285714Y-47504761D01*
X156380952Y-47552380D01*
X156619047Y-47552380D01*
X156714285Y-47504761D01*
X156761904Y-47457142D01*
X211484380Y-130815428D02*
X210484380Y-130815428D01*
X210484380Y-131196380D01*
X210532000Y-131291619D01*
X210579619Y-131339238D01*
X210674857Y-131386857D01*
X210817714Y-131386857D01*
X210912952Y-131339238D01*
X210960571Y-131291619D01*
X211008190Y-131196380D01*
X211008190Y-130815428D01*
X210484380Y-131672571D02*
X210484380Y-132244000D01*
X211484380Y-131958285D02*
X210484380Y-131958285D01*
X211484380Y-132577333D02*
X210817714Y-132577333D01*
X211008190Y-132577333D02*
X210912952Y-132624952D01*
X210865333Y-132672571D01*
X210817714Y-132767809D01*
X210817714Y-132863047D01*
X211484380Y-133720190D02*
X211484380Y-133148761D01*
X211484380Y-133434476D02*
X210484380Y-133434476D01*
X210627238Y-133339238D01*
X210722476Y-133244000D01*
X210770095Y-133148761D01*
X187484380Y-130815428D02*
X186484380Y-130815428D01*
X186484380Y-131196380D01*
X186532000Y-131291619D01*
X186579619Y-131339238D01*
X186674857Y-131386857D01*
X186817714Y-131386857D01*
X186912952Y-131339238D01*
X186960571Y-131291619D01*
X187008190Y-131196380D01*
X187008190Y-130815428D01*
X186484380Y-131672571D02*
X186484380Y-132244000D01*
X187484380Y-131958285D02*
X186484380Y-131958285D01*
X187484380Y-132577333D02*
X186817714Y-132577333D01*
X187008190Y-132577333D02*
X186912952Y-132624952D01*
X186865333Y-132672571D01*
X186817714Y-132767809D01*
X186817714Y-132863047D01*
X187484380Y-133720190D02*
X187484380Y-133148761D01*
X187484380Y-133434476D02*
X186484380Y-133434476D01*
X186627238Y-133339238D01*
X186722476Y-133244000D01*
X186770095Y-133148761D01*
X163484380Y-130815428D02*
X162484380Y-130815428D01*
X162484380Y-131196380D01*
X162532000Y-131291619D01*
X162579619Y-131339238D01*
X162674857Y-131386857D01*
X162817714Y-131386857D01*
X162912952Y-131339238D01*
X162960571Y-131291619D01*
X163008190Y-131196380D01*
X163008190Y-130815428D01*
X162484380Y-131672571D02*
X162484380Y-132244000D01*
X163484380Y-131958285D02*
X162484380Y-131958285D01*
X163484380Y-132577333D02*
X162817714Y-132577333D01*
X163008190Y-132577333D02*
X162912952Y-132624952D01*
X162865333Y-132672571D01*
X162817714Y-132767809D01*
X162817714Y-132863047D01*
X163484380Y-133720190D02*
X163484380Y-133148761D01*
X163484380Y-133434476D02*
X162484380Y-133434476D01*
X162627238Y-133339238D01*
X162722476Y-133244000D01*
X162770095Y-133148761D01*
X139484380Y-130815428D02*
X138484380Y-130815428D01*
X138484380Y-131196380D01*
X138532000Y-131291619D01*
X138579619Y-131339238D01*
X138674857Y-131386857D01*
X138817714Y-131386857D01*
X138912952Y-131339238D01*
X138960571Y-131291619D01*
X139008190Y-131196380D01*
X139008190Y-130815428D01*
X138484380Y-131672571D02*
X138484380Y-132244000D01*
X139484380Y-131958285D02*
X138484380Y-131958285D01*
X139484380Y-132577333D02*
X138817714Y-132577333D01*
X139008190Y-132577333D02*
X138912952Y-132624952D01*
X138865333Y-132672571D01*
X138817714Y-132767809D01*
X138817714Y-132863047D01*
X139484380Y-133720190D02*
X139484380Y-133148761D01*
X139484380Y-133434476D02*
X138484380Y-133434476D01*
X138627238Y-133339238D01*
X138722476Y-133244000D01*
X138770095Y-133148761D01*
X211484380Y-114815428D02*
X210484380Y-114815428D01*
X210484380Y-115196380D01*
X210532000Y-115291619D01*
X210579619Y-115339238D01*
X210674857Y-115386857D01*
X210817714Y-115386857D01*
X210912952Y-115339238D01*
X210960571Y-115291619D01*
X211008190Y-115196380D01*
X211008190Y-114815428D01*
X210484380Y-115672571D02*
X210484380Y-116244000D01*
X211484380Y-115958285D02*
X210484380Y-115958285D01*
X211484380Y-116577333D02*
X210817714Y-116577333D01*
X211008190Y-116577333D02*
X210912952Y-116624952D01*
X210865333Y-116672571D01*
X210817714Y-116767809D01*
X210817714Y-116863047D01*
X211484380Y-117720190D02*
X211484380Y-117148761D01*
X211484380Y-117434476D02*
X210484380Y-117434476D01*
X210627238Y-117339238D01*
X210722476Y-117244000D01*
X210770095Y-117148761D01*
X187484380Y-114815428D02*
X186484380Y-114815428D01*
X186484380Y-115196380D01*
X186532000Y-115291619D01*
X186579619Y-115339238D01*
X186674857Y-115386857D01*
X186817714Y-115386857D01*
X186912952Y-115339238D01*
X186960571Y-115291619D01*
X187008190Y-115196380D01*
X187008190Y-114815428D01*
X186484380Y-115672571D02*
X186484380Y-116244000D01*
X187484380Y-115958285D02*
X186484380Y-115958285D01*
X187484380Y-116577333D02*
X186817714Y-116577333D01*
X187008190Y-116577333D02*
X186912952Y-116624952D01*
X186865333Y-116672571D01*
X186817714Y-116767809D01*
X186817714Y-116863047D01*
X187484380Y-117720190D02*
X187484380Y-117148761D01*
X187484380Y-117434476D02*
X186484380Y-117434476D01*
X186627238Y-117339238D01*
X186722476Y-117244000D01*
X186770095Y-117148761D01*
X163484380Y-114815428D02*
X162484380Y-114815428D01*
X162484380Y-115196380D01*
X162532000Y-115291619D01*
X162579619Y-115339238D01*
X162674857Y-115386857D01*
X162817714Y-115386857D01*
X162912952Y-115339238D01*
X162960571Y-115291619D01*
X163008190Y-115196380D01*
X163008190Y-114815428D01*
X162484380Y-115672571D02*
X162484380Y-116244000D01*
X163484380Y-115958285D02*
X162484380Y-115958285D01*
X163484380Y-116577333D02*
X162817714Y-116577333D01*
X163008190Y-116577333D02*
X162912952Y-116624952D01*
X162865333Y-116672571D01*
X162817714Y-116767809D01*
X162817714Y-116863047D01*
X163484380Y-117720190D02*
X163484380Y-117148761D01*
X163484380Y-117434476D02*
X162484380Y-117434476D01*
X162627238Y-117339238D01*
X162722476Y-117244000D01*
X162770095Y-117148761D01*
X139484380Y-114815428D02*
X138484380Y-114815428D01*
X138484380Y-115196380D01*
X138532000Y-115291619D01*
X138579619Y-115339238D01*
X138674857Y-115386857D01*
X138817714Y-115386857D01*
X138912952Y-115339238D01*
X138960571Y-115291619D01*
X139008190Y-115196380D01*
X139008190Y-114815428D01*
X138484380Y-115672571D02*
X138484380Y-116244000D01*
X139484380Y-115958285D02*
X138484380Y-115958285D01*
X139484380Y-116577333D02*
X138817714Y-116577333D01*
X139008190Y-116577333D02*
X138912952Y-116624952D01*
X138865333Y-116672571D01*
X138817714Y-116767809D01*
X138817714Y-116863047D01*
X139484380Y-117720190D02*
X139484380Y-117148761D01*
X139484380Y-117434476D02*
X138484380Y-117434476D01*
X138627238Y-117339238D01*
X138722476Y-117244000D01*
X138770095Y-117148761D01*
X211484380Y-98815428D02*
X210484380Y-98815428D01*
X210484380Y-99196380D01*
X210532000Y-99291619D01*
X210579619Y-99339238D01*
X210674857Y-99386857D01*
X210817714Y-99386857D01*
X210912952Y-99339238D01*
X210960571Y-99291619D01*
X211008190Y-99196380D01*
X211008190Y-98815428D01*
X210484380Y-99672571D02*
X210484380Y-100244000D01*
X211484380Y-99958285D02*
X210484380Y-99958285D01*
X211484380Y-100577333D02*
X210817714Y-100577333D01*
X211008190Y-100577333D02*
X210912952Y-100624952D01*
X210865333Y-100672571D01*
X210817714Y-100767809D01*
X210817714Y-100863047D01*
X211484380Y-101720190D02*
X211484380Y-101148761D01*
X211484380Y-101434476D02*
X210484380Y-101434476D01*
X210627238Y-101339238D01*
X210722476Y-101244000D01*
X210770095Y-101148761D01*
X187484380Y-98815428D02*
X186484380Y-98815428D01*
X186484380Y-99196380D01*
X186532000Y-99291619D01*
X186579619Y-99339238D01*
X186674857Y-99386857D01*
X186817714Y-99386857D01*
X186912952Y-99339238D01*
X186960571Y-99291619D01*
X187008190Y-99196380D01*
X187008190Y-98815428D01*
X186484380Y-99672571D02*
X186484380Y-100244000D01*
X187484380Y-99958285D02*
X186484380Y-99958285D01*
X187484380Y-100577333D02*
X186817714Y-100577333D01*
X187008190Y-100577333D02*
X186912952Y-100624952D01*
X186865333Y-100672571D01*
X186817714Y-100767809D01*
X186817714Y-100863047D01*
X187484380Y-101720190D02*
X187484380Y-101148761D01*
X187484380Y-101434476D02*
X186484380Y-101434476D01*
X186627238Y-101339238D01*
X186722476Y-101244000D01*
X186770095Y-101148761D01*
X163484380Y-98815428D02*
X162484380Y-98815428D01*
X162484380Y-99196380D01*
X162532000Y-99291619D01*
X162579619Y-99339238D01*
X162674857Y-99386857D01*
X162817714Y-99386857D01*
X162912952Y-99339238D01*
X162960571Y-99291619D01*
X163008190Y-99196380D01*
X163008190Y-98815428D01*
X162484380Y-99672571D02*
X162484380Y-100244000D01*
X163484380Y-99958285D02*
X162484380Y-99958285D01*
X163484380Y-100577333D02*
X162817714Y-100577333D01*
X163008190Y-100577333D02*
X162912952Y-100624952D01*
X162865333Y-100672571D01*
X162817714Y-100767809D01*
X162817714Y-100863047D01*
X163484380Y-101720190D02*
X163484380Y-101148761D01*
X163484380Y-101434476D02*
X162484380Y-101434476D01*
X162627238Y-101339238D01*
X162722476Y-101244000D01*
X162770095Y-101148761D01*
X139484380Y-98815428D02*
X138484380Y-98815428D01*
X138484380Y-99196380D01*
X138532000Y-99291619D01*
X138579619Y-99339238D01*
X138674857Y-99386857D01*
X138817714Y-99386857D01*
X138912952Y-99339238D01*
X138960571Y-99291619D01*
X139008190Y-99196380D01*
X139008190Y-98815428D01*
X138484380Y-99672571D02*
X138484380Y-100244000D01*
X139484380Y-99958285D02*
X138484380Y-99958285D01*
X139484380Y-100577333D02*
X138817714Y-100577333D01*
X139008190Y-100577333D02*
X138912952Y-100624952D01*
X138865333Y-100672571D01*
X138817714Y-100767809D01*
X138817714Y-100863047D01*
X139484380Y-101720190D02*
X139484380Y-101148761D01*
X139484380Y-101434476D02*
X138484380Y-101434476D01*
X138627238Y-101339238D01*
X138722476Y-101244000D01*
X138770095Y-101148761D01*
X211484380Y-82815428D02*
X210484380Y-82815428D01*
X210484380Y-83196380D01*
X210532000Y-83291619D01*
X210579619Y-83339238D01*
X210674857Y-83386857D01*
X210817714Y-83386857D01*
X210912952Y-83339238D01*
X210960571Y-83291619D01*
X211008190Y-83196380D01*
X211008190Y-82815428D01*
X210484380Y-83672571D02*
X210484380Y-84244000D01*
X211484380Y-83958285D02*
X210484380Y-83958285D01*
X211484380Y-84577333D02*
X210817714Y-84577333D01*
X211008190Y-84577333D02*
X210912952Y-84624952D01*
X210865333Y-84672571D01*
X210817714Y-84767809D01*
X210817714Y-84863047D01*
X211484380Y-85720190D02*
X211484380Y-85148761D01*
X211484380Y-85434476D02*
X210484380Y-85434476D01*
X210627238Y-85339238D01*
X210722476Y-85244000D01*
X210770095Y-85148761D01*
X187484380Y-82815428D02*
X186484380Y-82815428D01*
X186484380Y-83196380D01*
X186532000Y-83291619D01*
X186579619Y-83339238D01*
X186674857Y-83386857D01*
X186817714Y-83386857D01*
X186912952Y-83339238D01*
X186960571Y-83291619D01*
X187008190Y-83196380D01*
X187008190Y-82815428D01*
X186484380Y-83672571D02*
X186484380Y-84244000D01*
X187484380Y-83958285D02*
X186484380Y-83958285D01*
X187484380Y-84577333D02*
X186817714Y-84577333D01*
X187008190Y-84577333D02*
X186912952Y-84624952D01*
X186865333Y-84672571D01*
X186817714Y-84767809D01*
X186817714Y-84863047D01*
X187484380Y-85720190D02*
X187484380Y-85148761D01*
X187484380Y-85434476D02*
X186484380Y-85434476D01*
X186627238Y-85339238D01*
X186722476Y-85244000D01*
X186770095Y-85148761D01*
X163484380Y-82815428D02*
X162484380Y-82815428D01*
X162484380Y-83196380D01*
X162532000Y-83291619D01*
X162579619Y-83339238D01*
X162674857Y-83386857D01*
X162817714Y-83386857D01*
X162912952Y-83339238D01*
X162960571Y-83291619D01*
X163008190Y-83196380D01*
X163008190Y-82815428D01*
X162484380Y-83672571D02*
X162484380Y-84244000D01*
X163484380Y-83958285D02*
X162484380Y-83958285D01*
X163484380Y-84577333D02*
X162817714Y-84577333D01*
X163008190Y-84577333D02*
X162912952Y-84624952D01*
X162865333Y-84672571D01*
X162817714Y-84767809D01*
X162817714Y-84863047D01*
X163484380Y-85720190D02*
X163484380Y-85148761D01*
X163484380Y-85434476D02*
X162484380Y-85434476D01*
X162627238Y-85339238D01*
X162722476Y-85244000D01*
X162770095Y-85148761D01*
X139484380Y-82815428D02*
X138484380Y-82815428D01*
X138484380Y-83196380D01*
X138532000Y-83291619D01*
X138579619Y-83339238D01*
X138674857Y-83386857D01*
X138817714Y-83386857D01*
X138912952Y-83339238D01*
X138960571Y-83291619D01*
X139008190Y-83196380D01*
X139008190Y-82815428D01*
X138484380Y-83672571D02*
X138484380Y-84244000D01*
X139484380Y-83958285D02*
X138484380Y-83958285D01*
X139484380Y-84577333D02*
X138817714Y-84577333D01*
X139008190Y-84577333D02*
X138912952Y-84624952D01*
X138865333Y-84672571D01*
X138817714Y-84767809D01*
X138817714Y-84863047D01*
X139484380Y-85720190D02*
X139484380Y-85148761D01*
X139484380Y-85434476D02*
X138484380Y-85434476D01*
X138627238Y-85339238D01*
X138722476Y-85244000D01*
X138770095Y-85148761D01*
X211484380Y-66815428D02*
X210484380Y-66815428D01*
X210484380Y-67196380D01*
X210532000Y-67291619D01*
X210579619Y-67339238D01*
X210674857Y-67386857D01*
X210817714Y-67386857D01*
X210912952Y-67339238D01*
X210960571Y-67291619D01*
X211008190Y-67196380D01*
X211008190Y-66815428D01*
X210484380Y-67672571D02*
X210484380Y-68244000D01*
X211484380Y-67958285D02*
X210484380Y-67958285D01*
X211484380Y-68577333D02*
X210817714Y-68577333D01*
X211008190Y-68577333D02*
X210912952Y-68624952D01*
X210865333Y-68672571D01*
X210817714Y-68767809D01*
X210817714Y-68863047D01*
X211484380Y-69720190D02*
X211484380Y-69148761D01*
X211484380Y-69434476D02*
X210484380Y-69434476D01*
X210627238Y-69339238D01*
X210722476Y-69244000D01*
X210770095Y-69148761D01*
X187484380Y-66815428D02*
X186484380Y-66815428D01*
X186484380Y-67196380D01*
X186532000Y-67291619D01*
X186579619Y-67339238D01*
X186674857Y-67386857D01*
X186817714Y-67386857D01*
X186912952Y-67339238D01*
X186960571Y-67291619D01*
X187008190Y-67196380D01*
X187008190Y-66815428D01*
X186484380Y-67672571D02*
X186484380Y-68244000D01*
X187484380Y-67958285D02*
X186484380Y-67958285D01*
X187484380Y-68577333D02*
X186817714Y-68577333D01*
X187008190Y-68577333D02*
X186912952Y-68624952D01*
X186865333Y-68672571D01*
X186817714Y-68767809D01*
X186817714Y-68863047D01*
X187484380Y-69720190D02*
X187484380Y-69148761D01*
X187484380Y-69434476D02*
X186484380Y-69434476D01*
X186627238Y-69339238D01*
X186722476Y-69244000D01*
X186770095Y-69148761D01*
X163484380Y-66815428D02*
X162484380Y-66815428D01*
X162484380Y-67196380D01*
X162532000Y-67291619D01*
X162579619Y-67339238D01*
X162674857Y-67386857D01*
X162817714Y-67386857D01*
X162912952Y-67339238D01*
X162960571Y-67291619D01*
X163008190Y-67196380D01*
X163008190Y-66815428D01*
X162484380Y-67672571D02*
X162484380Y-68244000D01*
X163484380Y-67958285D02*
X162484380Y-67958285D01*
X163484380Y-68577333D02*
X162817714Y-68577333D01*
X163008190Y-68577333D02*
X162912952Y-68624952D01*
X162865333Y-68672571D01*
X162817714Y-68767809D01*
X162817714Y-68863047D01*
X163484380Y-69720190D02*
X163484380Y-69148761D01*
X163484380Y-69434476D02*
X162484380Y-69434476D01*
X162627238Y-69339238D01*
X162722476Y-69244000D01*
X162770095Y-69148761D01*
X139484380Y-66815428D02*
X138484380Y-66815428D01*
X138484380Y-67196380D01*
X138532000Y-67291619D01*
X138579619Y-67339238D01*
X138674857Y-67386857D01*
X138817714Y-67386857D01*
X138912952Y-67339238D01*
X138960571Y-67291619D01*
X139008190Y-67196380D01*
X139008190Y-66815428D01*
X138484380Y-67672571D02*
X138484380Y-68244000D01*
X139484380Y-67958285D02*
X138484380Y-67958285D01*
X139484380Y-68577333D02*
X138817714Y-68577333D01*
X139008190Y-68577333D02*
X138912952Y-68624952D01*
X138865333Y-68672571D01*
X138817714Y-68767809D01*
X138817714Y-68863047D01*
X139484380Y-69720190D02*
X139484380Y-69148761D01*
X139484380Y-69434476D02*
X138484380Y-69434476D01*
X138627238Y-69339238D01*
X138722476Y-69244000D01*
X138770095Y-69148761D01*
X211484380Y-50815428D02*
X210484380Y-50815428D01*
X210484380Y-51196380D01*
X210532000Y-51291619D01*
X210579619Y-51339238D01*
X210674857Y-51386857D01*
X210817714Y-51386857D01*
X210912952Y-51339238D01*
X210960571Y-51291619D01*
X211008190Y-51196380D01*
X211008190Y-50815428D01*
X210484380Y-51672571D02*
X210484380Y-52244000D01*
X211484380Y-51958285D02*
X210484380Y-51958285D01*
X211484380Y-52577333D02*
X210817714Y-52577333D01*
X211008190Y-52577333D02*
X210912952Y-52624952D01*
X210865333Y-52672571D01*
X210817714Y-52767809D01*
X210817714Y-52863047D01*
X211484380Y-53720190D02*
X211484380Y-53148761D01*
X211484380Y-53434476D02*
X210484380Y-53434476D01*
X210627238Y-53339238D01*
X210722476Y-53244000D01*
X210770095Y-53148761D01*
X187484380Y-50815428D02*
X186484380Y-50815428D01*
X186484380Y-51196380D01*
X186532000Y-51291619D01*
X186579619Y-51339238D01*
X186674857Y-51386857D01*
X186817714Y-51386857D01*
X186912952Y-51339238D01*
X186960571Y-51291619D01*
X187008190Y-51196380D01*
X187008190Y-50815428D01*
X186484380Y-51672571D02*
X186484380Y-52244000D01*
X187484380Y-51958285D02*
X186484380Y-51958285D01*
X187484380Y-52577333D02*
X186817714Y-52577333D01*
X187008190Y-52577333D02*
X186912952Y-52624952D01*
X186865333Y-52672571D01*
X186817714Y-52767809D01*
X186817714Y-52863047D01*
X187484380Y-53720190D02*
X187484380Y-53148761D01*
X187484380Y-53434476D02*
X186484380Y-53434476D01*
X186627238Y-53339238D01*
X186722476Y-53244000D01*
X186770095Y-53148761D01*
X163484380Y-50815428D02*
X162484380Y-50815428D01*
X162484380Y-51196380D01*
X162532000Y-51291619D01*
X162579619Y-51339238D01*
X162674857Y-51386857D01*
X162817714Y-51386857D01*
X162912952Y-51339238D01*
X162960571Y-51291619D01*
X163008190Y-51196380D01*
X163008190Y-50815428D01*
X162484380Y-51672571D02*
X162484380Y-52244000D01*
X163484380Y-51958285D02*
X162484380Y-51958285D01*
X163484380Y-52577333D02*
X162817714Y-52577333D01*
X163008190Y-52577333D02*
X162912952Y-52624952D01*
X162865333Y-52672571D01*
X162817714Y-52767809D01*
X162817714Y-52863047D01*
X163484380Y-53720190D02*
X163484380Y-53148761D01*
X163484380Y-53434476D02*
X162484380Y-53434476D01*
X162627238Y-53339238D01*
X162722476Y-53244000D01*
X162770095Y-53148761D01*
X205631428Y-122452380D02*
X205964761Y-121976190D01*
X206202857Y-122452380D02*
X206202857Y-121452380D01*
X205821904Y-121452380D01*
X205726666Y-121500000D01*
X205679047Y-121547619D01*
X205631428Y-121642857D01*
X205631428Y-121785714D01*
X205679047Y-121880952D01*
X205726666Y-121928571D01*
X205821904Y-121976190D01*
X206202857Y-121976190D01*
X204726666Y-122452380D02*
X205202857Y-122452380D01*
X205202857Y-121452380D01*
X204440952Y-121547619D02*
X204393333Y-121500000D01*
X204298095Y-121452380D01*
X204060000Y-121452380D01*
X203964761Y-121500000D01*
X203917142Y-121547619D01*
X203869523Y-121642857D01*
X203869523Y-121738095D01*
X203917142Y-121880952D01*
X204488571Y-122452380D01*
X203869523Y-122452380D01*
X181631428Y-122452380D02*
X181964761Y-121976190D01*
X182202857Y-122452380D02*
X182202857Y-121452380D01*
X181821904Y-121452380D01*
X181726666Y-121500000D01*
X181679047Y-121547619D01*
X181631428Y-121642857D01*
X181631428Y-121785714D01*
X181679047Y-121880952D01*
X181726666Y-121928571D01*
X181821904Y-121976190D01*
X182202857Y-121976190D01*
X180726666Y-122452380D02*
X181202857Y-122452380D01*
X181202857Y-121452380D01*
X180440952Y-121547619D02*
X180393333Y-121500000D01*
X180298095Y-121452380D01*
X180060000Y-121452380D01*
X179964761Y-121500000D01*
X179917142Y-121547619D01*
X179869523Y-121642857D01*
X179869523Y-121738095D01*
X179917142Y-121880952D01*
X180488571Y-122452380D01*
X179869523Y-122452380D01*
X157631428Y-122452380D02*
X157964761Y-121976190D01*
X158202857Y-122452380D02*
X158202857Y-121452380D01*
X157821904Y-121452380D01*
X157726666Y-121500000D01*
X157679047Y-121547619D01*
X157631428Y-121642857D01*
X157631428Y-121785714D01*
X157679047Y-121880952D01*
X157726666Y-121928571D01*
X157821904Y-121976190D01*
X158202857Y-121976190D01*
X156726666Y-122452380D02*
X157202857Y-122452380D01*
X157202857Y-121452380D01*
X156440952Y-121547619D02*
X156393333Y-121500000D01*
X156298095Y-121452380D01*
X156060000Y-121452380D01*
X155964761Y-121500000D01*
X155917142Y-121547619D01*
X155869523Y-121642857D01*
X155869523Y-121738095D01*
X155917142Y-121880952D01*
X156488571Y-122452380D01*
X155869523Y-122452380D01*
X133631428Y-122452380D02*
X133964761Y-121976190D01*
X134202857Y-122452380D02*
X134202857Y-121452380D01*
X133821904Y-121452380D01*
X133726666Y-121500000D01*
X133679047Y-121547619D01*
X133631428Y-121642857D01*
X133631428Y-121785714D01*
X133679047Y-121880952D01*
X133726666Y-121928571D01*
X133821904Y-121976190D01*
X134202857Y-121976190D01*
X132726666Y-122452380D02*
X133202857Y-122452380D01*
X133202857Y-121452380D01*
X132440952Y-121547619D02*
X132393333Y-121500000D01*
X132298095Y-121452380D01*
X132060000Y-121452380D01*
X131964761Y-121500000D01*
X131917142Y-121547619D01*
X131869523Y-121642857D01*
X131869523Y-121738095D01*
X131917142Y-121880952D01*
X132488571Y-122452380D01*
X131869523Y-122452380D01*
X205631428Y-106452380D02*
X205964761Y-105976190D01*
X206202857Y-106452380D02*
X206202857Y-105452380D01*
X205821904Y-105452380D01*
X205726666Y-105500000D01*
X205679047Y-105547619D01*
X205631428Y-105642857D01*
X205631428Y-105785714D01*
X205679047Y-105880952D01*
X205726666Y-105928571D01*
X205821904Y-105976190D01*
X206202857Y-105976190D01*
X204726666Y-106452380D02*
X205202857Y-106452380D01*
X205202857Y-105452380D01*
X204440952Y-105547619D02*
X204393333Y-105500000D01*
X204298095Y-105452380D01*
X204060000Y-105452380D01*
X203964761Y-105500000D01*
X203917142Y-105547619D01*
X203869523Y-105642857D01*
X203869523Y-105738095D01*
X203917142Y-105880952D01*
X204488571Y-106452380D01*
X203869523Y-106452380D01*
X181631428Y-106452380D02*
X181964761Y-105976190D01*
X182202857Y-106452380D02*
X182202857Y-105452380D01*
X181821904Y-105452380D01*
X181726666Y-105500000D01*
X181679047Y-105547619D01*
X181631428Y-105642857D01*
X181631428Y-105785714D01*
X181679047Y-105880952D01*
X181726666Y-105928571D01*
X181821904Y-105976190D01*
X182202857Y-105976190D01*
X180726666Y-106452380D02*
X181202857Y-106452380D01*
X181202857Y-105452380D01*
X180440952Y-105547619D02*
X180393333Y-105500000D01*
X180298095Y-105452380D01*
X180060000Y-105452380D01*
X179964761Y-105500000D01*
X179917142Y-105547619D01*
X179869523Y-105642857D01*
X179869523Y-105738095D01*
X179917142Y-105880952D01*
X180488571Y-106452380D01*
X179869523Y-106452380D01*
X157631428Y-106452380D02*
X157964761Y-105976190D01*
X158202857Y-106452380D02*
X158202857Y-105452380D01*
X157821904Y-105452380D01*
X157726666Y-105500000D01*
X157679047Y-105547619D01*
X157631428Y-105642857D01*
X157631428Y-105785714D01*
X157679047Y-105880952D01*
X157726666Y-105928571D01*
X157821904Y-105976190D01*
X158202857Y-105976190D01*
X156726666Y-106452380D02*
X157202857Y-106452380D01*
X157202857Y-105452380D01*
X156440952Y-105547619D02*
X156393333Y-105500000D01*
X156298095Y-105452380D01*
X156060000Y-105452380D01*
X155964761Y-105500000D01*
X155917142Y-105547619D01*
X155869523Y-105642857D01*
X155869523Y-105738095D01*
X155917142Y-105880952D01*
X156488571Y-106452380D01*
X155869523Y-106452380D01*
X133631428Y-106452380D02*
X133964761Y-105976190D01*
X134202857Y-106452380D02*
X134202857Y-105452380D01*
X133821904Y-105452380D01*
X133726666Y-105500000D01*
X133679047Y-105547619D01*
X133631428Y-105642857D01*
X133631428Y-105785714D01*
X133679047Y-105880952D01*
X133726666Y-105928571D01*
X133821904Y-105976190D01*
X134202857Y-105976190D01*
X132726666Y-106452380D02*
X133202857Y-106452380D01*
X133202857Y-105452380D01*
X132440952Y-105547619D02*
X132393333Y-105500000D01*
X132298095Y-105452380D01*
X132060000Y-105452380D01*
X131964761Y-105500000D01*
X131917142Y-105547619D01*
X131869523Y-105642857D01*
X131869523Y-105738095D01*
X131917142Y-105880952D01*
X132488571Y-106452380D01*
X131869523Y-106452380D01*
X205631428Y-90452380D02*
X205964761Y-89976190D01*
X206202857Y-90452380D02*
X206202857Y-89452380D01*
X205821904Y-89452380D01*
X205726666Y-89500000D01*
X205679047Y-89547619D01*
X205631428Y-89642857D01*
X205631428Y-89785714D01*
X205679047Y-89880952D01*
X205726666Y-89928571D01*
X205821904Y-89976190D01*
X206202857Y-89976190D01*
X204726666Y-90452380D02*
X205202857Y-90452380D01*
X205202857Y-89452380D01*
X204440952Y-89547619D02*
X204393333Y-89500000D01*
X204298095Y-89452380D01*
X204060000Y-89452380D01*
X203964761Y-89500000D01*
X203917142Y-89547619D01*
X203869523Y-89642857D01*
X203869523Y-89738095D01*
X203917142Y-89880952D01*
X204488571Y-90452380D01*
X203869523Y-90452380D01*
X181631428Y-90452380D02*
X181964761Y-89976190D01*
X182202857Y-90452380D02*
X182202857Y-89452380D01*
X181821904Y-89452380D01*
X181726666Y-89500000D01*
X181679047Y-89547619D01*
X181631428Y-89642857D01*
X181631428Y-89785714D01*
X181679047Y-89880952D01*
X181726666Y-89928571D01*
X181821904Y-89976190D01*
X182202857Y-89976190D01*
X180726666Y-90452380D02*
X181202857Y-90452380D01*
X181202857Y-89452380D01*
X180440952Y-89547619D02*
X180393333Y-89500000D01*
X180298095Y-89452380D01*
X180060000Y-89452380D01*
X179964761Y-89500000D01*
X179917142Y-89547619D01*
X179869523Y-89642857D01*
X179869523Y-89738095D01*
X179917142Y-89880952D01*
X180488571Y-90452380D01*
X179869523Y-90452380D01*
X157631428Y-90452380D02*
X157964761Y-89976190D01*
X158202857Y-90452380D02*
X158202857Y-89452380D01*
X157821904Y-89452380D01*
X157726666Y-89500000D01*
X157679047Y-89547619D01*
X157631428Y-89642857D01*
X157631428Y-89785714D01*
X157679047Y-89880952D01*
X157726666Y-89928571D01*
X157821904Y-89976190D01*
X158202857Y-89976190D01*
X156726666Y-90452380D02*
X157202857Y-90452380D01*
X157202857Y-89452380D01*
X156440952Y-89547619D02*
X156393333Y-89500000D01*
X156298095Y-89452380D01*
X156060000Y-89452380D01*
X155964761Y-89500000D01*
X155917142Y-89547619D01*
X155869523Y-89642857D01*
X155869523Y-89738095D01*
X155917142Y-89880952D01*
X156488571Y-90452380D01*
X155869523Y-90452380D01*
X133631428Y-90452380D02*
X133964761Y-89976190D01*
X134202857Y-90452380D02*
X134202857Y-89452380D01*
X133821904Y-89452380D01*
X133726666Y-89500000D01*
X133679047Y-89547619D01*
X133631428Y-89642857D01*
X133631428Y-89785714D01*
X133679047Y-89880952D01*
X133726666Y-89928571D01*
X133821904Y-89976190D01*
X134202857Y-89976190D01*
X132726666Y-90452380D02*
X133202857Y-90452380D01*
X133202857Y-89452380D01*
X132440952Y-89547619D02*
X132393333Y-89500000D01*
X132298095Y-89452380D01*
X132060000Y-89452380D01*
X131964761Y-89500000D01*
X131917142Y-89547619D01*
X131869523Y-89642857D01*
X131869523Y-89738095D01*
X131917142Y-89880952D01*
X132488571Y-90452380D01*
X131869523Y-90452380D01*
X205631428Y-74452380D02*
X205964761Y-73976190D01*
X206202857Y-74452380D02*
X206202857Y-73452380D01*
X205821904Y-73452380D01*
X205726666Y-73500000D01*
X205679047Y-73547619D01*
X205631428Y-73642857D01*
X205631428Y-73785714D01*
X205679047Y-73880952D01*
X205726666Y-73928571D01*
X205821904Y-73976190D01*
X206202857Y-73976190D01*
X204726666Y-74452380D02*
X205202857Y-74452380D01*
X205202857Y-73452380D01*
X204440952Y-73547619D02*
X204393333Y-73500000D01*
X204298095Y-73452380D01*
X204060000Y-73452380D01*
X203964761Y-73500000D01*
X203917142Y-73547619D01*
X203869523Y-73642857D01*
X203869523Y-73738095D01*
X203917142Y-73880952D01*
X204488571Y-74452380D01*
X203869523Y-74452380D01*
X181631428Y-74452380D02*
X181964761Y-73976190D01*
X182202857Y-74452380D02*
X182202857Y-73452380D01*
X181821904Y-73452380D01*
X181726666Y-73500000D01*
X181679047Y-73547619D01*
X181631428Y-73642857D01*
X181631428Y-73785714D01*
X181679047Y-73880952D01*
X181726666Y-73928571D01*
X181821904Y-73976190D01*
X182202857Y-73976190D01*
X180726666Y-74452380D02*
X181202857Y-74452380D01*
X181202857Y-73452380D01*
X180440952Y-73547619D02*
X180393333Y-73500000D01*
X180298095Y-73452380D01*
X180060000Y-73452380D01*
X179964761Y-73500000D01*
X179917142Y-73547619D01*
X179869523Y-73642857D01*
X179869523Y-73738095D01*
X179917142Y-73880952D01*
X180488571Y-74452380D01*
X179869523Y-74452380D01*
X157631428Y-74452380D02*
X157964761Y-73976190D01*
X158202857Y-74452380D02*
X158202857Y-73452380D01*
X157821904Y-73452380D01*
X157726666Y-73500000D01*
X157679047Y-73547619D01*
X157631428Y-73642857D01*
X157631428Y-73785714D01*
X157679047Y-73880952D01*
X157726666Y-73928571D01*
X157821904Y-73976190D01*
X158202857Y-73976190D01*
X156726666Y-74452380D02*
X157202857Y-74452380D01*
X157202857Y-73452380D01*
X156440952Y-73547619D02*
X156393333Y-73500000D01*
X156298095Y-73452380D01*
X156060000Y-73452380D01*
X155964761Y-73500000D01*
X155917142Y-73547619D01*
X155869523Y-73642857D01*
X155869523Y-73738095D01*
X155917142Y-73880952D01*
X156488571Y-74452380D01*
X155869523Y-74452380D01*
X133631428Y-74452380D02*
X133964761Y-73976190D01*
X134202857Y-74452380D02*
X134202857Y-73452380D01*
X133821904Y-73452380D01*
X133726666Y-73500000D01*
X133679047Y-73547619D01*
X133631428Y-73642857D01*
X133631428Y-73785714D01*
X133679047Y-73880952D01*
X133726666Y-73928571D01*
X133821904Y-73976190D01*
X134202857Y-73976190D01*
X132726666Y-74452380D02*
X133202857Y-74452380D01*
X133202857Y-73452380D01*
X132440952Y-73547619D02*
X132393333Y-73500000D01*
X132298095Y-73452380D01*
X132060000Y-73452380D01*
X131964761Y-73500000D01*
X131917142Y-73547619D01*
X131869523Y-73642857D01*
X131869523Y-73738095D01*
X131917142Y-73880952D01*
X132488571Y-74452380D01*
X131869523Y-74452380D01*
X205631428Y-58452380D02*
X205964761Y-57976190D01*
X206202857Y-58452380D02*
X206202857Y-57452380D01*
X205821904Y-57452380D01*
X205726666Y-57500000D01*
X205679047Y-57547619D01*
X205631428Y-57642857D01*
X205631428Y-57785714D01*
X205679047Y-57880952D01*
X205726666Y-57928571D01*
X205821904Y-57976190D01*
X206202857Y-57976190D01*
X204726666Y-58452380D02*
X205202857Y-58452380D01*
X205202857Y-57452380D01*
X204440952Y-57547619D02*
X204393333Y-57500000D01*
X204298095Y-57452380D01*
X204060000Y-57452380D01*
X203964761Y-57500000D01*
X203917142Y-57547619D01*
X203869523Y-57642857D01*
X203869523Y-57738095D01*
X203917142Y-57880952D01*
X204488571Y-58452380D01*
X203869523Y-58452380D01*
X181631428Y-58452380D02*
X181964761Y-57976190D01*
X182202857Y-58452380D02*
X182202857Y-57452380D01*
X181821904Y-57452380D01*
X181726666Y-57500000D01*
X181679047Y-57547619D01*
X181631428Y-57642857D01*
X181631428Y-57785714D01*
X181679047Y-57880952D01*
X181726666Y-57928571D01*
X181821904Y-57976190D01*
X182202857Y-57976190D01*
X180726666Y-58452380D02*
X181202857Y-58452380D01*
X181202857Y-57452380D01*
X180440952Y-57547619D02*
X180393333Y-57500000D01*
X180298095Y-57452380D01*
X180060000Y-57452380D01*
X179964761Y-57500000D01*
X179917142Y-57547619D01*
X179869523Y-57642857D01*
X179869523Y-57738095D01*
X179917142Y-57880952D01*
X180488571Y-58452380D01*
X179869523Y-58452380D01*
X157631428Y-58452380D02*
X157964761Y-57976190D01*
X158202857Y-58452380D02*
X158202857Y-57452380D01*
X157821904Y-57452380D01*
X157726666Y-57500000D01*
X157679047Y-57547619D01*
X157631428Y-57642857D01*
X157631428Y-57785714D01*
X157679047Y-57880952D01*
X157726666Y-57928571D01*
X157821904Y-57976190D01*
X158202857Y-57976190D01*
X156726666Y-58452380D02*
X157202857Y-58452380D01*
X157202857Y-57452380D01*
X156440952Y-57547619D02*
X156393333Y-57500000D01*
X156298095Y-57452380D01*
X156060000Y-57452380D01*
X155964761Y-57500000D01*
X155917142Y-57547619D01*
X155869523Y-57642857D01*
X155869523Y-57738095D01*
X155917142Y-57880952D01*
X156488571Y-58452380D01*
X155869523Y-58452380D01*
X133631428Y-58452380D02*
X133964761Y-57976190D01*
X134202857Y-58452380D02*
X134202857Y-57452380D01*
X133821904Y-57452380D01*
X133726666Y-57500000D01*
X133679047Y-57547619D01*
X133631428Y-57642857D01*
X133631428Y-57785714D01*
X133679047Y-57880952D01*
X133726666Y-57928571D01*
X133821904Y-57976190D01*
X134202857Y-57976190D01*
X132726666Y-58452380D02*
X133202857Y-58452380D01*
X133202857Y-57452380D01*
X132440952Y-57547619D02*
X132393333Y-57500000D01*
X132298095Y-57452380D01*
X132060000Y-57452380D01*
X131964761Y-57500000D01*
X131917142Y-57547619D01*
X131869523Y-57642857D01*
X131869523Y-57738095D01*
X131917142Y-57880952D01*
X132488571Y-58452380D01*
X131869523Y-58452380D01*
X205631428Y-42452380D02*
X205964761Y-41976190D01*
X206202857Y-42452380D02*
X206202857Y-41452380D01*
X205821904Y-41452380D01*
X205726666Y-41500000D01*
X205679047Y-41547619D01*
X205631428Y-41642857D01*
X205631428Y-41785714D01*
X205679047Y-41880952D01*
X205726666Y-41928571D01*
X205821904Y-41976190D01*
X206202857Y-41976190D01*
X204726666Y-42452380D02*
X205202857Y-42452380D01*
X205202857Y-41452380D01*
X204440952Y-41547619D02*
X204393333Y-41500000D01*
X204298095Y-41452380D01*
X204060000Y-41452380D01*
X203964761Y-41500000D01*
X203917142Y-41547619D01*
X203869523Y-41642857D01*
X203869523Y-41738095D01*
X203917142Y-41880952D01*
X204488571Y-42452380D01*
X203869523Y-42452380D01*
X181631428Y-42452380D02*
X181964761Y-41976190D01*
X182202857Y-42452380D02*
X182202857Y-41452380D01*
X181821904Y-41452380D01*
X181726666Y-41500000D01*
X181679047Y-41547619D01*
X181631428Y-41642857D01*
X181631428Y-41785714D01*
X181679047Y-41880952D01*
X181726666Y-41928571D01*
X181821904Y-41976190D01*
X182202857Y-41976190D01*
X180726666Y-42452380D02*
X181202857Y-42452380D01*
X181202857Y-41452380D01*
X180440952Y-41547619D02*
X180393333Y-41500000D01*
X180298095Y-41452380D01*
X180060000Y-41452380D01*
X179964761Y-41500000D01*
X179917142Y-41547619D01*
X179869523Y-41642857D01*
X179869523Y-41738095D01*
X179917142Y-41880952D01*
X180488571Y-42452380D01*
X179869523Y-42452380D01*
X157631428Y-42452380D02*
X157964761Y-41976190D01*
X158202857Y-42452380D02*
X158202857Y-41452380D01*
X157821904Y-41452380D01*
X157726666Y-41500000D01*
X157679047Y-41547619D01*
X157631428Y-41642857D01*
X157631428Y-41785714D01*
X157679047Y-41880952D01*
X157726666Y-41928571D01*
X157821904Y-41976190D01*
X158202857Y-41976190D01*
X156726666Y-42452380D02*
X157202857Y-42452380D01*
X157202857Y-41452380D01*
X156440952Y-41547619D02*
X156393333Y-41500000D01*
X156298095Y-41452380D01*
X156060000Y-41452380D01*
X155964761Y-41500000D01*
X155917142Y-41547619D01*
X155869523Y-41642857D01*
X155869523Y-41738095D01*
X155917142Y-41880952D01*
X156488571Y-42452380D01*
X155869523Y-42452380D01*
X215984666Y-125298142D02*
X216032285Y-125345761D01*
X216175142Y-125393380D01*
X216270380Y-125393380D01*
X216413238Y-125345761D01*
X216508476Y-125250523D01*
X216556095Y-125155285D01*
X216603714Y-124964809D01*
X216603714Y-124821952D01*
X216556095Y-124631476D01*
X216508476Y-124536238D01*
X216413238Y-124441000D01*
X216270380Y-124393380D01*
X216175142Y-124393380D01*
X216032285Y-124441000D01*
X215984666Y-124488619D01*
X215603714Y-124488619D02*
X215556095Y-124441000D01*
X215460857Y-124393380D01*
X215222761Y-124393380D01*
X215127523Y-124441000D01*
X215079904Y-124488619D01*
X215032285Y-124583857D01*
X215032285Y-124679095D01*
X215079904Y-124821952D01*
X215651333Y-125393380D01*
X215032285Y-125393380D01*
X191984666Y-125298142D02*
X192032285Y-125345761D01*
X192175142Y-125393380D01*
X192270380Y-125393380D01*
X192413238Y-125345761D01*
X192508476Y-125250523D01*
X192556095Y-125155285D01*
X192603714Y-124964809D01*
X192603714Y-124821952D01*
X192556095Y-124631476D01*
X192508476Y-124536238D01*
X192413238Y-124441000D01*
X192270380Y-124393380D01*
X192175142Y-124393380D01*
X192032285Y-124441000D01*
X191984666Y-124488619D01*
X191603714Y-124488619D02*
X191556095Y-124441000D01*
X191460857Y-124393380D01*
X191222761Y-124393380D01*
X191127523Y-124441000D01*
X191079904Y-124488619D01*
X191032285Y-124583857D01*
X191032285Y-124679095D01*
X191079904Y-124821952D01*
X191651333Y-125393380D01*
X191032285Y-125393380D01*
X167984666Y-125298142D02*
X168032285Y-125345761D01*
X168175142Y-125393380D01*
X168270380Y-125393380D01*
X168413238Y-125345761D01*
X168508476Y-125250523D01*
X168556095Y-125155285D01*
X168603714Y-124964809D01*
X168603714Y-124821952D01*
X168556095Y-124631476D01*
X168508476Y-124536238D01*
X168413238Y-124441000D01*
X168270380Y-124393380D01*
X168175142Y-124393380D01*
X168032285Y-124441000D01*
X167984666Y-124488619D01*
X167603714Y-124488619D02*
X167556095Y-124441000D01*
X167460857Y-124393380D01*
X167222761Y-124393380D01*
X167127523Y-124441000D01*
X167079904Y-124488619D01*
X167032285Y-124583857D01*
X167032285Y-124679095D01*
X167079904Y-124821952D01*
X167651333Y-125393380D01*
X167032285Y-125393380D01*
X143984666Y-125298142D02*
X144032285Y-125345761D01*
X144175142Y-125393380D01*
X144270380Y-125393380D01*
X144413238Y-125345761D01*
X144508476Y-125250523D01*
X144556095Y-125155285D01*
X144603714Y-124964809D01*
X144603714Y-124821952D01*
X144556095Y-124631476D01*
X144508476Y-124536238D01*
X144413238Y-124441000D01*
X144270380Y-124393380D01*
X144175142Y-124393380D01*
X144032285Y-124441000D01*
X143984666Y-124488619D01*
X143603714Y-124488619D02*
X143556095Y-124441000D01*
X143460857Y-124393380D01*
X143222761Y-124393380D01*
X143127523Y-124441000D01*
X143079904Y-124488619D01*
X143032285Y-124583857D01*
X143032285Y-124679095D01*
X143079904Y-124821952D01*
X143651333Y-125393380D01*
X143032285Y-125393380D01*
X215984666Y-109298142D02*
X216032285Y-109345761D01*
X216175142Y-109393380D01*
X216270380Y-109393380D01*
X216413238Y-109345761D01*
X216508476Y-109250523D01*
X216556095Y-109155285D01*
X216603714Y-108964809D01*
X216603714Y-108821952D01*
X216556095Y-108631476D01*
X216508476Y-108536238D01*
X216413238Y-108441000D01*
X216270380Y-108393380D01*
X216175142Y-108393380D01*
X216032285Y-108441000D01*
X215984666Y-108488619D01*
X215603714Y-108488619D02*
X215556095Y-108441000D01*
X215460857Y-108393380D01*
X215222761Y-108393380D01*
X215127523Y-108441000D01*
X215079904Y-108488619D01*
X215032285Y-108583857D01*
X215032285Y-108679095D01*
X215079904Y-108821952D01*
X215651333Y-109393380D01*
X215032285Y-109393380D01*
X191984666Y-109298142D02*
X192032285Y-109345761D01*
X192175142Y-109393380D01*
X192270380Y-109393380D01*
X192413238Y-109345761D01*
X192508476Y-109250523D01*
X192556095Y-109155285D01*
X192603714Y-108964809D01*
X192603714Y-108821952D01*
X192556095Y-108631476D01*
X192508476Y-108536238D01*
X192413238Y-108441000D01*
X192270380Y-108393380D01*
X192175142Y-108393380D01*
X192032285Y-108441000D01*
X191984666Y-108488619D01*
X191603714Y-108488619D02*
X191556095Y-108441000D01*
X191460857Y-108393380D01*
X191222761Y-108393380D01*
X191127523Y-108441000D01*
X191079904Y-108488619D01*
X191032285Y-108583857D01*
X191032285Y-108679095D01*
X191079904Y-108821952D01*
X191651333Y-109393380D01*
X191032285Y-109393380D01*
X167984666Y-109298142D02*
X168032285Y-109345761D01*
X168175142Y-109393380D01*
X168270380Y-109393380D01*
X168413238Y-109345761D01*
X168508476Y-109250523D01*
X168556095Y-109155285D01*
X168603714Y-108964809D01*
X168603714Y-108821952D01*
X168556095Y-108631476D01*
X168508476Y-108536238D01*
X168413238Y-108441000D01*
X168270380Y-108393380D01*
X168175142Y-108393380D01*
X168032285Y-108441000D01*
X167984666Y-108488619D01*
X167603714Y-108488619D02*
X167556095Y-108441000D01*
X167460857Y-108393380D01*
X167222761Y-108393380D01*
X167127523Y-108441000D01*
X167079904Y-108488619D01*
X167032285Y-108583857D01*
X167032285Y-108679095D01*
X167079904Y-108821952D01*
X167651333Y-109393380D01*
X167032285Y-109393380D01*
X143984666Y-109298142D02*
X144032285Y-109345761D01*
X144175142Y-109393380D01*
X144270380Y-109393380D01*
X144413238Y-109345761D01*
X144508476Y-109250523D01*
X144556095Y-109155285D01*
X144603714Y-108964809D01*
X144603714Y-108821952D01*
X144556095Y-108631476D01*
X144508476Y-108536238D01*
X144413238Y-108441000D01*
X144270380Y-108393380D01*
X144175142Y-108393380D01*
X144032285Y-108441000D01*
X143984666Y-108488619D01*
X143603714Y-108488619D02*
X143556095Y-108441000D01*
X143460857Y-108393380D01*
X143222761Y-108393380D01*
X143127523Y-108441000D01*
X143079904Y-108488619D01*
X143032285Y-108583857D01*
X143032285Y-108679095D01*
X143079904Y-108821952D01*
X143651333Y-109393380D01*
X143032285Y-109393380D01*
X215984666Y-93298142D02*
X216032285Y-93345761D01*
X216175142Y-93393380D01*
X216270380Y-93393380D01*
X216413238Y-93345761D01*
X216508476Y-93250523D01*
X216556095Y-93155285D01*
X216603714Y-92964809D01*
X216603714Y-92821952D01*
X216556095Y-92631476D01*
X216508476Y-92536238D01*
X216413238Y-92441000D01*
X216270380Y-92393380D01*
X216175142Y-92393380D01*
X216032285Y-92441000D01*
X215984666Y-92488619D01*
X215603714Y-92488619D02*
X215556095Y-92441000D01*
X215460857Y-92393380D01*
X215222761Y-92393380D01*
X215127523Y-92441000D01*
X215079904Y-92488619D01*
X215032285Y-92583857D01*
X215032285Y-92679095D01*
X215079904Y-92821952D01*
X215651333Y-93393380D01*
X215032285Y-93393380D01*
X191984666Y-93298142D02*
X192032285Y-93345761D01*
X192175142Y-93393380D01*
X192270380Y-93393380D01*
X192413238Y-93345761D01*
X192508476Y-93250523D01*
X192556095Y-93155285D01*
X192603714Y-92964809D01*
X192603714Y-92821952D01*
X192556095Y-92631476D01*
X192508476Y-92536238D01*
X192413238Y-92441000D01*
X192270380Y-92393380D01*
X192175142Y-92393380D01*
X192032285Y-92441000D01*
X191984666Y-92488619D01*
X191603714Y-92488619D02*
X191556095Y-92441000D01*
X191460857Y-92393380D01*
X191222761Y-92393380D01*
X191127523Y-92441000D01*
X191079904Y-92488619D01*
X191032285Y-92583857D01*
X191032285Y-92679095D01*
X191079904Y-92821952D01*
X191651333Y-93393380D01*
X191032285Y-93393380D01*
X167984666Y-93298142D02*
X168032285Y-93345761D01*
X168175142Y-93393380D01*
X168270380Y-93393380D01*
X168413238Y-93345761D01*
X168508476Y-93250523D01*
X168556095Y-93155285D01*
X168603714Y-92964809D01*
X168603714Y-92821952D01*
X168556095Y-92631476D01*
X168508476Y-92536238D01*
X168413238Y-92441000D01*
X168270380Y-92393380D01*
X168175142Y-92393380D01*
X168032285Y-92441000D01*
X167984666Y-92488619D01*
X167603714Y-92488619D02*
X167556095Y-92441000D01*
X167460857Y-92393380D01*
X167222761Y-92393380D01*
X167127523Y-92441000D01*
X167079904Y-92488619D01*
X167032285Y-92583857D01*
X167032285Y-92679095D01*
X167079904Y-92821952D01*
X167651333Y-93393380D01*
X167032285Y-93393380D01*
X143984666Y-93298142D02*
X144032285Y-93345761D01*
X144175142Y-93393380D01*
X144270380Y-93393380D01*
X144413238Y-93345761D01*
X144508476Y-93250523D01*
X144556095Y-93155285D01*
X144603714Y-92964809D01*
X144603714Y-92821952D01*
X144556095Y-92631476D01*
X144508476Y-92536238D01*
X144413238Y-92441000D01*
X144270380Y-92393380D01*
X144175142Y-92393380D01*
X144032285Y-92441000D01*
X143984666Y-92488619D01*
X143603714Y-92488619D02*
X143556095Y-92441000D01*
X143460857Y-92393380D01*
X143222761Y-92393380D01*
X143127523Y-92441000D01*
X143079904Y-92488619D01*
X143032285Y-92583857D01*
X143032285Y-92679095D01*
X143079904Y-92821952D01*
X143651333Y-93393380D01*
X143032285Y-93393380D01*
X215984666Y-77298142D02*
X216032285Y-77345761D01*
X216175142Y-77393380D01*
X216270380Y-77393380D01*
X216413238Y-77345761D01*
X216508476Y-77250523D01*
X216556095Y-77155285D01*
X216603714Y-76964809D01*
X216603714Y-76821952D01*
X216556095Y-76631476D01*
X216508476Y-76536238D01*
X216413238Y-76441000D01*
X216270380Y-76393380D01*
X216175142Y-76393380D01*
X216032285Y-76441000D01*
X215984666Y-76488619D01*
X215603714Y-76488619D02*
X215556095Y-76441000D01*
X215460857Y-76393380D01*
X215222761Y-76393380D01*
X215127523Y-76441000D01*
X215079904Y-76488619D01*
X215032285Y-76583857D01*
X215032285Y-76679095D01*
X215079904Y-76821952D01*
X215651333Y-77393380D01*
X215032285Y-77393380D01*
X191984666Y-77298142D02*
X192032285Y-77345761D01*
X192175142Y-77393380D01*
X192270380Y-77393380D01*
X192413238Y-77345761D01*
X192508476Y-77250523D01*
X192556095Y-77155285D01*
X192603714Y-76964809D01*
X192603714Y-76821952D01*
X192556095Y-76631476D01*
X192508476Y-76536238D01*
X192413238Y-76441000D01*
X192270380Y-76393380D01*
X192175142Y-76393380D01*
X192032285Y-76441000D01*
X191984666Y-76488619D01*
X191603714Y-76488619D02*
X191556095Y-76441000D01*
X191460857Y-76393380D01*
X191222761Y-76393380D01*
X191127523Y-76441000D01*
X191079904Y-76488619D01*
X191032285Y-76583857D01*
X191032285Y-76679095D01*
X191079904Y-76821952D01*
X191651333Y-77393380D01*
X191032285Y-77393380D01*
X167984666Y-77298142D02*
X168032285Y-77345761D01*
X168175142Y-77393380D01*
X168270380Y-77393380D01*
X168413238Y-77345761D01*
X168508476Y-77250523D01*
X168556095Y-77155285D01*
X168603714Y-76964809D01*
X168603714Y-76821952D01*
X168556095Y-76631476D01*
X168508476Y-76536238D01*
X168413238Y-76441000D01*
X168270380Y-76393380D01*
X168175142Y-76393380D01*
X168032285Y-76441000D01*
X167984666Y-76488619D01*
X167603714Y-76488619D02*
X167556095Y-76441000D01*
X167460857Y-76393380D01*
X167222761Y-76393380D01*
X167127523Y-76441000D01*
X167079904Y-76488619D01*
X167032285Y-76583857D01*
X167032285Y-76679095D01*
X167079904Y-76821952D01*
X167651333Y-77393380D01*
X167032285Y-77393380D01*
X143984666Y-77298142D02*
X144032285Y-77345761D01*
X144175142Y-77393380D01*
X144270380Y-77393380D01*
X144413238Y-77345761D01*
X144508476Y-77250523D01*
X144556095Y-77155285D01*
X144603714Y-76964809D01*
X144603714Y-76821952D01*
X144556095Y-76631476D01*
X144508476Y-76536238D01*
X144413238Y-76441000D01*
X144270380Y-76393380D01*
X144175142Y-76393380D01*
X144032285Y-76441000D01*
X143984666Y-76488619D01*
X143603714Y-76488619D02*
X143556095Y-76441000D01*
X143460857Y-76393380D01*
X143222761Y-76393380D01*
X143127523Y-76441000D01*
X143079904Y-76488619D01*
X143032285Y-76583857D01*
X143032285Y-76679095D01*
X143079904Y-76821952D01*
X143651333Y-77393380D01*
X143032285Y-77393380D01*
X215984666Y-61298142D02*
X216032285Y-61345761D01*
X216175142Y-61393380D01*
X216270380Y-61393380D01*
X216413238Y-61345761D01*
X216508476Y-61250523D01*
X216556095Y-61155285D01*
X216603714Y-60964809D01*
X216603714Y-60821952D01*
X216556095Y-60631476D01*
X216508476Y-60536238D01*
X216413238Y-60441000D01*
X216270380Y-60393380D01*
X216175142Y-60393380D01*
X216032285Y-60441000D01*
X215984666Y-60488619D01*
X215603714Y-60488619D02*
X215556095Y-60441000D01*
X215460857Y-60393380D01*
X215222761Y-60393380D01*
X215127523Y-60441000D01*
X215079904Y-60488619D01*
X215032285Y-60583857D01*
X215032285Y-60679095D01*
X215079904Y-60821952D01*
X215651333Y-61393380D01*
X215032285Y-61393380D01*
X191984666Y-61298142D02*
X192032285Y-61345761D01*
X192175142Y-61393380D01*
X192270380Y-61393380D01*
X192413238Y-61345761D01*
X192508476Y-61250523D01*
X192556095Y-61155285D01*
X192603714Y-60964809D01*
X192603714Y-60821952D01*
X192556095Y-60631476D01*
X192508476Y-60536238D01*
X192413238Y-60441000D01*
X192270380Y-60393380D01*
X192175142Y-60393380D01*
X192032285Y-60441000D01*
X191984666Y-60488619D01*
X191603714Y-60488619D02*
X191556095Y-60441000D01*
X191460857Y-60393380D01*
X191222761Y-60393380D01*
X191127523Y-60441000D01*
X191079904Y-60488619D01*
X191032285Y-60583857D01*
X191032285Y-60679095D01*
X191079904Y-60821952D01*
X191651333Y-61393380D01*
X191032285Y-61393380D01*
X167984666Y-61298142D02*
X168032285Y-61345761D01*
X168175142Y-61393380D01*
X168270380Y-61393380D01*
X168413238Y-61345761D01*
X168508476Y-61250523D01*
X168556095Y-61155285D01*
X168603714Y-60964809D01*
X168603714Y-60821952D01*
X168556095Y-60631476D01*
X168508476Y-60536238D01*
X168413238Y-60441000D01*
X168270380Y-60393380D01*
X168175142Y-60393380D01*
X168032285Y-60441000D01*
X167984666Y-60488619D01*
X167603714Y-60488619D02*
X167556095Y-60441000D01*
X167460857Y-60393380D01*
X167222761Y-60393380D01*
X167127523Y-60441000D01*
X167079904Y-60488619D01*
X167032285Y-60583857D01*
X167032285Y-60679095D01*
X167079904Y-60821952D01*
X167651333Y-61393380D01*
X167032285Y-61393380D01*
X143984666Y-61298142D02*
X144032285Y-61345761D01*
X144175142Y-61393380D01*
X144270380Y-61393380D01*
X144413238Y-61345761D01*
X144508476Y-61250523D01*
X144556095Y-61155285D01*
X144603714Y-60964809D01*
X144603714Y-60821952D01*
X144556095Y-60631476D01*
X144508476Y-60536238D01*
X144413238Y-60441000D01*
X144270380Y-60393380D01*
X144175142Y-60393380D01*
X144032285Y-60441000D01*
X143984666Y-60488619D01*
X143603714Y-60488619D02*
X143556095Y-60441000D01*
X143460857Y-60393380D01*
X143222761Y-60393380D01*
X143127523Y-60441000D01*
X143079904Y-60488619D01*
X143032285Y-60583857D01*
X143032285Y-60679095D01*
X143079904Y-60821952D01*
X143651333Y-61393380D01*
X143032285Y-61393380D01*
X215984666Y-45298142D02*
X216032285Y-45345761D01*
X216175142Y-45393380D01*
X216270380Y-45393380D01*
X216413238Y-45345761D01*
X216508476Y-45250523D01*
X216556095Y-45155285D01*
X216603714Y-44964809D01*
X216603714Y-44821952D01*
X216556095Y-44631476D01*
X216508476Y-44536238D01*
X216413238Y-44441000D01*
X216270380Y-44393380D01*
X216175142Y-44393380D01*
X216032285Y-44441000D01*
X215984666Y-44488619D01*
X215603714Y-44488619D02*
X215556095Y-44441000D01*
X215460857Y-44393380D01*
X215222761Y-44393380D01*
X215127523Y-44441000D01*
X215079904Y-44488619D01*
X215032285Y-44583857D01*
X215032285Y-44679095D01*
X215079904Y-44821952D01*
X215651333Y-45393380D01*
X215032285Y-45393380D01*
X191984666Y-45298142D02*
X192032285Y-45345761D01*
X192175142Y-45393380D01*
X192270380Y-45393380D01*
X192413238Y-45345761D01*
X192508476Y-45250523D01*
X192556095Y-45155285D01*
X192603714Y-44964809D01*
X192603714Y-44821952D01*
X192556095Y-44631476D01*
X192508476Y-44536238D01*
X192413238Y-44441000D01*
X192270380Y-44393380D01*
X192175142Y-44393380D01*
X192032285Y-44441000D01*
X191984666Y-44488619D01*
X191603714Y-44488619D02*
X191556095Y-44441000D01*
X191460857Y-44393380D01*
X191222761Y-44393380D01*
X191127523Y-44441000D01*
X191079904Y-44488619D01*
X191032285Y-44583857D01*
X191032285Y-44679095D01*
X191079904Y-44821952D01*
X191651333Y-45393380D01*
X191032285Y-45393380D01*
X167984666Y-45298142D02*
X168032285Y-45345761D01*
X168175142Y-45393380D01*
X168270380Y-45393380D01*
X168413238Y-45345761D01*
X168508476Y-45250523D01*
X168556095Y-45155285D01*
X168603714Y-44964809D01*
X168603714Y-44821952D01*
X168556095Y-44631476D01*
X168508476Y-44536238D01*
X168413238Y-44441000D01*
X168270380Y-44393380D01*
X168175142Y-44393380D01*
X168032285Y-44441000D01*
X167984666Y-44488619D01*
X167603714Y-44488619D02*
X167556095Y-44441000D01*
X167460857Y-44393380D01*
X167222761Y-44393380D01*
X167127523Y-44441000D01*
X167079904Y-44488619D01*
X167032285Y-44583857D01*
X167032285Y-44679095D01*
X167079904Y-44821952D01*
X167651333Y-45393380D01*
X167032285Y-45393380D01*
X143984666Y-45298142D02*
X144032285Y-45345761D01*
X144175142Y-45393380D01*
X144270380Y-45393380D01*
X144413238Y-45345761D01*
X144508476Y-45250523D01*
X144556095Y-45155285D01*
X144603714Y-44964809D01*
X144603714Y-44821952D01*
X144556095Y-44631476D01*
X144508476Y-44536238D01*
X144413238Y-44441000D01*
X144270380Y-44393380D01*
X144175142Y-44393380D01*
X144032285Y-44441000D01*
X143984666Y-44488619D01*
X143603714Y-44488619D02*
X143556095Y-44441000D01*
X143460857Y-44393380D01*
X143222761Y-44393380D01*
X143127523Y-44441000D01*
X143079904Y-44488619D01*
X143032285Y-44583857D01*
X143032285Y-44679095D01*
X143079904Y-44821952D01*
X143651333Y-45393380D01*
X143032285Y-45393380D01*
X133631428Y-42452380D02*
X133964761Y-41976190D01*
X134202857Y-42452380D02*
X134202857Y-41452380D01*
X133821904Y-41452380D01*
X133726666Y-41500000D01*
X133679047Y-41547619D01*
X133631428Y-41642857D01*
X133631428Y-41785714D01*
X133679047Y-41880952D01*
X133726666Y-41928571D01*
X133821904Y-41976190D01*
X134202857Y-41976190D01*
X132726666Y-42452380D02*
X133202857Y-42452380D01*
X133202857Y-41452380D01*
X132440952Y-41547619D02*
X132393333Y-41500000D01*
X132298095Y-41452380D01*
X132060000Y-41452380D01*
X131964761Y-41500000D01*
X131917142Y-41547619D01*
X131869523Y-41642857D01*
X131869523Y-41738095D01*
X131917142Y-41880952D01*
X132488571Y-42452380D01*
X131869523Y-42452380D01*
X139484380Y-50815428D02*
X138484380Y-50815428D01*
X138484380Y-51196380D01*
X138532000Y-51291619D01*
X138579619Y-51339238D01*
X138674857Y-51386857D01*
X138817714Y-51386857D01*
X138912952Y-51339238D01*
X138960571Y-51291619D01*
X139008190Y-51196380D01*
X139008190Y-50815428D01*
X138484380Y-51672571D02*
X138484380Y-52244000D01*
X139484380Y-51958285D02*
X138484380Y-51958285D01*
X139484380Y-52577333D02*
X138817714Y-52577333D01*
X139008190Y-52577333D02*
X138912952Y-52624952D01*
X138865333Y-52672571D01*
X138817714Y-52767809D01*
X138817714Y-52863047D01*
X139484380Y-53720190D02*
X139484380Y-53148761D01*
X139484380Y-53434476D02*
X138484380Y-53434476D01*
X138627238Y-53339238D01*
X138722476Y-53244000D01*
X138770095Y-53148761D01*
X133095238Y-47647619D02*
X133190476Y-47600000D01*
X133285714Y-47504761D01*
X133428571Y-47361904D01*
X133523809Y-47314285D01*
X133619047Y-47314285D01*
X133571428Y-47552380D02*
X133666666Y-47504761D01*
X133761904Y-47409523D01*
X133809523Y-47219047D01*
X133809523Y-46885714D01*
X133761904Y-46695238D01*
X133666666Y-46600000D01*
X133571428Y-46552380D01*
X133380952Y-46552380D01*
X133285714Y-46600000D01*
X133190476Y-46695238D01*
X133142857Y-46885714D01*
X133142857Y-47219047D01*
X133190476Y-47409523D01*
X133285714Y-47504761D01*
X133380952Y-47552380D01*
X133571428Y-47552380D01*
X132238095Y-46552380D02*
X132714285Y-46552380D01*
X132761904Y-47028571D01*
X132714285Y-46980952D01*
X132619047Y-46933333D01*
X132380952Y-46933333D01*
X132285714Y-46980952D01*
X132238095Y-47028571D01*
X132190476Y-47123809D01*
X132190476Y-47361904D01*
X132238095Y-47457142D01*
X132285714Y-47504761D01*
X132380952Y-47552380D01*
X132619047Y-47552380D01*
X132714285Y-47504761D01*
X132761904Y-47457142D01*
%LPC*%
D12*
X203729999Y-133500000D03*
D13*
X206269999Y-133500000D03*
X204999999Y-133500000D03*
D12*
X179729999Y-133500000D03*
D13*
X182269999Y-133500000D03*
X180999999Y-133500000D03*
D12*
X155729999Y-133500000D03*
D13*
X158269999Y-133500000D03*
X156999999Y-133500000D03*
D12*
X131729999Y-133500000D03*
D13*
X134269999Y-133500000D03*
X132999999Y-133500000D03*
D12*
X203729999Y-117500000D03*
D13*
X206269999Y-117500000D03*
X204999999Y-117500000D03*
D12*
X179729999Y-117500000D03*
D13*
X182269999Y-117500000D03*
X180999999Y-117500000D03*
D12*
X155729999Y-117500000D03*
D13*
X158269999Y-117500000D03*
X156999999Y-117500000D03*
D12*
X131729999Y-117500000D03*
D13*
X134269999Y-117500000D03*
X132999999Y-117500000D03*
D12*
X203729999Y-101500000D03*
D13*
X206269999Y-101500000D03*
X204999999Y-101500000D03*
D12*
X179729999Y-101500000D03*
D13*
X182269999Y-101500000D03*
X180999999Y-101500000D03*
D12*
X155729999Y-101500000D03*
D13*
X158269999Y-101500000D03*
X156999999Y-101500000D03*
D12*
X131729999Y-101500000D03*
D13*
X134269999Y-101500000D03*
X132999999Y-101500000D03*
D12*
X203729999Y-85500000D03*
D13*
X206269999Y-85500000D03*
X204999999Y-85500000D03*
D12*
X179729999Y-85500000D03*
D13*
X182269999Y-85500000D03*
X180999999Y-85500000D03*
D12*
X155729999Y-85500000D03*
D13*
X158269999Y-85500000D03*
X156999999Y-85500000D03*
D12*
X131729999Y-85500000D03*
D13*
X134269999Y-85500000D03*
X132999999Y-85500000D03*
D12*
X203729999Y-69500000D03*
D13*
X206269999Y-69500000D03*
X204999999Y-69500000D03*
D12*
X179729999Y-69500000D03*
D13*
X182269999Y-69500000D03*
X180999999Y-69500000D03*
D12*
X155729999Y-69500000D03*
D13*
X158269999Y-69500000D03*
X156999999Y-69500000D03*
D12*
X131729999Y-69500000D03*
D13*
X134269999Y-69500000D03*
X132999999Y-69500000D03*
D12*
X203729999Y-53500000D03*
D13*
X206269999Y-53500000D03*
X204999999Y-53500000D03*
D12*
X179729999Y-53500000D03*
D13*
X182269999Y-53500000D03*
X180999999Y-53500000D03*
D12*
X155729999Y-53500000D03*
D13*
X158269999Y-53500000D03*
X156999999Y-53500000D03*
D14*
X211000000Y-126710000D03*
D15*
X211000000Y-129250000D03*
D14*
X187000000Y-126710000D03*
D15*
X187000000Y-129250000D03*
D14*
X163000000Y-126710000D03*
D15*
X163000000Y-129250000D03*
D14*
X139000000Y-126710000D03*
D15*
X139000000Y-129250000D03*
D14*
X211000000Y-110710000D03*
D15*
X211000000Y-113250000D03*
D14*
X187000000Y-110710000D03*
D15*
X187000000Y-113250000D03*
D14*
X163000000Y-110710000D03*
D15*
X163000000Y-113250000D03*
D14*
X139000000Y-110710000D03*
D15*
X139000000Y-113250000D03*
D14*
X211000000Y-94710000D03*
D15*
X211000000Y-97250000D03*
D14*
X187000000Y-94710000D03*
D15*
X187000000Y-97250000D03*
D14*
X163000000Y-94710000D03*
D15*
X163000000Y-97250000D03*
D14*
X139000000Y-94710000D03*
D15*
X139000000Y-97250000D03*
D14*
X211000000Y-78710000D03*
D15*
X211000000Y-81250000D03*
D14*
X187000000Y-78710000D03*
D15*
X187000000Y-81250000D03*
D14*
X163000000Y-78710000D03*
D15*
X163000000Y-81250000D03*
D14*
X139000000Y-78710000D03*
D15*
X139000000Y-81250000D03*
D14*
X211000000Y-62710000D03*
D15*
X211000000Y-65250000D03*
D14*
X187000000Y-62710000D03*
D15*
X187000000Y-65250000D03*
D14*
X163000000Y-62710000D03*
D15*
X163000000Y-65250000D03*
D14*
X139000000Y-62710000D03*
D15*
X139000000Y-65250000D03*
D14*
X211000000Y-46710000D03*
D15*
X211000000Y-49250000D03*
D14*
X187000000Y-46710000D03*
D15*
X187000000Y-49250000D03*
D14*
X163000000Y-46710000D03*
D15*
X163000000Y-49250000D03*
D16*
X201250000Y-122000000D03*
D17*
X208870000Y-122000000D03*
D16*
X177250000Y-122000000D03*
D17*
X184870000Y-122000000D03*
D16*
X153250000Y-122000000D03*
D17*
X160870000Y-122000000D03*
D16*
X129250000Y-122000000D03*
D17*
X136870000Y-122000000D03*
D16*
X201250000Y-106000000D03*
D17*
X208870000Y-106000000D03*
D16*
X177250000Y-106000000D03*
D17*
X184870000Y-106000000D03*
D16*
X153250000Y-106000000D03*
D17*
X160870000Y-106000000D03*
D16*
X129250000Y-106000000D03*
D17*
X136870000Y-106000000D03*
D16*
X201250000Y-90000000D03*
D17*
X208870000Y-90000000D03*
D16*
X177250000Y-90000000D03*
D17*
X184870000Y-90000000D03*
D16*
X153250000Y-90000000D03*
D17*
X160870000Y-90000000D03*
D16*
X129250000Y-90000000D03*
D17*
X136870000Y-90000000D03*
D16*
X201250000Y-74000000D03*
D17*
X208870000Y-74000000D03*
D16*
X177250000Y-74000000D03*
D17*
X184870000Y-74000000D03*
D16*
X153250000Y-74000000D03*
D17*
X160870000Y-74000000D03*
D16*
X129250000Y-74000000D03*
D17*
X136870000Y-74000000D03*
D16*
X201250000Y-58000000D03*
D17*
X208870000Y-58000000D03*
D16*
X177250000Y-58000000D03*
D17*
X184870000Y-58000000D03*
D16*
X153250000Y-58000000D03*
D17*
X160870000Y-58000000D03*
D16*
X129250000Y-58000000D03*
D17*
X136870000Y-58000000D03*
D16*
X201250000Y-42000000D03*
D17*
X208870000Y-42000000D03*
D16*
X177250000Y-42000000D03*
D17*
X184870000Y-42000000D03*
D16*
X153250000Y-42000000D03*
D17*
X160870000Y-42000000D03*
D18*
X220200000Y-128000000D03*
X196200000Y-128000000D03*
X172200000Y-128000000D03*
X148200000Y-128000000D03*
X220200000Y-112000000D03*
X196200000Y-112000000D03*
X172200000Y-112000000D03*
X148200000Y-112000000D03*
X220200000Y-96000000D03*
X196200000Y-96000000D03*
X172200000Y-96000000D03*
X148200000Y-96000000D03*
X220200000Y-80000000D03*
X196200000Y-80000000D03*
X172200000Y-80000000D03*
X148200000Y-80000000D03*
X220200000Y-64000000D03*
X196200000Y-64000000D03*
X172200000Y-64000000D03*
X148200000Y-64000000D03*
X220200000Y-48000000D03*
X196200000Y-48000000D03*
X172200000Y-48000000D03*
X199800000Y-130540000D03*
D19*
X199800000Y-128000000D03*
X199800000Y-125460000D03*
D18*
X175800000Y-130540000D03*
D19*
X175800000Y-128000000D03*
X175800000Y-125460000D03*
D18*
X151800000Y-130540000D03*
D19*
X151800000Y-128000000D03*
X151800000Y-125460000D03*
D18*
X127800000Y-130540000D03*
D19*
X127800000Y-128000000D03*
X127800000Y-125460000D03*
D18*
X199800000Y-114540000D03*
D19*
X199800000Y-112000000D03*
X199800000Y-109460000D03*
D18*
X175800000Y-114540000D03*
D19*
X175800000Y-112000000D03*
X175800000Y-109460000D03*
D18*
X151800000Y-114540000D03*
D19*
X151800000Y-112000000D03*
X151800000Y-109460000D03*
D18*
X127800000Y-114540000D03*
D19*
X127800000Y-112000000D03*
X127800000Y-109460000D03*
D18*
X199800000Y-98540000D03*
D19*
X199800000Y-96000000D03*
X199800000Y-93460000D03*
D18*
X175800000Y-98540000D03*
D19*
X175800000Y-96000000D03*
X175800000Y-93460000D03*
D18*
X151800000Y-98540000D03*
D19*
X151800000Y-96000000D03*
X151800000Y-93460000D03*
D18*
X127800000Y-98540000D03*
D19*
X127800000Y-96000000D03*
X127800000Y-93460000D03*
D18*
X199800000Y-82540000D03*
D19*
X199800000Y-80000000D03*
X199800000Y-77460000D03*
D18*
X175800000Y-82540000D03*
D19*
X175800000Y-80000000D03*
X175800000Y-77460000D03*
D18*
X151800000Y-82540000D03*
D19*
X151800000Y-80000000D03*
X151800000Y-77460000D03*
D18*
X127800000Y-82540000D03*
D19*
X127800000Y-80000000D03*
X127800000Y-77460000D03*
D18*
X199800000Y-66540000D03*
D19*
X199800000Y-64000000D03*
X199800000Y-61460000D03*
D18*
X175800000Y-66540000D03*
D19*
X175800000Y-64000000D03*
X175800000Y-61460000D03*
D18*
X151800000Y-66540000D03*
D19*
X151800000Y-64000000D03*
X151800000Y-61460000D03*
D18*
X127800000Y-66540000D03*
D19*
X127800000Y-64000000D03*
X127800000Y-61460000D03*
D18*
X199800000Y-50540000D03*
D19*
X199800000Y-48000000D03*
X199800000Y-45460000D03*
D18*
X175800000Y-50540000D03*
D19*
X175800000Y-48000000D03*
X175800000Y-45460000D03*
D18*
X151800000Y-50540000D03*
D19*
X151800000Y-48000000D03*
X151800000Y-45460000D03*
D17*
X218318000Y-132244000D03*
X213318000Y-132244000D03*
X194318000Y-132244000D03*
X189318000Y-132244000D03*
X170318000Y-132244000D03*
X165318000Y-132244000D03*
X146318000Y-132244000D03*
X141318000Y-132244000D03*
X218318000Y-116244000D03*
X213318000Y-116244000D03*
X194318000Y-116244000D03*
X189318000Y-116244000D03*
X170318000Y-116244000D03*
X165318000Y-116244000D03*
X146318000Y-116244000D03*
X141318000Y-116244000D03*
X218318000Y-100244000D03*
X213318000Y-100244000D03*
X194318000Y-100244000D03*
X189318000Y-100244000D03*
X170318000Y-100244000D03*
X165318000Y-100244000D03*
X146318000Y-100244000D03*
X141318000Y-100244000D03*
X218318000Y-84244000D03*
X213318000Y-84244000D03*
X194318000Y-84244000D03*
X189318000Y-84244000D03*
X170318000Y-84244000D03*
X165318000Y-84244000D03*
X146318000Y-84244000D03*
X141318000Y-84244000D03*
X218318000Y-68244000D03*
X213318000Y-68244000D03*
X194318000Y-68244000D03*
X189318000Y-68244000D03*
X170318000Y-68244000D03*
X165318000Y-68244000D03*
X146318000Y-68244000D03*
X141318000Y-68244000D03*
X218318000Y-52244000D03*
X213318000Y-52244000D03*
X194318000Y-52244000D03*
X189318000Y-52244000D03*
X170318000Y-52244000D03*
X165318000Y-52244000D03*
X141318000Y-52244000D03*
X146318000Y-52244000D03*
D19*
X127800000Y-45460000D03*
X127800000Y-48000000D03*
D18*
X127800000Y-50540000D03*
X148200000Y-48000000D03*
D17*
X136870000Y-42000000D03*
D16*
X129250000Y-42000000D03*
D15*
X139000000Y-49250000D03*
D14*
X139000000Y-46710000D03*
D13*
X132999999Y-53500000D03*
X134269999Y-53500000D03*
D12*
X131729999Y-53500000D03*
M02*
