M48
; DRILL file {KiCad 5.1.5-52549c5~84~ubuntu18.04.1} date Thu 11 Jun 2020 05:49:38 AM JST
; FORMAT={-:-/ absolute / metric / decimal}
; #@! TF.CreationDate,2020-06-11T05:49:38+09:00
; #@! TF.GenerationSoftware,Kicad,Pcbnew,5.1.5-52549c5~84~ubuntu18.04.1
FMAT,2
METRIC
T1C0.400
T2C0.750
T3C0.800
T4C0.900
T5C1.000
%
G90
G05
T1
X127.405Y-54.375
X127.405Y-70.375
X127.405Y-86.375
X127.405Y-102.375
X127.405Y-118.375
X127.405Y-134.375
X127.475Y-41.195
X127.475Y-57.195
X127.475Y-73.195
X127.475Y-89.195
X127.475Y-105.195
X127.475Y-121.195
X130.405Y-46.875
X130.405Y-49.375
X130.405Y-51.875
X130.405Y-62.875
X130.405Y-65.375
X130.405Y-67.875
X130.405Y-78.875
X130.405Y-81.375
X130.405Y-83.875
X130.405Y-94.875
X130.405Y-97.375
X130.405Y-99.875
X130.405Y-110.875
X130.405Y-113.375
X130.405Y-115.875
X130.405Y-126.875
X130.405Y-129.375
X130.405Y-131.875
X131.405Y-41.875
X131.405Y-57.875
X131.405Y-73.875
X131.405Y-89.875
X131.405Y-105.875
X131.405Y-121.875
X132.905Y-45.375
X132.905Y-48.875
X132.905Y-61.375
X132.905Y-64.875
X132.905Y-77.375
X132.905Y-80.875
X132.905Y-93.375
X132.905Y-96.875
X132.905Y-109.375
X132.905Y-112.875
X132.905Y-125.375
X132.905Y-128.875
X134.405Y-47.375
X134.405Y-63.375
X134.405Y-79.375
X134.405Y-95.375
X134.405Y-111.375
X134.405Y-127.375
X134.905Y-41.875
X134.905Y-57.875
X134.905Y-73.875
X134.905Y-89.875
X134.905Y-105.875
X134.905Y-121.875
X137.405Y-52.875
X137.405Y-68.875
X137.405Y-84.875
X137.405Y-100.875
X137.405Y-116.875
X137.405Y-132.875
X141.905Y-41.375
X141.905Y-45.875
X141.905Y-57.375
X141.905Y-61.875
X141.905Y-73.375
X141.905Y-77.875
X141.905Y-89.375
X141.905Y-93.875
X141.905Y-105.375
X141.905Y-109.875
X141.905Y-121.375
X141.905Y-125.875
X143.905Y-49.875
X143.905Y-65.875
X143.905Y-81.875
X143.905Y-97.875
X143.905Y-113.875
X143.905Y-129.875
X145.405Y-45.875
X145.405Y-61.875
X145.405Y-77.875
X145.405Y-93.875
X145.405Y-109.875
X145.405Y-125.875
X148.405Y-41.375
X148.405Y-54.375
X148.405Y-57.375
X148.405Y-70.375
X148.405Y-73.375
X148.405Y-86.375
X148.405Y-89.375
X148.405Y-102.375
X148.405Y-105.375
X148.405Y-118.375
X148.405Y-121.375
X148.405Y-134.375
X148.43Y-45.005
X148.43Y-61.005
X148.43Y-77.005
X148.43Y-93.005
X148.43Y-109.005
X148.43Y-125.005
X151.405Y-54.375
X151.405Y-70.375
X151.405Y-86.375
X151.405Y-102.375
X151.405Y-118.375
X151.405Y-134.375
X151.475Y-41.195
X151.475Y-57.195
X151.475Y-73.195
X151.475Y-89.195
X151.475Y-105.195
X151.475Y-121.195
X154.405Y-46.875
X154.405Y-49.375
X154.405Y-51.875
X154.405Y-62.875
X154.405Y-65.375
X154.405Y-67.875
X154.405Y-78.875
X154.405Y-81.375
X154.405Y-83.875
X154.405Y-94.875
X154.405Y-97.375
X154.405Y-99.875
X154.405Y-110.875
X154.405Y-113.375
X154.405Y-115.875
X154.405Y-126.875
X154.405Y-129.375
X154.405Y-131.875
X155.405Y-41.875
X155.405Y-57.875
X155.405Y-73.875
X155.405Y-89.875
X155.405Y-105.875
X155.405Y-121.875
X156.905Y-45.375
X156.905Y-48.875
X156.905Y-61.375
X156.905Y-64.875
X156.905Y-77.375
X156.905Y-80.875
X156.905Y-93.375
X156.905Y-96.875
X156.905Y-109.375
X156.905Y-112.875
X156.905Y-125.375
X156.905Y-128.875
X158.405Y-47.375
X158.405Y-63.375
X158.405Y-79.375
X158.405Y-95.375
X158.405Y-111.375
X158.405Y-127.375
X158.905Y-41.875
X158.905Y-57.875
X158.905Y-73.875
X158.905Y-89.875
X158.905Y-105.875
X158.905Y-121.875
X161.405Y-52.875
X161.405Y-68.875
X161.405Y-84.875
X161.405Y-100.875
X161.405Y-116.875
X161.405Y-132.875
X165.905Y-41.375
X165.905Y-45.875
X165.905Y-57.375
X165.905Y-61.875
X165.905Y-73.375
X165.905Y-77.875
X165.905Y-89.375
X165.905Y-93.875
X165.905Y-105.375
X165.905Y-109.875
X165.905Y-121.375
X165.905Y-125.875
X167.905Y-49.875
X167.905Y-65.875
X167.905Y-81.875
X167.905Y-97.875
X167.905Y-113.875
X167.905Y-129.875
X169.405Y-45.875
X169.405Y-61.875
X169.405Y-77.875
X169.405Y-93.875
X169.405Y-109.875
X169.405Y-125.875
X172.405Y-41.375
X172.405Y-54.375
X172.405Y-57.375
X172.405Y-70.375
X172.405Y-73.375
X172.405Y-86.375
X172.405Y-89.375
X172.405Y-102.375
X172.405Y-105.375
X172.405Y-118.375
X172.405Y-121.375
X172.405Y-134.375
X172.43Y-45.005
X172.43Y-61.005
X172.43Y-77.005
X172.43Y-93.005
X172.43Y-109.005
X172.43Y-125.005
X175.405Y-54.375
X175.405Y-70.375
X175.405Y-86.375
X175.405Y-102.375
X175.405Y-118.375
X175.405Y-134.375
X175.475Y-41.195
X175.475Y-57.195
X175.475Y-73.195
X175.475Y-89.195
X175.475Y-105.195
X175.475Y-121.195
X178.405Y-46.875
X178.405Y-49.375
X178.405Y-51.875
X178.405Y-62.875
X178.405Y-65.375
X178.405Y-67.875
X178.405Y-78.875
X178.405Y-81.375
X178.405Y-83.875
X178.405Y-94.875
X178.405Y-97.375
X178.405Y-99.875
X178.405Y-110.875
X178.405Y-113.375
X178.405Y-115.875
X178.405Y-126.875
X178.405Y-129.375
X178.405Y-131.875
X179.405Y-41.875
X179.405Y-57.875
X179.405Y-73.875
X179.405Y-89.875
X179.405Y-105.875
X179.405Y-121.875
X180.905Y-45.375
X180.905Y-48.875
X180.905Y-61.375
X180.905Y-64.875
X180.905Y-77.375
X180.905Y-80.875
X180.905Y-93.375
X180.905Y-96.875
X180.905Y-109.375
X180.905Y-112.875
X180.905Y-125.375
X180.905Y-128.875
X182.405Y-47.375
X182.405Y-63.375
X182.405Y-79.375
X182.405Y-95.375
X182.405Y-111.375
X182.405Y-127.375
X182.905Y-41.875
X182.905Y-57.875
X182.905Y-73.875
X182.905Y-89.875
X182.905Y-105.875
X182.905Y-121.875
X185.405Y-52.875
X185.405Y-68.875
X185.405Y-84.875
X185.405Y-100.875
X185.405Y-116.875
X185.405Y-132.875
X189.905Y-41.375
X189.905Y-45.875
X189.905Y-57.375
X189.905Y-61.875
X189.905Y-73.375
X189.905Y-77.875
X189.905Y-89.375
X189.905Y-93.875
X189.905Y-105.375
X189.905Y-109.875
X189.905Y-121.375
X189.905Y-125.875
X191.905Y-49.875
X191.905Y-65.875
X191.905Y-81.875
X191.905Y-97.875
X191.905Y-113.875
X191.905Y-129.875
X193.405Y-45.875
X193.405Y-61.875
X193.405Y-77.875
X193.405Y-93.875
X193.405Y-109.875
X193.405Y-125.875
X196.405Y-41.375
X196.405Y-54.375
X196.405Y-57.375
X196.405Y-70.375
X196.405Y-73.375
X196.405Y-86.375
X196.405Y-89.375
X196.405Y-102.375
X196.405Y-105.375
X196.405Y-118.375
X196.405Y-121.375
X196.405Y-134.375
X196.43Y-45.005
X196.43Y-61.005
X196.43Y-77.005
X196.43Y-93.005
X196.43Y-109.005
X196.43Y-125.005
X199.405Y-54.375
X199.405Y-70.375
X199.405Y-86.375
X199.405Y-102.375
X199.405Y-118.375
X199.405Y-134.375
X199.475Y-41.195
X199.475Y-57.195
X199.475Y-73.195
X199.475Y-89.195
X199.475Y-105.195
X199.475Y-121.195
X202.405Y-46.875
X202.405Y-49.375
X202.405Y-51.875
X202.405Y-62.875
X202.405Y-65.375
X202.405Y-67.875
X202.405Y-78.875
X202.405Y-81.375
X202.405Y-83.875
X202.405Y-94.875
X202.405Y-97.375
X202.405Y-99.875
X202.405Y-110.875
X202.405Y-113.375
X202.405Y-115.875
X202.405Y-126.875
X202.405Y-129.375
X202.405Y-131.875
X203.405Y-41.875
X203.405Y-57.875
X203.405Y-73.875
X203.405Y-89.875
X203.405Y-105.875
X203.405Y-121.875
X204.905Y-45.375
X204.905Y-48.875
X204.905Y-61.375
X204.905Y-64.875
X204.905Y-77.375
X204.905Y-80.875
X204.905Y-93.375
X204.905Y-96.875
X204.905Y-109.375
X204.905Y-112.875
X204.905Y-125.375
X204.905Y-128.875
X206.405Y-47.375
X206.405Y-63.375
X206.405Y-79.375
X206.405Y-95.375
X206.405Y-111.375
X206.405Y-127.375
X206.905Y-41.875
X206.905Y-57.875
X206.905Y-73.875
X206.905Y-89.875
X206.905Y-105.875
X206.905Y-121.875
X209.405Y-52.875
X209.405Y-68.875
X209.405Y-84.875
X209.405Y-100.875
X209.405Y-116.875
X209.405Y-132.875
X213.905Y-41.375
X213.905Y-45.875
X213.905Y-57.375
X213.905Y-61.875
X213.905Y-73.375
X213.905Y-77.875
X213.905Y-89.375
X213.905Y-93.875
X213.905Y-105.375
X213.905Y-109.875
X213.905Y-121.375
X213.905Y-125.875
X215.905Y-49.875
X215.905Y-65.875
X215.905Y-81.875
X215.905Y-97.875
X215.905Y-113.875
X215.905Y-129.875
X217.405Y-45.875
X217.405Y-61.875
X217.405Y-77.875
X217.405Y-93.875
X217.405Y-109.875
X217.405Y-125.875
X220.405Y-41.375
X220.405Y-54.375
X220.405Y-57.375
X220.405Y-70.375
X220.405Y-73.375
X220.405Y-86.375
X220.405Y-89.375
X220.405Y-102.375
X220.405Y-105.375
X220.405Y-118.375
X220.405Y-121.375
X220.405Y-134.375
X220.43Y-45.005
X220.43Y-61.005
X220.43Y-77.005
X220.43Y-93.005
X220.43Y-109.005
X220.43Y-125.005
T2
X131.73Y-117.5
X133.0Y-117.5
X134.27Y-117.5
X203.73Y-117.5
X205.0Y-117.5
X206.27Y-117.5
X203.73Y-101.5
X205.0Y-101.5
X206.27Y-101.5
X155.73Y-85.5
X157.0Y-85.5
X158.27Y-85.5
X203.73Y-53.5
X205.0Y-53.5
X206.27Y-53.5
X179.73Y-85.5
X181.0Y-85.5
X182.27Y-85.5
X131.73Y-101.5
X133.0Y-101.5
X134.27Y-101.5
X155.73Y-133.5
X157.0Y-133.5
X158.27Y-133.5
X155.73Y-117.5
X157.0Y-117.5
X158.27Y-117.5
X131.73Y-133.5
X133.0Y-133.5
X134.27Y-133.5
X203.73Y-133.5
X205.0Y-133.5
X206.27Y-133.5
X203.73Y-85.5
X205.0Y-85.5
X206.27Y-85.5
X131.73Y-53.5
X133.0Y-53.5
X134.27Y-53.5
X179.73Y-101.5
X181.0Y-101.5
X182.27Y-101.5
X131.73Y-69.5
X133.0Y-69.5
X134.27Y-69.5
X179.73Y-117.5
X181.0Y-117.5
X182.27Y-117.5
X179.73Y-53.5
X181.0Y-53.5
X182.27Y-53.5
X179.73Y-133.5
X181.0Y-133.5
X182.27Y-133.5
X131.73Y-85.5
X133.0Y-85.5
X134.27Y-85.5
X179.73Y-69.5
X181.0Y-69.5
X182.27Y-69.5
X155.73Y-69.5
X157.0Y-69.5
X158.27Y-69.5
X155.73Y-53.5
X157.0Y-53.5
X158.27Y-53.5
X155.73Y-101.5
X157.0Y-101.5
X158.27Y-101.5
X203.73Y-69.5
X205.0Y-69.5
X206.27Y-69.5
T3
X201.25Y-58.0
X208.87Y-58.0
X129.25Y-74.0
X136.87Y-74.0
X213.318Y-84.244
X218.318Y-84.244
X141.318Y-132.244
X146.318Y-132.244
X129.25Y-58.0
X136.87Y-58.0
X153.25Y-90.0
X160.87Y-90.0
X177.25Y-42.0
X184.87Y-42.0
X201.25Y-90.0
X208.87Y-90.0
X201.25Y-122.0
X208.87Y-122.0
X153.25Y-74.0
X160.87Y-74.0
X189.318Y-132.244
X194.318Y-132.244
X165.318Y-68.244
X170.318Y-68.244
X189.318Y-68.244
X194.318Y-68.244
X213.318Y-116.244
X218.318Y-116.244
X153.25Y-106.0
X160.87Y-106.0
X141.318Y-52.244
X146.318Y-52.244
X129.25Y-42.0
X136.87Y-42.0
X177.25Y-74.0
X184.87Y-74.0
X141.318Y-100.244
X146.318Y-100.244
X213.318Y-100.244
X218.318Y-100.244
X177.25Y-106.0
X184.87Y-106.0
X165.318Y-84.244
X170.318Y-84.244
X177.25Y-58.0
X184.87Y-58.0
X177.25Y-90.0
X184.87Y-90.0
X201.25Y-74.0
X208.87Y-74.0
X201.25Y-42.0
X208.87Y-42.0
X129.25Y-122.0
X136.87Y-122.0
X189.318Y-116.244
X194.318Y-116.244
X165.318Y-132.244
X170.318Y-132.244
X213.318Y-132.244
X218.318Y-132.244
X129.25Y-90.0
X136.87Y-90.0
X213.318Y-68.244
X218.318Y-68.244
X141.318Y-84.244
X146.318Y-84.244
X213.318Y-52.244
X218.318Y-52.244
X189.318Y-52.244
X194.318Y-52.244
X129.25Y-106.0
X136.87Y-106.0
X165.318Y-100.244
X170.318Y-100.244
X177.25Y-122.0
X184.87Y-122.0
X153.25Y-122.0
X160.87Y-122.0
X189.318Y-84.244
X194.318Y-84.244
X165.318Y-116.244
X170.318Y-116.244
X141.318Y-116.244
X146.318Y-116.244
X141.318Y-68.244
X146.318Y-68.244
X165.318Y-52.244
X170.318Y-52.244
X201.25Y-106.0
X208.87Y-106.0
X153.25Y-42.0
X160.87Y-42.0
X153.25Y-58.0
X160.87Y-58.0
X189.318Y-100.244
X194.318Y-100.244
T4
X187.0Y-126.71
X187.0Y-129.25
X139.0Y-78.71
X139.0Y-81.25
X163.0Y-46.71
X163.0Y-49.25
X187.0Y-46.71
X187.0Y-49.25
X187.0Y-62.71
X187.0Y-65.25
X187.0Y-94.71
X187.0Y-97.25
X139.0Y-46.71
X139.0Y-49.25
X163.0Y-94.71
X163.0Y-97.25
X187.0Y-78.71
X187.0Y-81.25
X211.0Y-110.71
X211.0Y-113.25
X139.0Y-62.71
X139.0Y-65.25
X163.0Y-78.71
X163.0Y-81.25
X163.0Y-62.71
X163.0Y-65.25
X139.0Y-110.71
X139.0Y-113.25
X211.0Y-126.71
X211.0Y-129.25
X163.0Y-126.71
X163.0Y-129.25
X211.0Y-62.71
X211.0Y-65.25
X163.0Y-110.71
X163.0Y-113.25
X139.0Y-94.71
X139.0Y-97.25
X187.0Y-110.71
X187.0Y-113.25
X211.0Y-94.71
X211.0Y-97.25
X211.0Y-78.71
X211.0Y-81.25
X211.0Y-46.71
X211.0Y-49.25
X139.0Y-126.71
X139.0Y-129.25
T5
X172.2Y-80.0
X151.8Y-45.46
X151.8Y-48.0
X151.8Y-50.54
X172.2Y-48.0
X148.2Y-80.0
X175.8Y-93.46
X175.8Y-96.0
X175.8Y-98.54
X148.2Y-128.0
X220.2Y-112.0
X172.2Y-128.0
X199.8Y-109.46
X199.8Y-112.0
X199.8Y-114.54
X127.8Y-109.46
X127.8Y-112.0
X127.8Y-114.54
X151.8Y-125.46
X151.8Y-128.0
X151.8Y-130.54
X148.2Y-64.0
X151.8Y-93.46
X151.8Y-96.0
X151.8Y-98.54
X151.8Y-77.46
X151.8Y-80.0
X151.8Y-82.54
X148.2Y-48.0
X199.8Y-45.46
X199.8Y-48.0
X199.8Y-50.54
X148.2Y-112.0
X196.2Y-112.0
X196.2Y-48.0
X127.8Y-93.46
X127.8Y-96.0
X127.8Y-98.54
X199.8Y-125.46
X199.8Y-128.0
X199.8Y-130.54
X175.8Y-109.46
X175.8Y-112.0
X175.8Y-114.54
X151.8Y-61.46
X151.8Y-64.0
X151.8Y-66.54
X196.2Y-128.0
X175.8Y-45.46
X175.8Y-48.0
X175.8Y-50.54
X151.8Y-109.46
X151.8Y-112.0
X151.8Y-114.54
X175.8Y-61.46
X175.8Y-64.0
X175.8Y-66.54
X127.8Y-77.46
X127.8Y-80.0
X127.8Y-82.54
X220.2Y-96.0
X220.2Y-48.0
X220.2Y-128.0
X220.2Y-64.0
X199.8Y-93.46
X199.8Y-96.0
X199.8Y-98.54
X127.8Y-45.46
X127.8Y-48.0
X127.8Y-50.54
X175.8Y-125.46
X175.8Y-128.0
X175.8Y-130.54
X220.2Y-80.0
X199.8Y-77.46
X199.8Y-80.0
X199.8Y-82.54
X127.8Y-61.46
X127.8Y-64.0
X127.8Y-66.54
X175.8Y-77.46
X175.8Y-80.0
X175.8Y-82.54
X127.8Y-125.46
X127.8Y-128.0
X127.8Y-130.54
X148.2Y-96.0
X172.2Y-112.0
X196.2Y-64.0
X199.8Y-61.46
X199.8Y-64.0
X199.8Y-66.54
X196.2Y-80.0
X196.2Y-96.0
X172.2Y-64.0
X172.2Y-96.0
T0
M30
